<?xml version="1.0" encoding="utf-8"?>
<!-- Generator: Adobe Illustrator 19.2.1, SVG Export Plug-In . SVG Version: 6.00 Build 0)  -->
<svg version="1.1" id="Layer_1" xmlns="http://www.w3.org/2000/svg" xmlns:xlink="http://www.w3.org/1999/xlink" x="0px" y="0px"
	 width="302px" height="250px" viewBox="0 0 302 250" style="enable-background:new 0 0 302 250;" xml:space="preserve">
<style type="text/css">
	.st0{fill:#E8DED6;}
</style>
<g>
	<g>
		<path class="st0" d="M147.7,72.8h-0.1v0.1V73v11.4c-0.8-0.9-1.6-2.2-2.4-3.6c-0.6-1-1.2-2-1.9-3l0,0c-2.7-3.8-4-5.3-8.8-5.6
			c-0.2,0-0.3,0-0.5,0l-0.1,0v0.1v0.1V89v0.1v0.1h0.1h3.8h0.1v-0.1V89V76.7c0.8,0.9,1.6,2.2,2.4,3.6c0.6,1,1.2,2,1.9,3l0,0
			c2.7,3.8,4,5.9,8.8,6.2c0.2,0,0.3,0,0.5,0l0.1,0v-0.1v-0.1V73v-0.1v-0.1h-0.1H147.7z"/>
		<path class="st0" d="M129.1,85.1c-0.3,0-0.6-0.3-0.6-0.7l0-8.2c0-1.2,0-2.3,0.1-3.5l0,0h-0.2h-1.9c-0.5,0-1.1-0.1-1.6-0.2
			c-1.8-0.4-3.5-0.7-5.1-0.7c-3,0-5.2,0.5-6.8,2.1c-1.5,1.5-2.5,4-2.4,6.9c0,2.5,0.8,4.7,2.2,6.2c2.2,2.4,5.3,2.4,7.7,2.4
			c1,0,3.6-0.6,4.4-1.7c0.1,1.1,0.2,1.4,2.5,1.4h2.7v-4.1H129.1z M120.5,86.1c-3.7,0.2-6-1.4-6-5.3c0-2.6,0.9-5.8,5.1-5.8
			c2.1,0,4.1,0.7,4.9,1.1l0,7.9C124,84.8,123,86,120.5,86.1"/>
		<path class="st0" d="M164,71.8c-4.7,0-9,2-8.9,8.8c0,6,4.5,8.5,8.8,8.7h0.2c4.3-0.2,8.9-2.2,8.8-8.7
			C172.9,74.4,168.7,71.8,164,71.8 M164.1,86.4H164c-2.6-0.1-5.3-1.8-5.3-5.8c0-4.5,2.5-5.9,5.4-5.8c0,0,0,0,0,0h0.1c0,0,0,0,0,0
			c2.8,0,5.3,1.8,5.4,5.8C169.5,84.9,166.7,86.2,164.1,86.4"/>
		<g>
			<path class="st0" d="M175,87l2.2-2.7c2.4,1.4,4.9,2.1,7.1,2.1c2.1,0,3.4-0.7,3.4-1.9v-0.1c0-1.3-2.3-1.8-4.8-2.4
				c-3.2-0.7-6.7-1.8-6.7-5.1v-0.1c0-3.3,3.4-5.3,7.7-5.3c2.7,0,5.6,0.8,7.9,2l-2,2.8c-2.1-1-4.3-1.6-6.1-1.6c-1.9,0-3,0.7-3,1.7
				v0.1c0,1.3,2.3,1.8,4.9,2.5c3.1,0.8,6.7,1.9,6.7,5v0.1c0,3.6-3.5,5.4-8,5.4C181,89.6,177.7,88.7,175,87z"/>
		</g>
	</g>
	<g>
		<g>
			<path class="st0" d="M118.6,18.4l-0.3,43.5c4.8-1,9.7-1.7,14.7-2.3L133.3,4h-12.7L99.8,19.2l7.6,8.5L118.6,18.4z"/>
			<path class="st0" d="M151.6,58.6c3.4,0,6.7,0.1,10.1,0.3c-3-4.7-3.2-13.5-3.2-20.4c0-9.1,0.5-26,8.9-26c8.2,0,8.6,15.1,8.6,25.2
				c0,7.4-0.3,17.5-3.8,22.1c4.5,0.5,8.9,1.2,13.2,2.1c4.1-7.3,5.3-17.2,5.3-26.4c0-14.9-5.7-33.3-23.2-33.3
				c-18.6,0-23.7,19.9-23.7,35.8c0,7,1,14.4,3.7,20.5C148.8,58.6,150.2,58.6,151.6,58.6z"/>
		</g>
	</g>
	<g>
		<path class="st0" d="M265.7,142.1v0.1v27.8c-3.5-3.5-6.8-10.5-10.7-16c-6.3-8.9-8.8-12.5-20-13.2c-0.4,0-0.7,0-1.1-0.1v0.2v39.5
			v0.1h8.4v-0.1v-30.1c3.5,3.5,6.8,10.5,10.7,16c6.3,8.9,8.8,14.1,20,14.8c0.4,0,0.7,0,1.1,0.1v-0.2v-38.9v-0.1H265.7z"/>
		<path class="st0" d="M206.9,139.8c-11-0.1-21,4.7-20.9,20.7c0.1,14.1,10.6,20,20.7,20.5h0.4c10.2-0.5,20.9-5.2,20.7-20.5
			C227.8,146,218,139.8,206.9,139.8 M207.1,174.1h-0.3c-6.1-0.3-12.4-4.3-12.5-13.6c-0.1-10.6,6-13.8,12.6-13.7c0,0,0,0-0.1,0h0.2
			c0,0-0.1,0-0.1,0c6.6,0,12.5,4.1,12.6,13.7C219.7,170.6,213.2,173.8,207.1,174.1"/>
		<path class="st0" d="M290.4,172.9V141h4.7v-7h-4.7v-6.7H283v6.7v0.1v39v0.1c0,4.1,3.4,7.5,7.5,7.5h0.1h6.2v-7h-5.6
			C290.8,173.7,290.4,173.4,290.4,172.9"/>
		<path class="st0" d="M182.1,171.7c-1.9,0.9-6.1,2.5-11,2.5c-9.6,0-12.2-6.8-12.2-13.8c0-10.5,5.2-13.1,12.2-13.5
			c4.9-0.3,9.1,1,11,1.7v-7.7c-11.8-2.6-31.3-1.5-31.6,19.5c-0.3,21.3,17.6,22.7,31.6,19.4V171.7z"/>
		<path class="st0" d="M88.7,142.1h-0.3v0.3v0.1v26.8c-1.9-2.1-3.8-5.2-5.7-8.5c-1.4-2.3-2.9-4.8-4.4-6.9l-0.1-0.1
			c-6.3-8.9-9.5-12.5-20.8-13.2c-0.4,0-0.8,0-1.1-0.1l-0.3,0v0.3v0.2v39.2v0.1v0.3h0.3h9h0.3v-0.3v-0.1v-29c1.9,2.1,3.8,5.2,5.7,8.5
			c1.4,2.3,2.9,4.8,4.4,6.9l0.1,0.1c6.3,8.9,9.5,13.9,20.8,14.6c0.4,0,0.8,0,1.1,0.1l0.3,0v-0.3v-0.2v-38.3v-0.1v-0.3h-0.3H88.7z"/>
		<path class="st0" d="M137.6,143.1c-4.8-3.5-11-3.7-15.3-3.7c-3.7,0-7.6,0.5-11.1,1.5c-5.4,1.5-7.4,1.8-7.4,1.8l-0.2,0.1v0.2v34.4
			v24.8v0.3h0.3h0.1c4.8,0,9.2-3.5,9.2-7.8V180c3.8,0.9,7.5,1.3,10.9,1.3c6.9,0,12.3-1.3,15.9-4.9c3.5-3.6,5.8-9.4,5.7-16.1
			C145.5,152.9,142.4,146.7,137.6,143.1 M136,160.3c0,6.2-2.1,13.5-11.9,13.5c-5,0-9.3-1.7-11-2.5v-13.2v-9.3
			c1.8-0.7,5.4-1.7,9.6-1.7c0.5,0,0.9,0,1.4,0C130.3,147.5,136,149.3,136,160.3"/>
		<path class="st0" d="M48.9,171c-0.8,0-1.5-0.8-1.5-1.5l0-19.3c0-2.7,0.1-5.4,0.2-8.1l0,0H47h-4.5c-1.3,0-2.5-0.2-3.8-0.5
			c-4.1-1-8.3-1.6-11.9-1.6c-6.9,0-12.3,1.3-15.9,4.9c-3.5,3.6-5.8,9.4-5.7,16.1c0.1,5.9,2,11.1,5.2,14.7c5.2,5.7,12.4,5.7,18.2,5.7
			c2.3,0,8.5-1.4,10.2-4c0.2,2.5,0.4,3.3,5.9,3.3h6.4V171H48.9z M28.9,173.5c-8.7,0.5-14.1-3.3-14.1-12.5c0-6.2,2.1-13.5,11.9-13.5
			c4.9,0,9.6,1.6,11.6,2.5l0,18.6C37.1,170.5,34.8,173.1,28.9,173.5"/>
		<path class="st0" d="M7.7,222.5l-2.1-0.6l4.6-11.9h2l4.3,11.9l-2.2,0.6l-1.2-3.5H9L7.7,222.5z M11.2,212.3L11.2,212.3l-1.5,4.8
			h2.9L11.2,212.3z"/>
		<path class="st0" d="M18.3,220.1c0.7,0.4,1.4,0.7,2.2,0.7c0.6,0,1.2-0.3,1.2-1.1c0-1.8-4.1-0.4-4.1-4c0-1.9,1.5-2.8,3.2-2.8
			c1,0,2.2,0.3,3,1l-0.9,1.4c-0.5-0.4-1.3-0.7-1.9-0.7c-0.6,0-1.4,0.3-1.4,1.1c0,1.7,4.2,0.6,4.2,3.9c0,1.9-1.6,2.9-3.3,2.9
			c-1.1,0-2.1-0.3-3-0.9L18.3,220.1z"/>
		<path class="st0" d="M26,220.1c0.7,0.4,1.4,0.7,2.2,0.7c0.6,0,1.2-0.3,1.2-1.1c0-1.8-4.1-0.4-4.1-4c0-1.9,1.5-2.8,3.2-2.8
			c1,0,2.2,0.3,3,1l-0.9,1.4c-0.5-0.4-1.3-0.7-1.9-0.7c-0.6,0-1.4,0.3-1.4,1.1c0,1.7,4.2,0.6,4.2,3.9c0,1.9-1.6,2.9-3.3,2.9
			c-1.1,0-2.1-0.3-3-0.9L26,220.1z"/>
		<path class="st0" d="M37,213.1c2.8,0,4.2,2.1,4.2,4.7c0,2.5-1.5,4.7-4.2,4.7c-2.8,0-4.2-2.2-4.2-4.7
			C32.9,215.4,34.5,213.1,37,213.1 M37,220.8c1.5,0,2.1-1.7,2.1-2.9c0-1.9-0.6-3.1-2.1-3.1c-1.6,0-2.1,1.8-2.1,3.1
			C35,218.9,35.5,220.8,37,220.8"/>
		<path class="st0" d="M49.5,220.8c-0.8,1.1-1.9,1.7-3.3,1.7c-2.5,0-3.8-2.4-3.8-4.6c0-2.5,1.5-4.9,4.1-4.9c1.3,0,2.3,0.6,3,1.5
			l-1.2,1.2c-0.5-0.4-1-0.9-1.8-0.9c-1.3,0-2,1.5-2,2.8c0,1.9,0.8,2.9,1.9,2.9c0.8,0,1.3-0.5,1.8-1L49.5,220.8z"/>
		<path class="st0" d="M50.9,213.3H53l-0.1,9h-2.1L50.9,213.3z M50.9,210H53l0,2.1h-2.1L50.9,210z"/>
		<path class="st0" d="M55.3,214.9c1.9-1.6,2.9-1.8,3.8-1.8c1.3,0,2.5,0.8,2.5,2.6c0,0.3,0,0.5,0,0.7l-0.1,2.6c0,0.4,0,0.7,0,1.1
			c0,0.5,0.2,0.9,0.5,0.9c0.1,0,0.3-0.1,0.6-0.2l0.5,1.1c-0.9,0.6-1.4,0.7-1.8,0.7c-0.7,0-1.3-0.4-1.5-1.2c-0.6,0.7-1.4,1.2-2.2,1.2
			c-1.6,0-2.6-1-2.6-2.6c0-1.4,0.9-2.7,4.7-3.3V216c0-1-0.4-1.2-1-1.2c-0.4,0-1,0.2-2.3,1.2L55.3,214.9z M59.5,218
			c-2,0.5-2.6,1-2.6,1.9c0,0.7,0.5,1.1,1.1,1.1c0.4,0,1-0.3,1.5-0.8L59.5,218z"/>
		<path class="st0" d="M67,223.3c0.1,0,0.2-0.1,0.4-0.1c0.8,0,1.6,0.4,1.6,1.3c0,1.2-1.1,1.7-2.1,1.7c-0.6,0-1.2-0.2-1.8-0.5
			l0.3-0.7c0.3,0.1,0.7,0.3,1.1,0.3c0.5,0,1.1-0.1,1.1-0.8c0-0.5-0.4-0.7-0.8-0.7c-0.2,0-0.5,0.1-0.6,0.1l-0.4-0.3l0.9-1.4
			c-2-0.5-3-2.6-3-4.5c0-2.5,1.5-4.9,4.1-4.9c1.3,0,2.3,0.6,3,1.5l-1.2,1.2c-0.5-0.4-1-0.9-1.8-0.9c-1.3,0-2,1.5-2,2.8
			c0,1.9,0.8,2.9,1.9,2.9c0.8,0,1.3-0.5,1.8-1l1.2,1.1c-0.8,1.1-1.9,1.7-3.3,1.7L67,223.3L67,223.3z"/>
		<path class="st0" d="M72.2,214.9c1.9-1.6,2.9-1.8,3.8-1.8c1.3,0,2.5,0.8,2.5,2.6c0,0.3,0,0.5,0,0.7l-0.1,2.6c0,0.4,0,0.7,0,1.1
			c0,0.5,0.2,0.9,0.5,0.9c0.1,0,0.3-0.1,0.6-0.2l0.5,1.1c-0.9,0.6-1.4,0.7-1.8,0.7c-0.7,0-1.4-0.4-1.5-1.2c-0.6,0.7-1.4,1.2-2.2,1.2
			c-1.6,0-2.6-1-2.6-2.6c0-1.4,0.9-2.7,4.7-3.3V216c0-1-0.4-1.2-1-1.2c-0.4,0-1,0.2-2.3,1.2L72.2,214.9z M72.6,212
			c0.2-1.1,0.7-2.1,1.9-2.1c0.3,0,0.8,0.2,1.3,0.3c0.5,0.2,0.9,0.3,1.2,0.3c0.4,0,0.6-0.4,0.7-0.8h1c-0.2,1.1-0.7,2.1-1.9,2.1
			c-0.3,0-0.8-0.2-1.3-0.3c-0.5-0.2-0.9-0.3-1.2-0.3c-0.4,0-0.6,0.4-0.7,0.8H72.6z M76.5,218c-2,0.5-2.7,1-2.7,1.9
			c0,0.7,0.5,1.1,1.1,1.1c0.4,0,1-0.3,1.5-0.8L76.5,218z"/>
		<path class="st0" d="M84.8,213.1c2.8,0,4.2,2.1,4.2,4.7c0,2.5-1.5,4.7-4.2,4.7c-2.8,0-4.2-2.2-4.2-4.7
			C80.6,215.4,82.2,213.1,84.8,213.1 M84.8,220.8c1.5,0,2.1-1.7,2.1-2.9c0-1.9-0.6-3.1-2.1-3.1c-1.6,0-2.1,1.8-2.1,3.1
			C82.7,218.9,83.2,220.8,84.8,220.8"/>
		<polygon class="st0" points="95.2,210.3 97.3,209.7 102.9,219.1 102.9,219.1 102.8,210 105,210 104.9,221.9 102.6,222.5 
			97.2,213.1 97.2,213.2 97.3,222.3 95.1,222.3 		"/>
		<path class="st0" d="M107.2,214.9c1.9-1.6,2.9-1.8,3.8-1.8c1.3,0,2.5,0.8,2.5,2.6c0,0.3,0,0.5,0,0.7l-0.1,2.6c0,0.4,0,0.7,0,1.1
			c0,0.5,0.2,0.9,0.5,0.9c0.1,0,0.3-0.1,0.6-0.2l0.5,1.1c-0.9,0.6-1.4,0.7-1.8,0.7c-0.7,0-1.4-0.4-1.5-1.2c-0.6,0.7-1.4,1.2-2.2,1.2
			c-1.6,0-2.6-1-2.6-2.6c0-1.4,0.9-2.7,4.7-3.3V216c0-1-0.4-1.2-1-1.2c-0.4,0-1,0.2-2.3,1.2L107.2,214.9z M111.5,218
			c-2,0.5-2.6,1-2.6,1.9c0,0.7,0.5,1.1,1.1,1.1c0.4,0,1-0.3,1.5-0.8L111.5,218z"/>
		<path class="st0" d="M122.6,220.8c-0.8,1.1-1.9,1.7-3.3,1.7c-2.5,0-3.8-2.4-3.8-4.6c0-2.5,1.5-4.9,4.1-4.9c1.3,0,2.3,0.6,3,1.5
			l-1.2,1.2c-0.5-0.4-1-0.9-1.8-0.9c-1.3,0-2,1.5-2,2.8c0,1.9,0.8,2.9,1.9,2.9c0.8,0,1.3-0.5,1.8-1L122.6,220.8z"/>
		<path class="st0" d="M124,213.3h2.1l-0.1,9h-2.1L124,213.3z M124.1,210h2.1l0,2.1H124L124.1,210z"/>
		<path class="st0" d="M132.3,213.1c2.8,0,4.2,2.1,4.2,4.7c0,2.5-1.5,4.7-4.2,4.7c-2.8,0-4.2-2.2-4.2-4.7
			C128.1,215.4,129.7,213.1,132.3,213.1 M132.3,220.8c1.5,0,2.1-1.7,2.1-2.9c0-1.9-0.6-3.1-2.1-3.1c-1.6,0-2.1,1.8-2.1,3.1
			C130.2,218.9,130.7,220.8,132.3,220.8"/>
		<path class="st0" d="M138.3,213.3h2.1v1.1h0c0.7-0.8,1.7-1.3,2.8-1.3c1.8,0,2.3,1.3,2.3,2.7c0,0.9,0,1.4,0,2l-0.1,4.5h-2.1l0-2.2
			c0-1.4,0-2.5,0-3.5c0-1.1-0.3-1.5-1.1-1.5c-0.7,0-1.4,0.6-1.9,1.2l0,6.1h-2.1L138.3,213.3z"/>
		<path class="st0" d="M147.7,214.9c1.9-1.6,2.9-1.8,3.8-1.8c1.3,0,2.5,0.8,2.5,2.6c0,0.3,0,0.5,0,0.7l-0.1,2.6c0,0.4,0,0.7,0,1.1
			c0,0.5,0.2,0.9,0.5,0.9c0.1,0,0.3-0.1,0.6-0.2l0.5,1.1c-0.9,0.6-1.4,0.7-1.8,0.7c-0.7,0-1.4-0.4-1.5-1.2c-0.6,0.7-1.4,1.2-2.2,1.2
			c-1.6,0-2.6-1-2.6-2.6c0-1.4,0.9-2.7,4.7-3.3V216c0-1-0.4-1.2-1-1.2c-0.4,0-1,0.2-2.3,1.2L147.7,214.9z M151.9,218
			c-2,0.5-2.7,1-2.7,1.9c0,0.7,0.5,1.1,1.1,1.1c0.4,0,1-0.3,1.5-0.8L151.9,218z"/>
		<polygon class="st0" points="156.8,208.9 158.9,208.9 158.8,222.3 156.7,222.3 		"/>
		<path class="st0" d="M171.5,221.3L171.5,221.3c-0.5,0.7-1.3,1.2-2.2,1.2c-2.1,0-3.7-1.9-3.7-4.6c0-2.4,1.4-4.8,3.8-4.8
			c0.7,0,1.5,0.2,1.9,0.9h0l0.1-5h2.1l-0.1,13.4h-2V221.3z M171.4,215.8c-0.3-0.4-0.7-0.8-1.5-0.8c-1.1,0-2.1,1.1-2.1,2.9
			c0,1.7,0.9,2.8,2.1,2.8c0.7,0,1.4-0.6,1.5-1.4V215.8z"/>
		<path class="st0" d="M177.4,218.1c0,1.2,0.6,2.7,2,2.7c0.8,0,1.5-0.6,2-1.2l1.2,1.1c-0.9,1.1-2.1,1.8-3.6,1.8
			c-2.2,0-3.8-1.9-3.8-4.7c0-2.4,1.4-4.8,4-4.8c2.5,0,3.6,1.9,3.6,5H177.4z M180.9,216.5c-0.1-1-0.5-1.9-1.6-1.9
			c-1,0-1.7,1.1-1.8,1.9H180.9z"/>
		<path class="st0" d="M189.5,210h3.4c3.1,0,4.4,1.5,4.4,3.8c0,2.5-2,3.7-4.4,3.7h-1.2l0,4.8h-2.3L189.5,210z M192.9,215.6
			c1.2,0,2.1-0.7,2.1-1.9c0-0.7-0.4-1.9-2-1.9h-1.2l0,3.8H192.9z"/>
		<path class="st0" d="M199,213.3h2.1v1.6l0,0c0.4-1,1-1.9,2-1.9c0.2,0,0.4,0,0.6,0.1l-0.3,2.1c-0.2,0-0.3-0.1-0.5-0.1
			c-0.8,0-1.4,0.6-1.8,1.6l-0.1,5.6h-2.1L199,213.3z"/>
		<path class="st0" d="M208.3,213.1c2.8,0,4.2,2.1,4.2,4.7c0,2.5-1.5,4.7-4.2,4.7c-2.8,0-4.2-2.2-4.2-4.7
			C204.1,215.4,205.8,213.1,208.3,213.1 M208.3,220.8c1.5,0,2.1-1.7,2.1-2.9c0-1.9-0.6-3.1-2.1-3.1c-1.6,0-2.1,1.8-2.1,3.1
			C206.3,218.9,206.7,220.8,208.3,220.8"/>
		<path class="st0" d="M220.9,214.7c0.3,0.4,0.5,0.9,0.5,1.4c0,1.9-1.6,2.9-3.2,2.9c-0.7,0-1.3-0.1-1.6-0.2
			c-0.3,0.2-0.8,0.5-0.8,0.8c0,0.4,0.5,0.5,2.5,0.6c2,0.2,4,0.4,4,2.7c0,2.5-2.6,3.7-4.8,3.7c-2.8,0-3.9-1.3-3.9-2.6
			c0-1.3,1-1.9,1.9-2.3v0c-0.8-0.2-1.9-0.4-1.9-1.2c0-0.8,0.6-1.2,2-2.1c-0.8-0.5-1.2-1.2-1.2-2.1c0-1.9,1.6-3,3.4-3
			c1,0,1.4,0.2,1.9,0.4l2.8-0.1v1.4L220.9,214.7z M217.8,225.2c1.5,0,2.6-1,2.6-1.9c0-0.9-0.3-1.1-3.4-1.4c-0.7,0.4-1.5,0.9-1.5,1.8
			C215.5,224.8,216.9,225.2,217.8,225.2 M216.5,216.1c0,0.8,0.5,1.5,1.5,1.5c1,0,1.4-0.7,1.4-1.6c0-0.9-0.5-1.6-1.4-1.6
			C217.1,214.4,216.5,215.1,216.5,216.1"/>
		<path class="st0" d="M224.8,213.3h2.1v1.6l0,0c0.4-1,1-1.9,2-1.9c0.2,0,0.4,0,0.6,0.1l-0.3,2.1c-0.2,0-0.3-0.1-0.5-0.1
			c-0.8,0-1.4,0.6-1.8,1.6l-0.1,5.6h-2.1L224.8,213.3z"/>
		<path class="st0" d="M231.2,214.9c1.9-1.6,2.9-1.8,3.8-1.8c1.3,0,2.5,0.8,2.5,2.6c0,0.3,0,0.5,0,0.7l-0.1,2.6c0,0.4,0,0.7,0,1.1
			c0,0.5,0.2,0.9,0.5,0.9c0.1,0,0.3-0.1,0.6-0.2l0.5,1.1c-0.9,0.6-1.4,0.7-1.8,0.7c-0.7,0-1.4-0.4-1.5-1.2c-0.6,0.7-1.4,1.2-2.2,1.2
			c-1.6,0-2.6-1-2.6-2.6c0-1.4,0.9-2.7,4.7-3.3V216c0-1-0.4-1.2-1-1.2c-0.4,0-1,0.2-2.3,1.2L231.2,214.9z M235.4,218
			c-2,0.5-2.7,1-2.7,1.9c0,0.7,0.5,1.1,1.1,1.1c0.4,0,1-0.3,1.5-0.8L235.4,218z"/>
		<path class="st0" d="M240.4,213.3h2.1v1.2l0,0c0.5-0.9,1.5-1.5,2.6-1.5c1,0,1.9,0.5,2.1,1.5c0.7-0.9,1.7-1.5,2.9-1.5
			c2,0,2.4,1.4,2.4,2.6c0,2.2,0,4.4,0,6.6h-2.1l0-3.5c0-0.9,0-2.2,0-2.6c0-0.7-0.4-1.1-1.1-1.1c-0.6,0-1.4,0.7-1.8,1.2l-0.1,6.1
			h-2.1l0-3.5c0-0.9,0-2.2,0-2.6c0-0.7-0.4-1.1-1.1-1.1c-0.6,0-1.4,0.7-1.8,1.2l-0.1,6.1h-2.1L240.4,213.3z"/>
		<path class="st0" d="M254.5,214.9c1.9-1.6,2.9-1.8,3.8-1.8c1.3,0,2.5,0.8,2.5,2.6c0,0.3,0,0.5,0,0.7l-0.1,2.6c0,0.4,0,0.7,0,1.1
			c0,0.5,0.2,0.9,0.5,0.9c0.1,0,0.3-0.1,0.6-0.2l0.5,1.1c-0.9,0.6-1.4,0.7-1.8,0.7c-0.7,0-1.4-0.4-1.5-1.2c-0.6,0.7-1.4,1.2-2.2,1.2
			c-1.6,0-2.6-1-2.6-2.6c0-1.4,0.9-2.7,4.7-3.3V216c0-1-0.4-1.2-1-1.2c-0.4,0-1,0.2-2.3,1.2L254.5,214.9z M258.8,218
			c-2,0.5-2.7,1-2.7,1.9c0,0.7,0.5,1.1,1.1,1.1c0.4,0,1-0.3,1.5-0.8L258.8,218z"/>
		<path class="st0" d="M263.7,220.1c0.7,0.4,1.4,0.7,2.2,0.7c0.6,0,1.2-0.3,1.2-1.1c0-1.8-4.1-0.4-4.1-4c0-1.9,1.5-2.8,3.2-2.8
			c1,0,2.2,0.3,3,1l-0.9,1.4c-0.5-0.4-1.3-0.7-1.9-0.7c-0.6,0-1.4,0.3-1.4,1.1c0,1.7,4.2,0.6,4.2,3.9c0,1.9-1.6,2.9-3.3,2.9
			c-1.1,0-2.1-0.3-3-0.9L263.7,220.1z"/>
		<path class="st0" d="M280,221.3L280,221.3c-0.5,0.7-1.3,1.2-2.2,1.2c-2.1,0-3.7-1.9-3.7-4.6c0-2.4,1.4-4.8,3.8-4.8
			c0.7,0,1.5,0.2,1.9,0.9h0l0.1-5h2.1l-0.1,13.4h-2V221.3z M279.8,215.8c-0.3-0.4-0.7-0.8-1.5-0.8c-1.1,0-2.1,1.1-2.1,2.9
			c0,1.7,0.9,2.8,2.1,2.8c0.7,0,1.4-0.6,1.5-1.4V215.8z"/>
		<path class="st0" d="M285.8,218.1c0,1.2,0.6,2.7,2,2.7c0.8,0,1.5-0.6,2-1.2l1.2,1.1c-0.9,1.1-2.1,1.8-3.6,1.8
			c-2.2,0-3.8-1.9-3.8-4.7c0-2.4,1.4-4.8,4-4.8c2.5,0,3.6,1.9,3.6,5H285.8z M289.3,216.5c-0.1-1-0.5-1.9-1.6-1.9
			c-1,0-1.7,1.1-1.8,1.9H289.3z"/>
		<path class="st0" d="M5.3,231.3h3.4c3.1,0,4.4,1.5,4.4,3.8c0,2.5-2,3.7-4.4,3.7H7.5l0,4.8H5.2L5.3,231.3z M8.7,237
			c1.2,0,2.1-0.7,2.1-1.9c0-0.7-0.4-1.9-2-1.9H7.6l0,3.8H8.7z"/>
		<path class="st0" d="M17.5,234.4c2.8,0,4.2,2.1,4.2,4.7c0,2.5-1.5,4.7-4.2,4.7c-2.8,0-4.2-2.2-4.2-4.7
			C13.3,236.8,14.9,234.4,17.5,234.4 M17.5,242.2c1.5,0,2.1-1.7,2.1-2.9c0-1.9-0.6-3.1-2.1-3.1c-1.6,0-2.1,1.8-2.1,3.1
			C15.4,240.3,15.9,242.2,17.5,242.2 M17.8,230.9h2.3l-2.4,2.5h-1.4L17.8,230.9z"/>
		<path class="st0" d="M23.8,241.5c0.7,0.4,1.4,0.7,2.2,0.7c0.6,0,1.2-0.3,1.2-1.1c0-1.8-4.1-0.4-4.1-4c0-1.9,1.5-2.8,3.2-2.8
			c1,0,2.2,0.3,3,1l-0.9,1.4c-0.5-0.4-1.3-0.7-1.9-0.7c-0.6,0-1.4,0.3-1.4,1.1c0,1.7,4.2,0.6,4.2,3.9c0,1.9-1.6,2.9-3.3,2.9
			c-1.1,0-2.1-0.3-3-0.9L23.8,241.5z"/>
		<rect x="31.1" y="238.2" class="st0" width="4.6" height="2"/>
		<path class="st0" d="M45.9,237.4h2.3l-0.1,5.6c-1.3,0.5-2.7,0.9-4,0.9c-3.6,0-6.4-2.7-6.4-6.4c0-3.6,2.9-6.4,6.4-6.4
			c1.5,0,2.9,0.3,3.9,0.9l-0.8,1.7c-0.9-0.4-1.9-0.8-3.1-0.8c-2,0-4.1,1.7-4.1,4.6c0,2.7,1.6,4.6,4.1,4.6c0.6,0,1.2-0.1,1.7-0.3
			L45.9,237.4z"/>
		<path class="st0" d="M50.5,234.7h2.1v1.6l0,0c0.4-1,1-1.9,2-1.9c0.2,0,0.4,0,0.6,0.1l-0.3,2.1c-0.2,0-0.3-0.1-0.5-0.1
			c-0.8,0-1.4,0.6-1.8,1.6l-0.1,5.6h-2.1L50.5,234.7z"/>
		<path class="st0" d="M55.9,236.2c1.9-1.6,2.9-1.8,3.8-1.8c1.3,0,2.5,0.8,2.5,2.6c0,0.3,0,0.5,0,0.7l-0.1,2.6c0,0.4,0,0.7,0,1.1
			c0,0.5,0.2,0.9,0.5,0.9c0.1,0,0.3-0.1,0.6-0.2l0.5,1.1c-0.9,0.6-1.4,0.7-1.8,0.7c-0.7,0-1.4-0.4-1.5-1.2c-0.6,0.7-1.4,1.2-2.2,1.2
			c-1.6,0-2.6-1-2.6-2.6c0-1.4,0.9-2.7,4.7-3.3v-0.6c0-1-0.4-1.2-1-1.2c-0.4,0-1,0.2-2.3,1.2L55.9,236.2z M60.2,239.3
			c-2,0.5-2.7,1-2.7,1.9c0,0.7,0.5,1.1,1.1,1.1c0.4,0,1-0.3,1.5-0.8L60.2,239.3z"/>
		<path class="st0" d="M70.2,242.7L70.2,242.7c-0.5,0.7-1.3,1.2-2.2,1.2c-2.1,0-3.7-1.9-3.7-4.6c0-2.4,1.4-4.8,3.8-4.8
			c0.7,0,1.5,0.2,1.9,0.9h0l0.1-5h2.1l-0.1,13.4h-2V242.7z M70,237.1c-0.3-0.4-0.7-0.8-1.5-0.8c-1.1,0-2.1,1.1-2.1,2.9
			c0,1.7,0.9,2.8,2.1,2.8c0.7,0,1.4-0.6,1.5-1.4V237.1z"/>
		<path class="st0" d="M81.7,243.6h-2.1v-1.1h0c-0.7,0.8-1.6,1.3-2.7,1.3c-1.9,0-2.4-1.3-2.4-3c0-0.6,0-1.1,0-1.7l0.1-4.5h2.1l0,2.2
			c0,1.3,0,2.6,0,3.5c0,1.1,0.3,1.5,1.1,1.5c0.7,0,1.4-0.6,1.9-1.2l0-6.1h2.1L81.7,243.6z"/>
		<path class="st0" d="M83.9,236.2c1.9-1.6,2.9-1.8,3.8-1.8c1.3,0,2.5,0.8,2.5,2.6c0,0.3,0,0.5,0,0.7l-0.1,2.6c0,0.4,0,0.7,0,1.1
			c0,0.5,0.2,0.9,0.5,0.9c0.1,0,0.3-0.1,0.6-0.2l0.5,1.1c-0.9,0.6-1.4,0.7-1.8,0.7c-0.7,0-1.4-0.4-1.5-1.2c-0.6,0.7-1.4,1.2-2.2,1.2
			c-1.6,0-2.6-1-2.6-2.6c0-1.4,0.9-2.7,4.7-3.3v-0.6c0-1-0.4-1.2-1-1.2c-0.4,0-1,0.2-2.3,1.2L83.9,236.2z M88.1,239.3
			c-2,0.5-2.6,1-2.6,1.9c0,0.7,0.5,1.1,1.1,1.1c0.4,0,1-0.3,1.5-0.8L88.1,239.3z"/>
		<path class="st0" d="M95.6,244.7c0.1,0,0.2-0.1,0.4-0.1c0.8,0,1.6,0.4,1.6,1.3c0,1.2-1.1,1.7-2.1,1.7c-0.6,0-1.2-0.2-1.8-0.5
			l0.3-0.7c0.3,0.1,0.7,0.3,1.1,0.3c0.5,0,1.1-0.1,1.1-0.8c0-0.5-0.4-0.7-0.8-0.7c-0.2,0-0.5,0.1-0.6,0.1l-0.4-0.3l0.9-1.4
			c-2-0.5-3-2.6-3-4.5c0-2.5,1.5-4.9,4.1-4.9c1.3,0,2.3,0.6,3,1.5l-1.2,1.2c-0.5-0.4-1-0.9-1.8-0.9c-1.3,0-2,1.5-2,2.8
			c0,1.9,0.8,2.9,1.9,2.9c0.8,0,1.3-0.5,1.8-1l1.2,1.1c-0.8,1.1-1.9,1.7-3.3,1.7L95.6,244.7L95.6,244.7z"/>
		<path class="st0" d="M100.2,236.2c1.9-1.6,2.9-1.8,3.8-1.8c1.3,0,2.5,0.8,2.5,2.6c0,0.3,0,0.5,0,0.7l-0.1,2.6c0,0.4,0,0.7,0,1.1
			c0,0.5,0.2,0.9,0.5,0.9c0.1,0,0.3-0.1,0.6-0.2l0.5,1.1c-0.9,0.6-1.4,0.7-1.8,0.7c-0.7,0-1.3-0.4-1.5-1.2c-0.6,0.7-1.4,1.2-2.2,1.2
			c-1.6,0-2.6-1-2.6-2.6c0-1.4,0.9-2.7,4.7-3.3v-0.6c0-1-0.4-1.2-1-1.2c-0.4,0-1,0.2-2.3,1.2L100.2,236.2z M100.5,233.4
			c0.2-1.1,0.7-2.1,1.9-2.1c0.3,0,0.8,0.2,1.3,0.3c0.5,0.2,0.9,0.3,1.2,0.3c0.4,0,0.6-0.4,0.7-0.8h1c-0.2,1.1-0.7,2.1-1.9,2.1
			c-0.3,0-0.8-0.2-1.3-0.3c-0.5-0.2-0.9-0.3-1.2-0.3c-0.4,0-0.6,0.4-0.7,0.8H100.5z M104.5,239.3c-2,0.5-2.6,1-2.6,1.9
			c0,0.7,0.5,1.1,1.1,1.1c0.4,0,1-0.3,1.5-0.8L104.5,239.3z"/>
		<path class="st0" d="M112.7,234.4c2.8,0,4.2,2.1,4.2,4.7c0,2.5-1.5,4.7-4.2,4.7c-2.8,0-4.2-2.2-4.2-4.7
			C108.6,236.8,110.2,234.4,112.7,234.4 M112.7,242.2c1.5,0,2.1-1.7,2.1-2.9c0-1.9-0.6-3.1-2.1-3.1c-1.6,0-2.1,1.8-2.1,3.1
			C110.7,240.3,111.2,242.2,112.7,242.2"/>
		<path class="st0" d="M126.5,239.4c0,1.2,0.6,2.7,2,2.7c0.8,0,1.5-0.6,2-1.2l1.2,1.1c-0.9,1.1-2.1,1.8-3.5,1.8
			c-2.2,0-3.8-1.9-3.8-4.7c0-2.4,1.4-4.8,4-4.8c2.5,0,3.6,1.9,3.6,5H126.5z M129.9,237.9c-0.1-1-0.5-1.9-1.6-1.9
			c-1,0-1.7,1.1-1.8,1.9H129.9z"/>
		<path class="st0" d="M133.6,234.7h2.1v1.2l0,0c0.5-0.9,1.5-1.5,2.6-1.5c1,0,1.9,0.5,2.1,1.5c0.7-0.9,1.7-1.5,2.9-1.5
			c2,0,2.4,1.4,2.4,2.6c0,2.2,0,4.4,0,6.6h-2.1l0-3.5c0-0.9,0-2.2,0-2.6c0-0.7-0.4-1.1-1.1-1.1c-0.6,0-1.4,0.7-1.8,1.2l-0.1,6.1
			h-2.1l0-3.5c0-0.9,0-2.2,0-2.6c0-0.7-0.4-1.1-1.1-1.1c-0.6,0-1.4,0.7-1.8,1.2l-0.1,6.1h-2.1L133.6,234.7z"/>
		<path class="st0" d="M163.1,242.7c-1.1,0.8-2.5,1.2-3.8,1.2c-3.6,0-6.2-2.7-6.2-6.4c0-3.8,2.6-6.4,6.1-6.4c1.4,0,2.8,0.5,3.9,1.4
			l-1,1.6c-0.7-0.6-1.9-1.1-2.9-1.1c-2.3,0-3.9,1.9-3.9,4.4c0,2.4,1.6,4.5,3.8,4.5c1.5,0,2.3-0.4,3-0.8L163.1,242.7z"/>
		<path class="st0" d="M164.8,234.7h2.1l-0.1,9h-2.1L164.8,234.7z M164.8,231.3h2.1l0,2.1h-2.1L164.8,231.3z"/>
		<path class="st0" d="M171,239.4c0,1.2,0.6,2.7,2,2.7c0.8,0,1.5-0.6,2-1.2l1.2,1.1c-0.9,1.1-2.1,1.8-3.5,1.8
			c-2.2,0-3.8-1.9-3.8-4.7c0-2.4,1.4-4.8,4-4.8c2.5,0,3.6,1.9,3.6,5H171z M171.6,230.9h1.9l1.9,2.6h-1.6l-1.3-1.6l-1.3,1.6h-1.6
			L171.6,230.9z M174.4,237.9c-0.1-1-0.5-1.9-1.6-1.9c-1,0-1.7,1.1-1.8,1.9H174.4z"/>
		<path class="st0" d="M178.1,234.7h2.1v1.1h0c0.7-0.8,1.7-1.3,2.8-1.3c1.8,0,2.3,1.3,2.3,2.7c0,0.9,0,1.4,0,2l-0.1,4.5h-2.1l0-2.2
			c0-1.4,0-2.5,0-3.5c0-1.1-0.3-1.5-1.1-1.5c-0.7,0-1.4,0.6-1.9,1.2l0,6.1H178L178.1,234.7z"/>
		<path class="st0" d="M194.2,242.2c-0.8,1.1-1.9,1.7-3.3,1.7c-2.5,0-3.8-2.4-3.8-4.6c0-2.5,1.5-4.9,4.1-4.9c1.3,0,2.3,0.6,3,1.5
			l-1.2,1.2c-0.5-0.4-1-0.9-1.8-0.9c-1.3,0-2,1.5-2,2.8c0,1.9,0.8,2.9,1.9,2.9c0.8,0,1.3-0.5,1.8-1L194.2,242.2z"/>
		<path class="st0" d="M195.6,234.7h2.1l-0.1,9h-2.1L195.6,234.7z M195.6,231.3h2.1l0,2.1h-2.1L195.6,231.3z"/>
		<path class="st0" d="M199.9,236.2c1.9-1.6,2.9-1.8,3.8-1.8c1.3,0,2.5,0.8,2.5,2.6c0,0.3,0,0.5,0,0.7l-0.1,2.6c0,0.4,0,0.7,0,1.1
			c0,0.5,0.2,0.9,0.5,0.9c0.1,0,0.3-0.1,0.6-0.2l0.5,1.1c-0.9,0.6-1.4,0.7-1.8,0.7c-0.7,0-1.4-0.4-1.5-1.2c-0.6,0.7-1.4,1.2-2.2,1.2
			c-1.6,0-2.6-1-2.6-2.6c0-1.4,0.9-2.7,4.7-3.3v-0.6c0-1-0.4-1.2-1-1.2c-0.4,0-1,0.2-2.3,1.2L199.9,236.2z M204.2,239.3
			c-2,0.5-2.7,1-2.7,1.9c0,0.7,0.5,1.1,1.1,1.1c0.4,0,1-0.3,1.5-0.8L204.2,239.3z"/>
		<path class="st0" d="M209.1,241.5c0.7,0.4,1.4,0.7,2.2,0.7c0.6,0,1.2-0.3,1.2-1.1c0-1.8-4.1-0.4-4.1-4c0-1.9,1.5-2.8,3.2-2.8
			c1,0,2.2,0.3,3,1l-0.9,1.4c-0.5-0.4-1.3-0.7-1.9-0.7c-0.6,0-1.4,0.3-1.4,1.1c0,1.7,4.2,0.6,4.2,3.9c0,1.9-1.6,2.9-3.3,2.9
			c-1.1,0-2.1-0.3-3-0.9L209.1,241.5z"/>
		<path class="st0" d="M232.1,242.7c-1.1,0.8-2.5,1.2-3.8,1.2c-3.6,0-6.2-2.7-6.2-6.4c0-3.8,2.6-6.4,6.1-6.4c1.4,0,2.8,0.5,3.9,1.4
			l-1,1.6c-0.7-0.6-1.9-1.1-2.9-1.1c-2.3,0-3.9,1.9-3.9,4.4c0,2.4,1.6,4.5,3.8,4.5c1.5,0,2.3-0.4,3-0.8L232.1,242.7z"/>
		<path class="st0" d="M237.2,234.4c2.8,0,4.2,2.1,4.2,4.7c0,2.5-1.5,4.7-4.2,4.7c-2.8,0-4.2-2.2-4.2-4.7
			C233,236.8,234.6,234.4,237.2,234.4 M237.2,242.2c1.5,0,2.1-1.7,2.1-2.9c0-1.9-0.6-3.1-2.1-3.1c-1.6,0-2.1,1.8-2.1,3.1
			C235.1,240.3,235.6,242.2,237.2,242.2"/>
		<path class="st0" d="M243.2,234.7h2.1v1.1h0c0.7-0.8,1.7-1.3,2.8-1.3c1.8,0,2.3,1.3,2.3,2.7c0,0.9,0,1.4,0,2l-0.1,4.5h-2.1l0-2.2
			c0-1.4,0-2.5,0-3.5c0-1.1-0.3-1.5-1.1-1.5c-0.7,0-1.4,0.6-1.9,1.2l0,6.1h-2.1L243.2,234.7z"/>
		<path class="st0" d="M257.5,243.1l-0.7,0.4c-0.6,0.3-1.1,0.4-1.3,0.4c-1.5,0-2.4-0.8-2.4-2.7c0-0.4,0-1.4,0-2.2l0.1-2.7H252v-1.6
			l1.2,0l0.1-3.2h2.1l-0.1,3.2l1.9,0v1.6h-1.9l-0.1,2.6c0,0.9,0,1.7,0,2.4c0,0.6,0.2,0.9,0.7,0.9c0.4,0,0.7-0.2,1-0.4L257.5,243.1z"
			/>
		<path class="st0" d="M258.6,236.2c1.9-1.6,2.9-1.8,3.8-1.8c1.3,0,2.5,0.8,2.5,2.6c0,0.3,0,0.5,0,0.7l-0.1,2.6c0,0.4,0,0.7,0,1.1
			c0,0.5,0.2,0.9,0.5,0.9c0.1,0,0.3-0.1,0.6-0.2l0.5,1.1c-0.9,0.6-1.4,0.7-1.8,0.7c-0.7,0-1.3-0.4-1.5-1.2c-0.6,0.7-1.4,1.2-2.2,1.2
			c-1.6,0-2.6-1-2.6-2.6c0-1.4,0.9-2.7,4.7-3.3v-0.6c0-1-0.4-1.2-1-1.2c-0.4,0-1,0.2-2.3,1.2L258.6,236.2z M262.9,239.3
			c-2,0.5-2.6,1-2.6,1.9c0,0.7,0.5,1.1,1.1,1.1c0.4,0,1-0.3,1.5-0.8L262.9,239.3z M262.2,230.9h2.3l-2.4,2.5h-1.4L262.2,230.9z"/>
		<path class="st0" d="M267.6,230.3h2.1l-0.1,5.5l0,0c0.4-0.9,1.2-1.4,2.3-1.4c2.1,0,3.5,2,3.5,4.5c0,2.3-1.4,5-3.9,5
			c-0.8,0-1.6-0.3-2-1h0v0.8h-2L267.6,230.3z M269.6,241.4c0.2,0.3,0.8,0.7,1.4,0.7c1.6,0,2.3-1.5,2.3-2.9c0-1.4-0.6-2.8-2-2.8
			c-0.8,0-1.3,0.5-1.7,1.2L269.6,241.4z"/>
		<path class="st0" d="M278.9,239.4c0,1.2,0.6,2.7,2,2.7c0.8,0,1.5-0.6,2-1.2l1.2,1.1c-0.9,1.1-2.1,1.8-3.5,1.8
			c-2.2,0-3.8-1.9-3.8-4.7c0-2.4,1.4-4.8,4-4.8c2.5,0,3.6,1.9,3.6,5H278.9z M282.3,237.9c-0.1-1-0.5-1.9-1.6-1.9
			c-1,0-1.7,1.1-1.8,1.9H282.3z"/>
		<path class="st0" d="M286.1,234.7h2.1l-0.1,9h-2.1L286.1,234.7z M286.2,231.3h2.1l0,2.1h-2.1L286.2,231.3z"/>
		<path class="st0" d="M291,241.5c0.7,0.4,1.4,0.7,2.2,0.7c0.6,0,1.2-0.3,1.2-1.1c0-1.8-4.1-0.4-4.1-4c0-1.9,1.5-2.8,3.2-2.8
			c1,0,2.2,0.3,3,1l-0.9,1.4c-0.5-0.4-1.3-0.7-1.9-0.7c-0.6,0-1.4,0.3-1.4,1.1c0,1.7,4.2,0.6,4.2,3.9c0,1.9-1.6,2.9-3.3,2.9
			c-1.1,0-2.1-0.3-3-0.9L291,241.5z"/>
	</g>
	<g>
		<path class="st0" d="M230.9,22.9c3.7,0.3,6.8-0.7,9.9-1.2c4.5-0.7,8.9-1.6,13.3-2.4c0.5-0.1,1.1-0.2,1.7-0.2
			c1.8,0,2.5,0.9,2.1,2.7c-0.4,1.6-0.8,3.2-1.3,4.8c-0.7,2.2-2.6,3.4-5.2,3.5c-5.9,0.2-11.8,0.4-17.7,0.6c-1.3,0-2.6,0.2-3.6,1.3
			c1.3,0.8,2.5,0.6,3.7,0.6c5.4-0.1,10.8-0.3,16.2-0.5c1.1,0,2.4-0.3,3,0.9c0.6,1.1-0.2,2-0.7,2.9c-0.2,0.4-0.5,0.8-0.7,1.3
			c-1.5,3.4-4.1,4.5-7.7,4c-3.9-0.5-7.8-0.9-11.6-1.4c-1.4-0.2-2.7,0.2-4.3,0.7c1.9,1.3,3.7,1.1,5.5,1.4c3.4,0.5,6.8,0.8,10.2,1.1
			c0.9,0.1,1.8,0.1,2.2,1.1c0.3,0.9-0.3,1.7-0.9,2.3c-0.6,0.6-1.2,1.3-1.7,1.9c-1.7,1.9-3.8,2.5-6.2,1.8c-2.4-0.7-4.8-1.5-7.2-2.4
			c-1.4-0.5-2.8-0.6-4.4-0.1c0.5,1.1,1.6,1.3,2.5,1.6c2.2,0.8,4.3,1.4,6.5,2.2c2,0.7,2.2,1.4,1.1,3.2c-1.7,2.7-4.6,3.5-7.4,1.8
			c-1.1-0.7-2.2-1.5-3.3-2c-0.9-0.4-1.9-0.8-3.2-0.4c0.7,1.3,2,1.8,3.1,2.6c0.9,0.7,2.6,1,2.2,2.6c-0.4,1.6-1.7,2.8-3.3,3.2
			c-1.5,0.4-3.1,0.2-4.3-1c-0.9-0.9-2.1-1.3-3.5-1.7c0.2,1.2,0.9,1.9,1.6,2.5c1.1,1,0.8,1.8-0.2,2.5c-0.4,0.3-0.9,0.5-1.3,0.6
			c-5.2,1-10.4,2.1-15.7,3.1c-3.2,0.6-5-1.5-3.9-4.6c0.6-1.7,1.8-2.9,3.2-4c3.3-2.4,6.3-5,8.7-8.3c3-4.2,4.4-8.9,4-14.2
			c-0.4-5-1.1-10,0.1-15c0.8-3.5,2.8-6,6.3-7.2c4.7-1.6,9.5-2.2,14.3-3.2c7.9-1.8,15.7-3.4,23.6-5.1c2.6-0.6,3.1-0.1,3.1,2.6
			c0,0.7,0,1.4-0.1,2c-0.3,4-1.2,5.1-5.1,5.8c-6.3,1.2-12.7,2.3-19,3.5C233.8,21,232.3,21.4,230.9,22.9z"/>
		<path class="st0" d="M72.2,31.8c-1.2-1.3-2.8-1.3-4.2-1.4c-5.3-0.2-10.5-0.3-15.8-0.4c-4.2-0.1-5.5-1.1-6.6-5.1
			c-0.3-1-0.5-1.9-0.8-2.9c-0.6-2.4,0.4-3.5,2.8-3.1c6.4,1.2,12.8,2.4,19.2,3.5c1.5,0.3,3.1,0.8,4.9,0.3c-1-1.5-2.5-1.8-3.9-2.1
			c-6.6-1.3-13.3-2.5-19.9-3.7c-3.3-0.6-4.4-1.8-4.7-5.2c0-0.6-0.1-1.1-0.1-1.7c-0.1-3.3,0.4-3.8,3.7-3.1c6.9,1.5,13.8,3,20.7,4.5
			c4.5,1,9,1.9,13.5,2.8c7.6,1.6,9.8,5.4,10,12.6c0.1,3.8-0.1,7.7-0.4,11.5c-0.4,5.7,1.7,10.6,5.3,14.8c2.3,2.7,4.9,4.9,7.7,7
			c1,0.7,1.9,1.6,2.5,2.7c0.8,1.5,0.9,3-0.1,4.4c-0.9,1.3-2.4,1.2-3.7,1c-4-0.8-7.9-1.6-11.8-2.4c-1.5-0.3-3-0.5-4.3-1
			c-1.8-0.6-2-1.7-0.6-3.1c0.6-0.5,1.3-1,1.2-2.1c-1.2,0-2.2,0.5-3.2,1.3c-2.5,2.1-5.5,1.7-7.4-1c-0.9-1.2-0.7-2.1,0.6-2.9
			c1.3-0.8,2.5-1.6,3.7-2.4c0.2-0.2,0.4-0.5,0.6-0.8c-1.6-0.4-2.8,0.1-4,0.8c-1.4,0.8-2.7,2-4.4,2.3c-2.8,0.6-5.3-0.9-6-3.6
			c-0.3-1.2,0.5-1.7,1.4-2c2.2-0.7,4.4-1.4,6.5-2.2c0.9-0.3,1.9-0.6,2.5-1.5c-1.5-0.9-3-0.4-4.5,0.1c-2.1,0.7-4.2,1.4-6.4,2.1
			c-2.8,0.9-5.2,0.5-7.2-1.9c-0.6-0.8-1.4-1.4-2-2.2c-1-1.3-0.6-2.4,1-2.7c3.1-0.5,6.2-0.7,9.2-1.1c2.3-0.3,4.7-0.2,7.1-1.3
			c-1.4-1.1-2.9-1.1-4.4-0.9c-3.8,0.4-7.5,0.8-11.3,1.3c-3.9,0.5-5.6-0.2-7.6-3.7c-0.4-0.7-0.9-1.5-1.3-2.2
			c-1.1-1.9-0.4-3.1,1.8-3.2c1.5,0,3.1,0.1,4.7,0.1c4.8,0.2,9.7,0.4,14.5,0.3C71.2,32.3,71.7,32.3,72.2,31.8z"/>
	</g>
	<path class="st0" d="M150.8,119.2c-27.2,0-52.1-8.4-76.2-16.5c-23.4-7.9-45.5-15.3-69-15.3v-5.7c24.4,0,48,7.9,70.8,15.6
		c23.7,8,48.1,16.2,74.4,16.2c26.1,0,50.2-8.2,73.6-16.1c23-7.8,46.7-15.8,71.9-15.8v5.7c-24.2,0-46.5,7.5-70,15.5
		C202.5,110.9,177.9,119.2,150.8,119.2z"/>
</g>
</svg>
