<?xml version="1.0" encoding="utf-8"?>
<!-- Generator: Adobe Illustrator 19.1.1, SVG Export Plug-In . SVG Version: 6.00 Build 0)  -->
<svg version="1.1" id="Layer_1" xmlns="http://www.w3.org/2000/svg" xmlns:xlink="http://www.w3.org/1999/xlink" x="0px" y="0px"
	 width="549px" height="67px" viewBox="0 0 549 67" style="enable-background:new 0 0 549 67;" xml:space="preserve">
<style type="text/css">
	.st0{fill:#E5DAD1;}
</style>
<g>
	<path class="st0" d="M229.2,13.5v0.1V38c-3-3-6-9.3-9.4-14c-5.5-7.8-7.8-11-17.6-11.6c-0.3,0-0.6,0-1,0v0.1v34.7v0.1h7.4v-0.1V20.8
		c3,3.1,6,9.3,9.4,14c5.5,7.8,7.8,12.4,17.6,13c0.3,0,0.6,0,1,0v-0.1V13.6v-0.1H229.2z"/>
	<path class="st0" d="M177.6,11.4c-9.7,0-18.5,4.1-18.4,18.2c0.1,12.4,9.3,17.6,18.2,18h0.4c8.9-0.4,18.4-4.6,18.2-18
		C195.9,16.9,187.3,11.4,177.6,11.4 M177.7,41.6h-0.2c-5.4-0.3-10.9-3.7-11-11.9c-0.1-9.4,5.2-12.1,11.1-12.1c0,0,0,0-0.1,0h0.1
		c0,0-0.1,0-0.1,0c5.8,0,11,3.6,11.1,12.1C188.8,38.5,183.1,41.3,177.7,41.6"/>
	<path class="st0" d="M250.9,40.5v-28h4.1V6.3h-4.1V0.5h-6.5v5.9v0.1v34.3v0.1c0,3.6,2.9,6.6,6.6,6.6h0.1h5.5v-6.1h-4.9
		C251.3,41.2,250.9,40.9,250.9,40.5"/>
	<path class="st0" d="M155.7,39.4c-1.7,0.8-5.3,2.2-9.7,2.2c-8.4,0-10.7-6-10.7-12.1c0-9.3,4.6-11.5,10.7-11.8
		c4.3-0.2,8,0.8,9.7,1.5v-6.8c-10.3-2.3-27.5-1.3-27.8,17.2c-0.2,18.7,15.5,19.9,27.8,17V39.4z"/>
	<path class="st0" d="M73.7,13.5h-0.3v0.3v0.1v23.5c-1.7-1.8-3.3-4.6-5-7.4c-1.2-2.1-2.5-4.2-3.9-6.1l-0.1-0.1
		c-5.5-7.8-8.3-11-18.3-11.6c-0.3,0-0.7,0-1,0l-0.3,0v0.3v0.1V47v0.1v0.3h0.3h7.9h0.3v-0.3V47V21.5c1.7,1.8,3.3,4.6,5,7.4
		c1.2,2.1,2.5,4.2,3.9,6.1l0.1,0.1c5.5,7.8,8.3,12.2,18.3,12.8c0.3,0,0.7,0,1,0l0.3,0v-0.3v-0.1V13.9v-0.1v-0.3h-0.3H73.7z"/>
	<path class="st0" d="M116.6,14.4c-4.2-3.1-9.7-3.2-13.5-3.2c-3.2,0-6.7,0.5-9.8,1.3c-4.8,1.3-6.5,1.6-6.5,1.6l-0.2,0v0.2v30.2v21.8
		v0.3h0.3H87c4.2,0,8.1-3.1,8.1-6.8V46.7c3.4,0.8,6.6,1.2,9.6,1.2c6.1,0,10.8-1.1,14-4.3c3.1-3.1,5.1-8.2,5-14.2
		C123.6,22.9,120.9,17.5,116.6,14.4 M115.3,29.4c0,5.4-1.8,11.9-10.5,11.9c-4.4,0-8.2-1.5-9.7-2.2V27.5v-8.2
		c1.6-0.6,4.7-1.5,8.4-1.5c0.4,0,0.8,0,1.2,0C110.2,18.2,115.3,19.8,115.3,29.4"/>
	<path class="st0" d="M38.7,38.9c-0.7,0-1.3-0.7-1.3-1.4l0-16.9c0-2.4,0.1-4.8,0.2-7.1l0,0h-0.5h-4c-1.1,0-2.2-0.1-3.3-0.4
		c-3.6-0.9-7.3-1.4-10.5-1.4c-6.1,0-10.8,1.1-14,4.3C2.3,19,0.2,24.1,0.3,30c0.1,5.2,1.7,9.7,4.6,12.9c4.6,5,10.9,5,16,5
		c2,0,7.5-1.2,9-3.5c0.2,2.2,0.4,2.9,5.2,2.9h5.6v-8.5H38.7z M21.1,41c-7.7,0.5-12.4-2.9-12.4-11c0-5.4,1.8-11.9,10.5-11.9
		c4.3,0,8.5,1.4,10.2,2.2l0,16.3C28.3,38.4,26.3,40.7,21.1,41"/>
	<path class="st0" d="M294.9,24.5l-1.8-0.6l4-10.5h1.8l3.8,10.5l-1.9,0.6l-1-3.1H296L294.9,24.5z M298,15.5L298,15.5l-1.4,4.2h2.6
		L298,15.5z"/>
	<path class="st0" d="M304.2,22.4c0.6,0.4,1.2,0.7,1.9,0.7c0.6,0,1.1-0.3,1.1-0.9c0-1.6-3.6-0.4-3.6-3.5c0-1.6,1.3-2.4,2.8-2.4
		c0.9,0,1.9,0.3,2.6,0.9l-0.8,1.2c-0.4-0.3-1.1-0.6-1.7-0.6c-0.5,0-1.2,0.3-1.2,0.9c0,1.5,3.7,0.6,3.7,3.4c0,1.7-1.4,2.5-2.9,2.5
		c-0.9,0-1.8-0.3-2.6-0.8L304.2,22.4z"/>
	<path class="st0" d="M311,22.4c0.6,0.4,1.2,0.7,1.9,0.7c0.6,0,1.1-0.3,1.1-0.9c0-1.6-3.6-0.4-3.6-3.5c0-1.6,1.3-2.4,2.8-2.4
		c0.9,0,1.9,0.3,2.6,0.9l-0.8,1.2c-0.4-0.3-1.1-0.6-1.7-0.6c-0.5,0-1.2,0.3-1.2,0.9c0,1.5,3.7,0.6,3.7,3.4c0,1.7-1.4,2.5-2.9,2.5
		c-0.9,0-1.8-0.3-2.6-0.8L311,22.4z"/>
	<path class="st0" d="M320.6,16.2c2.4,0,3.7,1.8,3.7,4.2c0,2.2-1.4,4.2-3.7,4.2c-2.5,0-3.7-1.9-3.7-4.2
		C317,18.2,318.4,16.2,320.6,16.2 M320.6,23c1.3,0,1.8-1.5,1.8-2.6c0-1.6-0.6-2.7-1.8-2.7c-1.4,0-1.8,1.6-1.8,2.7
		C318.8,21.3,319.3,23,320.6,23"/>
	<path class="st0" d="M331.6,23c-0.7,0.9-1.6,1.5-2.9,1.5c-2.2,0-3.3-2.1-3.3-4c0-2.2,1.3-4.3,3.6-4.3c1.1,0,2,0.5,2.7,1.3l-1.1,1
		c-0.5-0.4-0.9-0.8-1.6-0.8c-1.2,0-1.7,1.3-1.7,2.5c0,1.7,0.7,2.6,1.6,2.6c0.7,0,1.1-0.4,1.6-0.9L331.6,23z"/>
	<path class="st0" d="M332.8,16.4h1.9l-0.1,7.9h-1.9L332.8,16.4z M332.9,13.4h1.9l0,1.8h-1.9L332.9,13.4z"/>
	<path class="st0" d="M336.7,17.8c1.7-1.4,2.5-1.6,3.3-1.6c1.1,0,2.2,0.7,2.2,2.3c0,0.3,0,0.5,0,0.7l-0.1,2.3c0,0.4,0,0.7,0,1
		c0,0.4,0.2,0.8,0.4,0.8c0.1,0,0.2,0,0.5-0.2l0.4,1c-0.8,0.5-1.2,0.6-1.6,0.6c-0.7,0-1.2-0.4-1.3-1c-0.5,0.7-1.2,1-2,1
		c-1.4,0-2.3-0.9-2.3-2.3c0-1.3,0.8-2.4,4.1-2.9v-0.5c0-0.9-0.4-1-0.9-1c-0.4,0-0.8,0.2-2,1.1L336.7,17.8z M340.4,20.5
		c-1.8,0.4-2.3,0.8-2.3,1.6c0,0.6,0.4,0.9,1,0.9c0.4,0,0.9-0.3,1.3-0.7L340.4,20.5z"/>
	<path class="st0" d="M347,25.2c0.1,0,0.2-0.1,0.3-0.1c0.7,0,1.4,0.4,1.4,1.2c0,1-0.9,1.5-1.8,1.5c-0.5,0-1.1-0.2-1.6-0.4l0.3-0.6
		c0.3,0.1,0.6,0.3,1,0.3c0.4,0,0.9-0.1,0.9-0.7c0-0.4-0.4-0.6-0.7-0.6c-0.2,0-0.4,0-0.5,0.1l-0.3-0.3l0.8-1.2
		c-1.7-0.4-2.6-2.3-2.6-4c0-2.2,1.3-4.3,3.6-4.3c1.1,0,2,0.5,2.7,1.3l-1,1c-0.5-0.4-0.9-0.7-1.6-0.7c-1.2,0-1.7,1.3-1.7,2.5
		c0,1.7,0.7,2.6,1.6,2.6c0.7,0,1.1-0.4,1.6-0.9l1,1c-0.7,0.9-1.6,1.5-2.9,1.5L347,25.2L347,25.2z"/>
	<path class="st0" d="M351.6,17.8c1.7-1.4,2.5-1.6,3.3-1.6c1.1,0,2.2,0.7,2.2,2.3c0,0.3,0,0.5,0,0.7l-0.1,2.3c0,0.4,0,0.7,0,1
		c0,0.4,0.2,0.8,0.4,0.8c0.1,0,0.2,0,0.5-0.2l0.4,1c-0.8,0.5-1.2,0.6-1.6,0.6c-0.7,0-1.2-0.4-1.3-1c-0.5,0.7-1.2,1-2,1
		c-1.4,0-2.3-0.9-2.3-2.3c0-1.3,0.8-2.4,4.1-2.9v-0.5c0-0.9-0.4-1-0.9-1c-0.4,0-0.8,0.2-2,1.1L351.6,17.8z M351.9,15.2
		c0.2-1,0.6-1.8,1.7-1.8c0.3,0,0.7,0.2,1.1,0.3c0.4,0.1,0.8,0.3,1.1,0.3c0.4,0,0.6-0.4,0.7-0.7h0.8c-0.2,1-0.6,1.8-1.7,1.8
		c-0.3,0-0.7-0.2-1.1-0.3c-0.4-0.1-0.8-0.3-1.1-0.3c-0.4,0-0.6,0.4-0.7,0.7H351.9z M355.3,20.5c-1.8,0.4-2.3,0.8-2.3,1.6
		c0,0.6,0.4,0.9,1,0.9c0.4,0,0.9-0.3,1.3-0.7L355.3,20.5z"/>
	<path class="st0" d="M362.6,16.2c2.4,0,3.7,1.8,3.7,4.2c0,2.2-1.4,4.2-3.7,4.2c-2.5,0-3.7-1.9-3.7-4.2
		C358.9,18.2,360.3,16.2,362.6,16.2 M362.6,23c1.3,0,1.8-1.5,1.8-2.6c0-1.6-0.6-2.7-1.8-2.7c-1.4,0-1.8,1.6-1.8,2.7
		C360.8,21.3,361.2,23,362.6,23"/>
	<polygon class="st0" points="371.8,13.8 373.6,13.2 378.5,21.5 378.5,21.5 378.4,13.4 380.4,13.4 380.3,23.9 378.3,24.5 
		373.5,16.2 373.5,16.3 373.6,24.3 371.7,24.3 	"/>
	<path class="st0" d="M382.3,17.8c1.7-1.4,2.5-1.6,3.3-1.6c1.1,0,2.2,0.7,2.2,2.3c0,0.3,0,0.5,0,0.7l-0.1,2.3c0,0.4,0,0.7,0,1
		c0,0.4,0.2,0.8,0.4,0.8c0.1,0,0.2,0,0.5-0.2l0.4,1c-0.8,0.5-1.2,0.6-1.6,0.6c-0.7,0-1.2-0.4-1.3-1c-0.5,0.7-1.2,1-2,1
		c-1.4,0-2.3-0.9-2.3-2.3c0-1.3,0.8-2.4,4.1-2.9v-0.5c0-0.9-0.4-1-0.9-1c-0.4,0-0.8,0.2-2,1.1L382.3,17.8z M386.1,20.5
		c-1.8,0.4-2.3,0.8-2.3,1.6c0,0.6,0.4,0.9,1,0.9c0.4,0,0.9-0.3,1.3-0.7L386.1,20.5z"/>
	<path class="st0" d="M395.9,23c-0.7,0.9-1.6,1.5-2.9,1.5c-2.2,0-3.3-2.1-3.3-4c0-2.2,1.3-4.3,3.6-4.3c1.1,0,2,0.5,2.7,1.3l-1,1
		c-0.5-0.4-0.9-0.8-1.6-0.8c-1.2,0-1.7,1.3-1.7,2.5c0,1.7,0.7,2.6,1.6,2.6c0.7,0,1.1-0.4,1.6-0.9L395.9,23z"/>
	<path class="st0" d="M397.1,16.4h1.9l-0.1,7.9H397L397.1,16.4z M397.1,13.4h1.9l0,1.8h-1.9L397.1,13.4z"/>
	<path class="st0" d="M404.3,16.2c2.4,0,3.7,1.8,3.7,4.2c0,2.2-1.4,4.2-3.7,4.2c-2.5,0-3.7-1.9-3.7-4.2
		C400.7,18.2,402.1,16.2,404.3,16.2 M404.3,23c1.3,0,1.8-1.5,1.8-2.6c0-1.6-0.6-2.7-1.8-2.7c-1.4,0-1.8,1.6-1.8,2.7
		C402.5,21.3,403,23,404.3,23"/>
	<path class="st0" d="M409.7,16.4h1.8v1h0c0.6-0.7,1.5-1.2,2.5-1.2c1.6,0,2,1.2,2,2.4c0,0.8,0,1.3,0,1.8l0,4h-1.9l0-2
		c0-1.2,0-2.2,0-3.1c0-1-0.2-1.3-1-1.3c-0.6,0-1.2,0.6-1.7,1l0,5.4h-1.9L409.7,16.4z"/>
	<path class="st0" d="M417.9,17.8c1.7-1.4,2.5-1.6,3.3-1.6c1.1,0,2.2,0.7,2.2,2.3c0,0.3,0,0.5,0,0.7l-0.1,2.3c0,0.4,0,0.7,0,1
		c0,0.4,0.2,0.8,0.4,0.8c0.1,0,0.2,0,0.5-0.2l0.4,1c-0.8,0.5-1.2,0.6-1.6,0.6c-0.7,0-1.2-0.4-1.3-1c-0.5,0.7-1.2,1-2,1
		c-1.4,0-2.3-0.9-2.3-2.3c0-1.3,0.8-2.4,4.1-2.9v-0.5c0-0.9-0.4-1-0.9-1c-0.4,0-0.8,0.2-2,1.1L417.9,17.8z M421.6,20.5
		c-1.8,0.4-2.3,0.8-2.3,1.6c0,0.6,0.4,0.9,1,0.9c0.4,0,0.9-0.3,1.3-0.7L421.6,20.5z"/>
	<polygon class="st0" points="425.9,12.5 427.7,12.5 427.6,24.3 425.8,24.3 	"/>
	<path class="st0" d="M438.8,23.4L438.8,23.4c-0.4,0.6-1.2,1-1.9,1c-1.9,0-3.2-1.7-3.2-4c0-2.1,1.2-4.2,3.3-4.2
		c0.6,0,1.3,0.2,1.7,0.8h0l0-4.4h1.9l0,11.7h-1.8V23.4z M438.7,18.5c-0.2-0.3-0.7-0.7-1.3-0.7c-1,0-1.9,1-1.9,2.5
		c0,1.5,0.8,2.5,1.8,2.5c0.6,0,1.2-0.6,1.3-1.2V18.5z"/>
	<path class="st0" d="M444,20.6c0,1.1,0.5,2.4,1.8,2.4c0.7,0,1.3-0.5,1.8-1l1.1,1c-0.8,0.9-1.9,1.5-3.1,1.5c-1.9,0-3.3-1.7-3.3-4.1
		c0-2.1,1.3-4.2,3.5-4.2c2.2,0,3.2,1.6,3.2,4.4H444z M447,19.2c0-0.8-0.4-1.7-1.4-1.7c-0.8,0-1.5,0.9-1.6,1.7H447z"/>
	<path class="st0" d="M454.7,13.4h3c2.8,0,3.9,1.3,3.9,3.3c0,2.2-1.8,3.3-3.8,3.3h-1.1l0,4.2h-2L454.7,13.4z M457.6,18.4
		c1,0,1.9-0.7,1.9-1.7c0-0.7-0.4-1.7-1.8-1.7h-1l0,3.3H457.6z"/>
	<path class="st0" d="M462.9,16.4h1.9v1.4l0,0c0.4-0.9,0.8-1.7,1.8-1.7c0.2,0,0.4,0,0.5,0.1l-0.3,1.8c-0.2,0-0.3-0.1-0.4-0.1
		c-0.7,0-1.2,0.5-1.6,1.4l0,4.9h-1.9L462.9,16.4z"/>
	<path class="st0" d="M471.2,16.2c2.4,0,3.7,1.8,3.7,4.2c0,2.2-1.4,4.2-3.7,4.2c-2.5,0-3.7-1.9-3.7-4.2
		C467.5,18.2,468.9,16.2,471.2,16.2 M471.2,23c1.3,0,1.8-1.5,1.8-2.6c0-1.6-0.6-2.7-1.8-2.7c-1.4,0-1.8,1.6-1.8,2.7
		C469.4,21.3,469.8,23,471.2,23"/>
	<path class="st0" d="M482.2,17.6c0.3,0.3,0.4,0.8,0.4,1.2c0,1.6-1.4,2.6-2.8,2.6c-0.6,0-1.1-0.1-1.4-0.2c-0.3,0.2-0.7,0.4-0.7,0.7
		c0,0.3,0.5,0.4,2.2,0.6c1.7,0.2,3.5,0.4,3.5,2.3c0,2.2-2.3,3.2-4.2,3.2c-2.4,0-3.5-1.2-3.5-2.3c0-1.1,0.8-1.6,1.6-2.1v0
		c-0.7-0.2-1.6-0.3-1.6-1.1c0-0.7,0.5-1,1.8-1.9c-0.7-0.4-1.1-1.1-1.1-1.8c0-1.7,1.4-2.7,3-2.7c0.9,0,1.2,0.2,1.7,0.3l2.5,0v1.2
		L482.2,17.6z M479.5,26.8c1.3,0,2.3-0.8,2.3-1.7c0-0.8-0.3-0.9-3-1.3c-0.6,0.4-1.3,0.8-1.3,1.5C477.4,26.5,478.7,26.8,479.5,26.8
		 M478.4,18.8c0,0.7,0.4,1.3,1.3,1.3c0.8,0,1.2-0.6,1.2-1.4c0-0.8-0.5-1.4-1.2-1.4C478.9,17.4,478.4,18,478.4,18.8"/>
	<path class="st0" d="M485.7,16.4h1.9v1.4l0,0c0.4-0.9,0.8-1.7,1.8-1.7c0.2,0,0.4,0,0.5,0.1l-0.3,1.8c-0.2,0-0.3-0.1-0.4-0.1
		c-0.7,0-1.2,0.5-1.6,1.4l0,4.9h-1.9L485.7,16.4z"/>
	<path class="st0" d="M491.2,17.8c1.7-1.4,2.5-1.6,3.3-1.6c1.1,0,2.2,0.7,2.2,2.3c0,0.3,0,0.5,0,0.7l-0.1,2.3c0,0.4,0,0.7,0,1
		c0,0.4,0.2,0.8,0.4,0.8c0.1,0,0.2,0,0.5-0.2l0.4,1c-0.8,0.5-1.2,0.6-1.6,0.6c-0.7,0-1.2-0.4-1.3-1c-0.5,0.7-1.2,1-2,1
		c-1.4,0-2.3-0.9-2.3-2.3c0-1.3,0.8-2.4,4.1-2.9v-0.5c0-0.9-0.4-1-0.9-1c-0.4,0-0.8,0.2-2,1.1L491.2,17.8z M495,20.5
		c-1.8,0.4-2.3,0.8-2.3,1.6c0,0.6,0.4,0.9,1,0.9c0.4,0,0.9-0.3,1.3-0.7L495,20.5z"/>
	<path class="st0" d="M499.3,16.4h1.8v1l0,0c0.5-0.7,1.3-1.3,2.3-1.3c0.9,0,1.6,0.4,1.9,1.3c0.6-0.8,1.5-1.3,2.5-1.3
		c1.7,0,2.1,1.3,2.1,2.3c0,1.9,0,3.9,0,5.8H508l0-3.1c0-0.8,0-1.9,0-2.3c0-0.6-0.4-1-0.9-1c-0.5,0-1.3,0.6-1.6,1l-0.1,5.3h-1.8
		l0-3.1c0-0.8,0-1.9,0-2.3c0-0.6-0.3-1-0.9-1c-0.5,0-1.3,0.6-1.6,1l-0.1,5.3h-1.8L499.3,16.4z"/>
	<path class="st0" d="M511.8,17.8c1.7-1.4,2.5-1.6,3.3-1.6c1.1,0,2.2,0.7,2.2,2.3c0,0.3,0,0.5,0,0.7l-0.1,2.3c0,0.4,0,0.7,0,1
		c0,0.4,0.2,0.8,0.4,0.8c0.1,0,0.2,0,0.5-0.2l0.4,1c-0.8,0.5-1.2,0.6-1.6,0.6c-0.7,0-1.2-0.4-1.3-1c-0.5,0.7-1.2,1-2,1
		c-1.4,0-2.3-0.9-2.3-2.3c0-1.3,0.8-2.4,4.1-2.9v-0.5c0-0.9-0.4-1-0.9-1c-0.4,0-0.8,0.2-2,1.1L511.8,17.8z M515.5,20.5
		c-1.8,0.4-2.3,0.8-2.3,1.6c0,0.6,0.4,0.9,1,0.9c0.4,0,0.9-0.3,1.3-0.7L515.5,20.5z"/>
	<path class="st0" d="M519.8,22.4c0.6,0.4,1.2,0.7,1.9,0.7c0.6,0,1.1-0.3,1.1-0.9c0-1.6-3.6-0.4-3.6-3.5c0-1.6,1.3-2.4,2.8-2.4
		c0.9,0,1.9,0.3,2.6,0.9l-0.8,1.2c-0.4-0.3-1.1-0.6-1.7-0.6c-0.5,0-1.2,0.3-1.2,0.9c0,1.5,3.7,0.6,3.7,3.4c0,1.7-1.4,2.5-2.9,2.5
		c-0.9,0-1.8-0.3-2.6-0.8L519.8,22.4z"/>
	<path class="st0" d="M534.1,23.4L534.1,23.4c-0.4,0.6-1.2,1-1.9,1c-1.9,0-3.2-1.7-3.2-4c0-2.1,1.2-4.2,3.3-4.2
		c0.6,0,1.3,0.2,1.7,0.8h0l0-4.4h1.9l0,11.7h-1.8V23.4z M534,18.5c-0.2-0.3-0.7-0.7-1.3-0.7c-1,0-1.9,1-1.9,2.5
		c0,1.5,0.8,2.5,1.8,2.5c0.6,0,1.2-0.6,1.3-1.2V18.5z"/>
	<path class="st0" d="M539.3,20.6c0,1.1,0.5,2.4,1.8,2.4c0.7,0,1.3-0.5,1.8-1l1.1,1c-0.8,0.9-1.9,1.5-3.1,1.5
		c-1.9,0-3.3-1.7-3.3-4.1c0-2.1,1.3-4.2,3.5-4.2c2.2,0,3.2,1.6,3.2,4.4H539.3z M542.3,19.2c0-0.8-0.4-1.7-1.4-1.7
		c-0.8,0-1.5,0.9-1.6,1.7H542.3z"/>
	<path class="st0" d="M292.8,32.2h3c2.8,0,3.8,1.3,3.8,3.3c0,2.2-1.8,3.3-3.8,3.3h-1.1l0,4.2h-2L292.8,32.2z M295.7,37.2
		c1.1,0,1.9-0.7,1.9-1.7c0-0.7-0.4-1.7-1.8-1.7h-1l0,3.3H295.7z"/>
	<path class="st0" d="M303.5,34.9c2.4,0,3.7,1.8,3.7,4.2c0,2.2-1.4,4.2-3.7,4.2c-2.5,0-3.7-1.9-3.7-4.2
		C299.8,37,301.2,34.9,303.5,34.9 M303.5,41.7c1.3,0,1.8-1.5,1.8-2.6c0-1.6-0.6-2.7-1.8-2.7c-1.4,0-1.8,1.6-1.8,2.7
		C301.7,40.1,302.1,41.7,303.5,41.7 M303.7,31.9h2.1l-2.1,2.2h-1.3L303.7,31.9z"/>
	<path class="st0" d="M309,41.2c0.6,0.4,1.2,0.7,1.9,0.7c0.6,0,1.1-0.3,1.1-0.9c0-1.6-3.6-0.4-3.6-3.5c0-1.6,1.3-2.4,2.8-2.4
		c0.9,0,1.9,0.3,2.6,0.9l-0.8,1.2c-0.4-0.3-1.1-0.6-1.7-0.6c-0.5,0-1.2,0.3-1.2,0.9c0,1.5,3.7,0.6,3.7,3.4c0,1.7-1.4,2.5-2.9,2.5
		c-0.9,0-1.8-0.3-2.6-0.8L309,41.2z"/>
	<rect x="315.4" y="38.2" class="st0" width="4" height="1.7"/>
	<path class="st0" d="M328.4,37.6h2l-0.1,4.9c-1.2,0.5-2.4,0.8-3.5,0.8c-3.2,0-5.6-2.3-5.6-5.6c0-3.2,2.5-5.6,5.6-5.6
		c1.4,0,2.5,0.3,3.4,0.8l-0.7,1.5c-0.8-0.4-1.6-0.7-2.7-0.7c-1.8,0-3.6,1.5-3.6,4c0,2.4,1.4,4,3.6,4c0.6,0,1.1-0.1,1.5-0.3
		L328.4,37.6z"/>
	<path class="st0" d="M332.4,35.2h1.9v1.4l0,0c0.4-0.9,0.8-1.7,1.8-1.7c0.2,0,0.4,0,0.5,0.1l-0.3,1.8c-0.2,0-0.3-0.1-0.4-0.1
		c-0.7,0-1.2,0.5-1.6,1.4l0,4.9h-1.9L332.4,35.2z"/>
	<path class="st0" d="M337.3,36.5c1.7-1.4,2.5-1.6,3.3-1.6c1.1,0,2.2,0.7,2.2,2.3c0,0.3,0,0.5,0,0.7l-0.1,2.3c0,0.4,0,0.7,0,1
		c0,0.4,0.2,0.7,0.4,0.7c0.1,0,0.2,0,0.5-0.2l0.4,1c-0.8,0.5-1.2,0.6-1.6,0.6c-0.7,0-1.2-0.4-1.3-1c-0.5,0.7-1.2,1-2,1
		c-1.4,0-2.3-0.9-2.3-2.3c0-1.3,0.8-2.4,4.1-2.9v-0.5c0-0.9-0.4-1-0.9-1c-0.4,0-0.8,0.2-2,1.1L337.3,36.5z M341,39.3
		c-1.8,0.4-2.3,0.8-2.3,1.6c0,0.6,0.4,0.9,1,0.9c0.4,0,0.9-0.2,1.3-0.7L341,39.3z"/>
	<path class="st0" d="M349.7,42.2L349.7,42.2c-0.4,0.6-1.2,1-1.9,1c-1.9,0-3.2-1.7-3.2-4c0-2.1,1.2-4.2,3.3-4.2
		c0.6,0,1.3,0.2,1.7,0.7h0l0-4.4h1.9l0,11.7h-1.8V42.2z M349.6,37.3c-0.2-0.3-0.7-0.7-1.3-0.7c-1,0-1.9,1-1.9,2.5
		c0,1.5,0.8,2.5,1.8,2.5c0.6,0,1.2-0.6,1.3-1.2V37.3z"/>
	<path class="st0" d="M359.9,43h-1.9v-1h0c-0.6,0.7-1.4,1.2-2.4,1.2c-1.7,0-2.1-1.1-2.1-2.7c0-0.5,0-1,0-1.5l0-4h1.9l0,2
		c0,1.1,0,2.3,0,3.1c0,0.9,0.2,1.3,1,1.3c0.6,0,1.2-0.6,1.7-1l0-5.4h1.9L359.9,43z"/>
	<path class="st0" d="M361.8,36.5c1.7-1.4,2.5-1.6,3.3-1.6c1.1,0,2.2,0.7,2.2,2.3c0,0.3,0,0.5,0,0.7l-0.1,2.3c0,0.4,0,0.7,0,1
		c0,0.4,0.2,0.7,0.4,0.7c0.1,0,0.2,0,0.5-0.2l0.4,1c-0.8,0.5-1.2,0.6-1.6,0.6c-0.7,0-1.2-0.4-1.3-1c-0.5,0.7-1.2,1-2,1
		c-1.4,0-2.3-0.9-2.3-2.3c0-1.3,0.8-2.4,4.1-2.9v-0.5c0-0.9-0.4-1-0.9-1c-0.4,0-0.8,0.2-2,1.1L361.8,36.5z M365.5,39.3
		c-1.8,0.4-2.3,0.8-2.3,1.6c0,0.6,0.4,0.9,1,0.9c0.4,0,0.9-0.2,1.3-0.7L365.5,39.3z"/>
	<path class="st0" d="M372.1,44c0.1,0,0.2-0.1,0.3-0.1c0.7,0,1.4,0.4,1.4,1.2c0,1-0.9,1.5-1.8,1.5c-0.5,0-1.1-0.2-1.6-0.4l0.3-0.6
		c0.3,0.1,0.6,0.3,1,0.3c0.4,0,0.9-0.1,0.9-0.7c0-0.4-0.4-0.6-0.7-0.6c-0.2,0-0.4,0-0.5,0.1l-0.3-0.3l0.8-1.2
		c-1.7-0.4-2.6-2.3-2.6-4c0-2.2,1.3-4.3,3.6-4.3c1.1,0,2,0.5,2.7,1.3l-1.1,1c-0.5-0.4-0.9-0.7-1.6-0.7c-1.2,0-1.7,1.3-1.7,2.5
		c0,1.7,0.7,2.6,1.6,2.6c0.7,0,1.1-0.4,1.6-0.9l1,1c-0.7,0.9-1.6,1.5-2.9,1.5L372.1,44L372.1,44z"/>
	<path class="st0" d="M376.2,36.5c1.7-1.4,2.5-1.6,3.3-1.6c1.1,0,2.2,0.7,2.2,2.3c0,0.3,0,0.5,0,0.7l-0.1,2.3c0,0.4,0,0.7,0,1
		c0,0.4,0.2,0.7,0.4,0.7c0.1,0,0.2,0,0.5-0.2l0.4,1c-0.8,0.5-1.2,0.6-1.6,0.6c-0.7,0-1.2-0.4-1.3-1c-0.5,0.7-1.2,1-2,1
		c-1.4,0-2.3-0.9-2.3-2.3c0-1.3,0.8-2.4,4.1-2.9v-0.5c0-0.9-0.4-1-0.9-1c-0.4,0-0.8,0.2-2,1.1L376.2,36.5z M376.5,34
		c0.2-1,0.6-1.8,1.7-1.8c0.3,0,0.7,0.2,1.1,0.3c0.4,0.1,0.8,0.3,1,0.3c0.4,0,0.6-0.4,0.7-0.7h0.8c-0.2,1-0.6,1.8-1.7,1.8
		c-0.3,0-0.7-0.2-1.1-0.3c-0.4-0.1-0.8-0.3-1-0.3c-0.4,0-0.6,0.4-0.7,0.7H376.5z M379.9,39.3c-1.8,0.4-2.3,0.8-2.3,1.6
		c0,0.6,0.4,0.9,1,0.9c0.4,0,0.9-0.2,1.3-0.7L379.9,39.3z"/>
	<path class="st0" d="M387.2,34.9c2.4,0,3.7,1.8,3.7,4.2c0,2.2-1.4,4.2-3.7,4.2c-2.5,0-3.7-1.9-3.7-4.2
		C383.5,37,384.9,34.9,387.2,34.9 M387.2,41.7c1.3,0,1.8-1.5,1.8-2.6c0-1.6-0.6-2.7-1.8-2.7c-1.4,0-1.8,1.6-1.8,2.7
		C385.4,40.1,385.8,41.7,387.2,41.7"/>
	<path class="st0" d="M399.2,39.3c0,1.1,0.5,2.4,1.8,2.4c0.7,0,1.3-0.5,1.8-1l1.1,1c-0.8,0.9-1.9,1.5-3.1,1.5
		c-1.9,0-3.3-1.7-3.3-4.1c0-2.1,1.3-4.2,3.5-4.2c2.2,0,3.2,1.6,3.2,4.4H399.2z M402.3,38c0-0.8-0.4-1.7-1.4-1.7
		c-0.8,0-1.5,0.9-1.6,1.7H402.3z"/>
	<path class="st0" d="M405.5,35.2h1.8v1l0,0c0.5-0.8,1.3-1.3,2.3-1.3c0.9,0,1.6,0.4,1.9,1.3c0.6-0.8,1.5-1.3,2.5-1.3
		c1.7,0,2.1,1.3,2.1,2.3c0,1.9,0,3.9,0,5.8h-1.9l0-3.1c0-0.8,0-1.9,0-2.3c0-0.6-0.4-1-0.9-1c-0.5,0-1.3,0.6-1.6,1l-0.1,5.3h-1.8
		l0-3.1c0-0.8,0-1.9,0-2.3c0-0.6-0.3-1-0.9-1c-0.5,0-1.3,0.6-1.6,1l-0.1,5.3h-1.8L405.5,35.2z"/>
	<path class="st0" d="M431.4,42.2c-1,0.7-2.2,1-3.3,1c-3.1,0-5.5-2.4-5.5-5.6c0-3.3,2.3-5.7,5.4-5.7c1.2,0,2.5,0.4,3.4,1.3l-0.9,1.4
		c-0.6-0.6-1.7-0.9-2.5-0.9c-2.1,0-3.4,1.7-3.4,3.8c0,2.1,1.4,4,3.3,4c1.3,0,2-0.3,2.6-0.7L431.4,42.2z"/>
	<path class="st0" d="M432.9,35.2h1.9l-0.1,7.9h-1.9L432.9,35.2z M432.9,32.2h1.9l0,1.8h-1.9L432.9,32.2z"/>
	<path class="st0" d="M438.3,39.3c0,1.1,0.5,2.4,1.8,2.4c0.7,0,1.3-0.5,1.8-1l1.1,1c-0.8,0.9-1.9,1.5-3.1,1.5
		c-1.9,0-3.3-1.7-3.3-4.1c0-2.1,1.3-4.2,3.5-4.2c2.2,0,3.2,1.6,3.2,4.4H438.3z M438.9,31.9h1.7l1.7,2.3h-1.4l-1.1-1.4l-1.1,1.4h-1.4
		L438.9,31.9z M441.4,38c0-0.8-0.4-1.7-1.4-1.7c-0.8,0-1.5,0.9-1.6,1.7H441.4z"/>
	<path class="st0" d="M444.6,35.2h1.8v1h0c0.6-0.7,1.5-1.2,2.5-1.2c1.6,0,2,1.2,2,2.4c0,0.8,0,1.3,0,1.8l0,4h-1.9l0-2
		c0-1.2,0-2.2,0-3.1c0-1-0.2-1.3-1-1.3c-0.6,0-1.2,0.6-1.7,1l0,5.4h-1.9L444.6,35.2z"/>
	<path class="st0" d="M458.7,41.8c-0.7,0.9-1.6,1.5-2.9,1.5c-2.2,0-3.3-2.1-3.3-4c0-2.2,1.3-4.3,3.6-4.3c1.1,0,2,0.5,2.7,1.3l-1,1
		c-0.5-0.4-0.9-0.7-1.6-0.7c-1.2,0-1.7,1.3-1.7,2.5c0,1.7,0.7,2.6,1.6,2.6c0.7,0,1.1-0.4,1.6-0.9L458.7,41.8z"/>
	<path class="st0" d="M460,35.2h1.9l-0.1,7.9h-1.9L460,35.2z M460,32.2h1.9l0,1.8H460L460,32.2z"/>
	<path class="st0" d="M463.8,36.5c1.7-1.4,2.5-1.6,3.3-1.6c1.1,0,2.2,0.7,2.2,2.3c0,0.3,0,0.5,0,0.7l-0.1,2.3c0,0.4,0,0.7,0,1
		c0,0.4,0.2,0.7,0.4,0.7c0.1,0,0.2,0,0.5-0.2l0.4,1c-0.8,0.5-1.2,0.6-1.6,0.6c-0.7,0-1.2-0.4-1.3-1c-0.5,0.7-1.2,1-2,1
		c-1.4,0-2.3-0.9-2.3-2.3c0-1.3,0.8-2.4,4.1-2.9v-0.5c0-0.9-0.4-1-0.9-1c-0.4,0-0.8,0.2-2,1.1L463.8,36.5z M467.5,39.3
		c-1.8,0.4-2.3,0.8-2.3,1.6c0,0.6,0.4,0.9,1,0.9c0.4,0,0.9-0.2,1.3-0.7L467.5,39.3z"/>
	<path class="st0" d="M471.9,41.2c0.6,0.4,1.2,0.7,1.9,0.7c0.6,0,1.1-0.3,1.1-0.9c0-1.6-3.6-0.4-3.6-3.5c0-1.6,1.3-2.4,2.8-2.4
		c0.9,0,1.9,0.3,2.6,0.9l-0.8,1.2c-0.4-0.3-1.1-0.6-1.7-0.6c-0.5,0-1.2,0.3-1.2,0.9c0,1.5,3.7,0.6,3.7,3.4c0,1.7-1.4,2.5-2.9,2.5
		c-0.9,0-1.8-0.3-2.6-0.8L471.9,41.2z"/>
	<path class="st0" d="M492.1,42.2c-1,0.7-2.2,1-3.3,1c-3.1,0-5.5-2.4-5.5-5.6c0-3.3,2.3-5.7,5.4-5.7c1.2,0,2.5,0.4,3.4,1.3l-0.9,1.4
		c-0.6-0.6-1.7-0.9-2.5-0.9c-2.1,0-3.4,1.7-3.4,3.8c0,2.1,1.4,4,3.3,4c1.3,0,2-0.3,2.6-0.7L492.1,42.2z"/>
	<path class="st0" d="M496.5,34.9c2.4,0,3.7,1.8,3.7,4.2c0,2.2-1.4,4.2-3.7,4.2c-2.5,0-3.7-1.9-3.7-4.2
		C492.9,37,494.3,34.9,496.5,34.9 M496.5,41.7c1.3,0,1.8-1.5,1.8-2.6c0-1.6-0.6-2.7-1.8-2.7c-1.4,0-1.8,1.6-1.8,2.7
		C494.7,40.1,495.2,41.7,496.5,41.7"/>
	<path class="st0" d="M501.8,35.2h1.8v1h0c0.6-0.7,1.5-1.2,2.5-1.2c1.6,0,2,1.2,2,2.4c0,0.8,0,1.3,0,1.8l0,4h-1.9l0-2
		c0-1.2,0-2.2,0-3.1c0-1-0.2-1.3-1-1.3c-0.6,0-1.2,0.6-1.7,1l0,5.4h-1.9L501.8,35.2z"/>
	<path class="st0" d="M514.4,42.6l-0.6,0.3c-0.5,0.3-0.9,0.3-1.2,0.3c-1.3,0-2.1-0.7-2.1-2.4c0-0.4,0-1.2,0-1.9l0-2.4h-1v-1.4l1,0
		l0.1-2.8h1.9l-0.1,2.8l1.7,0v1.4h-1.7l0,2.3c0,0.8,0,1.5,0,2.1c0,0.5,0.2,0.8,0.6,0.8c0.3,0,0.6-0.2,0.9-0.4L514.4,42.6z"/>
	<path class="st0" d="M515.4,36.5c1.7-1.4,2.5-1.6,3.3-1.6c1.1,0,2.2,0.7,2.2,2.3c0,0.3,0,0.5,0,0.7l-0.1,2.3c0,0.4,0,0.7,0,1
		c0,0.4,0.2,0.8,0.4,0.8c0.1,0,0.2,0,0.5-0.2l0.4,1c-0.8,0.5-1.2,0.6-1.6,0.6c-0.7,0-1.2-0.4-1.3-1c-0.5,0.7-1.2,1-2,1
		c-1.4,0-2.3-0.9-2.3-2.3c0-1.3,0.8-2.4,4.1-2.9v-0.5c0-0.9-0.4-1-0.9-1c-0.4,0-0.8,0.2-2,1.1L515.4,36.5z M519.1,39.3
		c-1.8,0.4-2.3,0.8-2.3,1.6c0,0.6,0.4,0.9,1,0.9c0.4,0,0.9-0.3,1.3-0.7L519.1,39.3z M518.5,31.9h2.1l-2.1,2.2h-1.3L518.5,31.9z"/>
	<path class="st0" d="M523.3,31.3h1.9l-0.1,4.8l0,0c0.3-0.8,1-1.2,2-1.2c1.9,0,3.1,1.8,3.1,3.9c0,2-1.2,4.4-3.4,4.4
		c-0.7,0-1.4-0.2-1.8-0.9h0V43h-1.8L523.3,31.3z M525,41c0.2,0.3,0.7,0.6,1.2,0.6c1.4,0,2-1.3,2-2.6c0-1.2-0.5-2.5-1.7-2.5
		c-0.7,0-1.1,0.4-1.5,1L525,41z"/>
	<path class="st0" d="M533.1,39.3c0,1.1,0.5,2.4,1.8,2.4c0.7,0,1.3-0.5,1.8-1l1.1,1c-0.8,0.9-1.9,1.5-3.1,1.5
		c-1.9,0-3.3-1.7-3.3-4.1c0-2.1,1.3-4.2,3.5-4.2c2.2,0,3.2,1.6,3.2,4.4H533.1z M536.2,38c0-0.8-0.4-1.7-1.4-1.7
		c-0.8,0-1.5,0.9-1.6,1.7H536.2z"/>
	<path class="st0" d="M539.6,35.2h1.9l-0.1,7.9h-1.9L539.6,35.2z M539.6,32.2h1.9l0,1.8h-1.9L539.6,32.2z"/>
	<path class="st0" d="M543.9,41.2c0.6,0.4,1.2,0.7,1.9,0.7c0.6,0,1.1-0.3,1.1-0.9c0-1.6-3.6-0.4-3.6-3.5c0-1.6,1.3-2.4,2.8-2.4
		c0.9,0,1.9,0.3,2.6,0.9l-0.8,1.2c-0.4-0.3-1.1-0.6-1.7-0.6c-0.5,0-1.2,0.3-1.2,0.9c0,1.5,3.7,0.6,3.7,3.4c0,1.7-1.4,2.5-2.9,2.5
		c-0.9,0-1.8-0.3-2.6-0.8L543.9,41.2z"/>
	<rect x="273.6" y="11.1" class="st0" width="2.5" height="32.1"/>
</g>
</svg>
