<?xml version="1.0" encoding="utf-8"?>
<!-- Generator: Adobe Illustrator 19.1.1, SVG Export Plug-In . SVG Version: 6.00 Build 0)  -->
<svg version="1.1" id="Layer_1" xmlns="http://www.w3.org/2000/svg" xmlns:xlink="http://www.w3.org/1999/xlink" x="0px" y="0px"
	 width="302px" height="125px" viewBox="-328 218 302 125" style="enable-background:new -328 218 302 125;" xml:space="preserve">
<style type="text/css">
	.st0{fill:#E5DAD1;}
</style>
<g>
	<path class="st0" d="M-58.4,233.6v0.1v28.8c-3.6-3.6-7-10.9-11.1-16.5c-6.5-9.2-9.1-12.9-20.7-13.6c-0.4,0-0.8,0-1.1-0.1v0.2v40.9
		v0.1h8.7v-0.1v-31.1c3.6,3.6,7,10.9,11.1,16.5c6.5,9.2,9.1,14.6,20.7,15.3c0.4,0,0.8,0,1.1,0.1V274v-40.3v-0.1H-58.4z"/>
	<path class="st0" d="M-119.2,231.2c-11.4-0.1-21.8,4.8-21.6,21.4c0.1,14.5,10.9,20.7,21.5,21.2h0.4c10.5-0.5,21.6-5.4,21.5-21.2
		C-97.6,237.6-107.7,231.1-119.2,231.2 M-119,266.6h-0.3c-6.3-0.3-12.9-4.4-12.9-14.1c-0.1-11,6.2-14.2,13-14.2c0,0,0,0-0.1,0h0.2
		c0,0-0.1,0-0.1,0c6.9,0,13,4.3,13.1,14.2C-106,263.1-112.7,266.3-119,266.6"/>
	<path class="st0" d="M-32.8,265.4v-33h4.9v-7.2h-4.9v-6.9h-7.7v6.9v0.1v40.4v0.1c0,4.3,3.5,7.7,7.7,7.7h0.1h6.5v-7.2H-32
		C-32.4,266.3-32.8,265.9-32.8,265.4"/>
	<path class="st0" d="M-144.9,264.1c-2,0.9-6.3,2.5-11.4,2.5c-9.9,0-12.6-7-12.6-14.3c0-10.9,5.4-13.5,12.6-13.9
		c5-0.3,9.4,1,11.4,1.7v-8c-12.2-2.6-32.4-1.6-32.7,20.2c-0.3,22,18.2,23.4,32.7,20V264.1z"/>
	<path class="st0" d="M-241.5,233.6h-0.3v0.3v0.1v27.7c-2-2.2-3.9-5.4-5.9-8.8c-1.5-2.4-3-4.9-4.6-7.2l-0.1-0.1
		c-6.5-9.2-9.8-12.9-21.5-13.6c-0.4,0-0.8,0-1.2-0.1l-0.3,0v0.3v0.2V273v0.1v0.3h0.3h9.3h0.3v-0.3V273v-30c2,2.2,3.9,5.4,5.9,8.8
		c1.5,2.4,3,4.9,4.6,7.2l0.1,0.1c6.5,9.2,9.8,14.4,21.5,15.1c0.4,0,0.8,0,1.1,0.1l0.3,0v-0.3v-0.2V234v-0.1v-0.3h-0.3H-241.5z"/>
	<path class="st0" d="M-190.9,234.6c-5-3.6-11.4-3.8-15.9-3.8c-3.8,0-7.9,0.5-11.5,1.5c-5.6,1.5-7.6,1.8-7.7,1.8l-0.2,0.1v0.2v35.6
		v25.6v0.3h0.3h0.1c4.9,0,9.5-3.6,9.5-8.1v-15.2c4,0.9,7.7,1.4,11.3,1.4c7.2,0,12.7-1.3,16.4-5.1c3.6-3.7,6-9.7,5.9-16.7
		C-182.7,244.7-185.9,238.3-190.9,234.6 M-192.5,252.4c0,6.4-2.1,14-12.3,14c-5.2,0-9.6-1.7-11.4-2.6v-13.6v-9.6
		c1.9-0.7,5.6-1.8,9.9-1.8c0.5,0,1,0,1.5,0C-198.4,239.1-192.5,241-192.5,252.4"/>
	<path class="st0" d="M-282.6,263.4c-0.8,0-1.5-0.8-1.5-1.6l0-19.9c0-2.8,0.1-5.6,0.3-8.4l0,0h-0.6h-4.7c-1.3,0-2.6-0.2-3.9-0.5
		c-4.3-1.1-8.6-1.7-12.4-1.7c-7.2,0-12.7,1.3-16.4,5.1c-3.6,3.7-6,9.7-5.9,16.7c0.1,6.1,2,11.5,5.4,15.2c5.4,5.9,12.9,5.9,18.8,5.9
		c2.3,0,8.8-1.5,10.6-4.1c0.2,2.6,0.4,3.5,6.1,3.5h6.6v-10H-282.6z M-303.3,266c-9,0.6-14.6-3.5-14.6-12.9c0-6.4,2.1-14,12.3-14
		c5.1,0,10,1.6,12,2.6l0,19.2C-294.8,262.9-297.2,265.6-303.3,266"/>
	<path class="st0" d="M-325.2,316.7l-2.1-0.7l4.8-12.3h2.1l4.4,12.3l-2.2,0.7l-1.2-3.6h-4.3L-325.2,316.7z M-321.6,306.2
		L-321.6,306.2l-1.6,5h3L-321.6,306.2z"/>
	<path class="st0" d="M-314.2,314.3c0.7,0.4,1.4,0.8,2.3,0.8c0.7,0,1.3-0.3,1.3-1.1c0-1.9-4.2-0.4-4.2-4.1c0-1.9,1.6-2.9,3.3-2.9
		c1,0,2.3,0.3,3.1,1l-0.9,1.4c-0.5-0.4-1.3-0.7-2-0.7c-0.6,0-1.4,0.4-1.4,1.1c0,1.8,4.3,0.7,4.3,4c0,2-1.6,3-3.4,3
		c-1.1,0-2.2-0.3-3.1-0.9L-314.2,314.3z"/>
	<path class="st0" d="M-306.3,314.3c0.7,0.4,1.4,0.8,2.3,0.8c0.7,0,1.3-0.3,1.3-1.1c0-1.9-4.2-0.4-4.2-4.1c0-1.9,1.6-2.9,3.3-2.9
		c1,0,2.3,0.3,3.1,1l-0.9,1.4c-0.5-0.4-1.3-0.7-2-0.7c-0.6,0-1.4,0.4-1.4,1.1c0,1.8,4.3,0.7,4.3,4c0,2-1.6,3-3.4,3
		c-1.1,0-2.2-0.3-3.1-0.9L-306.3,314.3z"/>
	<path class="st0" d="M-294.9,306.9c2.9,0,4.3,2.2,4.3,4.9c0,2.6-1.6,4.9-4.3,4.9c-2.9,0-4.3-2.3-4.3-4.9
		C-299.2,309.4-297.5,306.9-294.9,306.9 M-294.9,314.9c1.6,0,2.1-1.7,2.1-3c0-1.9-0.7-3.2-2.1-3.2c-1.6,0-2.1,1.9-2.1,3.2
		C-297,313-296.5,314.9-294.9,314.9"/>
	<path class="st0" d="M-282,315c-0.9,1.1-1.9,1.8-3.4,1.8c-2.6,0-3.9-2.5-3.9-4.8c0-2.6,1.6-5,4.2-5c1.3,0,2.3,0.6,3.2,1.6l-1.2,1.2
		c-0.6-0.5-1.1-0.9-1.8-0.9c-1.4,0-2,1.5-2,2.9c0,2,0.8,3,1.9,3c0.8,0,1.3-0.5,1.8-1L-282,315z"/>
	<path class="st0" d="M-280.5,307.2h2.2l-0.1,9.3h-2.2L-280.5,307.2z M-280.5,303.7h2.2l0,2.2h-2.2L-280.5,303.7z"/>
	<path class="st0" d="M-276,308.8c2-1.7,3-1.9,3.9-1.9c1.3,0,2.6,0.9,2.6,2.7c0,0.3,0,0.5,0,0.8l-0.1,2.7c0,0.4,0,0.8,0,1.2
		c0,0.5,0.3,0.9,0.5,0.9c0.1,0,0.3-0.1,0.6-0.2l0.5,1.1c-0.9,0.6-1.5,0.8-1.9,0.8c-0.8,0-1.4-0.5-1.6-1.2c-0.6,0.8-1.5,1.2-2.3,1.2
		c-1.6,0-2.7-1-2.7-2.7c0-1.5,0.9-2.8,4.8-3.4V310c0-1-0.4-1.2-1-1.2c-0.4,0-1,0.2-2.3,1.3L-276,308.8z M-271.6,312
		c-2.1,0.5-2.7,1-2.7,1.9c0,0.7,0.5,1.1,1.1,1.1c0.4,0,1-0.3,1.6-0.9L-271.6,312z"/>
	<path class="st0" d="M-263.9,317.6c0.1,0,0.3-0.1,0.4-0.1c0.8,0,1.6,0.4,1.6,1.4c0,1.2-1.1,1.7-2.2,1.7c-0.6,0-1.3-0.2-1.8-0.5
		l0.3-0.7c0.4,0.1,0.8,0.3,1.1,0.3c0.5,0,1.1-0.1,1.1-0.8c0-0.5-0.4-0.7-0.9-0.7c-0.2,0-0.5,0.1-0.6,0.1l-0.4-0.3l0.9-1.5
		c-2-0.5-3.1-2.7-3.1-4.7c0-2.6,1.6-5,4.2-5c1.3,0,2.3,0.6,3.2,1.6l-1.2,1.2c-0.6-0.5-1.1-0.9-1.8-0.9c-1.4,0-2,1.5-2,2.9
		c0,2,0.8,3,1.9,3c0.8,0,1.3-0.5,1.8-1l1.2,1.2c-0.9,1.1-1.9,1.8-3.4,1.8L-263.9,317.6L-263.9,317.6z"/>
	<path class="st0" d="M-258.5,308.8c2-1.7,3-1.9,3.9-1.9c1.3,0,2.6,0.9,2.6,2.7c0,0.3,0,0.5,0,0.8l-0.1,2.7c0,0.4,0,0.8,0,1.2
		c0,0.5,0.3,0.9,0.5,0.9c0.1,0,0.3-0.1,0.6-0.2l0.5,1.1c-0.9,0.6-1.5,0.8-1.9,0.8c-0.8,0-1.4-0.5-1.6-1.2c-0.6,0.8-1.5,1.2-2.3,1.2
		c-1.6,0-2.7-1-2.7-2.7c0-1.5,0.9-2.8,4.8-3.4V310c0-1-0.4-1.2-1-1.2c-0.4,0-1,0.2-2.3,1.3L-258.5,308.8z M-258.1,305.8
		c0.2-1.2,0.7-2.1,2-2.1c0.4,0,0.9,0.2,1.3,0.3c0.5,0.2,0.9,0.3,1.2,0.3c0.4,0,0.7-0.4,0.8-0.8h1c-0.2,1.2-0.7,2.1-2,2.1
		c-0.4,0-0.9-0.2-1.3-0.4c-0.5-0.2-0.9-0.3-1.2-0.3c-0.4,0-0.7,0.4-0.8,0.8H-258.1z M-254.1,312c-2.1,0.5-2.7,1-2.7,1.9
		c0,0.7,0.5,1.1,1.1,1.1c0.4,0,1-0.3,1.6-0.9L-254.1,312z"/>
	<path class="st0" d="M-245.5,306.9c2.9,0,4.3,2.2,4.3,4.9c0,2.6-1.6,4.9-4.3,4.9c-2.9,0-4.3-2.3-4.3-4.9
		C-249.8,309.4-248.2,306.9-245.5,306.9 M-245.5,314.9c1.6,0,2.1-1.7,2.1-3c0-1.9-0.7-3.2-2.1-3.2c-1.6,0-2.1,1.9-2.1,3.2
		C-247.6,313-247.1,314.9-245.5,314.9"/>
	<polygon class="st0" points="-234.7,304.1 -232.6,303.5 -226.8,313.2 -226.7,313.2 -226.9,303.7 -224.6,303.7 -224.7,316.1 
		-227,316.7 -232.7,307 -232.7,307.1 -232.5,316.5 -234.8,316.5 	"/>
	<path class="st0" d="M-222.3,308.8c2-1.7,3-1.9,3.9-1.9c1.3,0,2.6,0.9,2.6,2.7c0,0.3,0,0.5,0,0.8l-0.1,2.7c0,0.4,0,0.8,0,1.2
		c0,0.5,0.3,0.9,0.5,0.9c0.1,0,0.3-0.1,0.6-0.2l0.5,1.1c-0.9,0.6-1.5,0.8-1.9,0.8c-0.8,0-1.4-0.5-1.6-1.2c-0.6,0.8-1.5,1.2-2.3,1.2
		c-1.6,0-2.7-1-2.7-2.7c0-1.5,0.9-2.8,4.8-3.4V310c0-1-0.4-1.2-1-1.2c-0.4,0-1,0.2-2.3,1.3L-222.3,308.8z M-217.9,312
		c-2.1,0.5-2.7,1-2.7,1.9c0,0.7,0.5,1.1,1.1,1.1c0.4,0,1-0.3,1.6-0.9L-217.9,312z"/>
	<path class="st0" d="M-206.3,315c-0.9,1.1-1.9,1.8-3.4,1.8c-2.6,0-3.9-2.5-3.9-4.8c0-2.6,1.6-5,4.2-5c1.3,0,2.3,0.6,3.2,1.6
		l-1.2,1.2c-0.6-0.5-1.1-0.9-1.8-0.9c-1.4,0-2,1.5-2,2.9c0,2,0.8,3,1.9,3c0.8,0,1.3-0.5,1.8-1L-206.3,315z"/>
	<path class="st0" d="M-204.9,307.2h2.2l-0.1,9.3h-2.2L-204.9,307.2z M-204.9,303.7h2.2l0,2.2h-2.2L-204.9,303.7z"/>
	<path class="st0" d="M-196.4,306.9c2.9,0,4.3,2.2,4.3,4.9c0,2.6-1.6,4.9-4.3,4.9c-2.9,0-4.3-2.3-4.3-4.9
		C-200.7,309.4-199,306.9-196.4,306.9 M-196.4,314.9c1.6,0,2.1-1.7,2.1-3c0-1.9-0.7-3.2-2.1-3.2c-1.6,0-2.1,1.9-2.1,3.2
		C-198.5,313-198,314.9-196.4,314.9"/>
	<path class="st0" d="M-190.1,307.2h2.1v1.1h0c0.7-0.8,1.7-1.4,2.9-1.4c1.9,0,2.4,1.4,2.4,2.8c0,0.9,0,1.5,0,2.1l-0.1,4.7h-2.2
		l0-2.3c0-1.4,0-2.5,0-3.6c0-1.1-0.3-1.5-1.2-1.5c-0.7,0-1.4,0.7-2,1.2l0,6.3h-2.2L-190.1,307.2z"/>
	<path class="st0" d="M-180.5,308.8c2-1.7,3-1.9,3.9-1.9c1.3,0,2.6,0.9,2.6,2.7c0,0.3,0,0.5,0,0.8l-0.1,2.7c0,0.4,0,0.8,0,1.2
		c0,0.5,0.3,0.9,0.5,0.9c0.1,0,0.3-0.1,0.6-0.2l0.5,1.1c-0.9,0.6-1.5,0.8-1.9,0.8c-0.8,0-1.4-0.5-1.6-1.2c-0.6,0.8-1.5,1.2-2.3,1.2
		c-1.6,0-2.7-1-2.7-2.7c0-1.5,0.9-2.8,4.8-3.4V310c0-1-0.4-1.2-1-1.2c-0.4,0-1,0.2-2.3,1.3L-180.5,308.8z M-176.1,312
		c-2.1,0.5-2.7,1-2.7,1.9c0,0.7,0.5,1.1,1.1,1.1c0.4,0,1-0.3,1.6-0.9L-176.1,312z"/>
	<polygon class="st0" points="-171,302.7 -168.8,302.7 -168.9,316.5 -171.1,316.5 	"/>
	<path class="st0" d="M-155.8,315.5L-155.8,315.5c-0.5,0.7-1.4,1.2-2.3,1.2c-2.2,0-3.8-2-3.8-4.7c0-2.5,1.4-5,3.9-5
		c0.7,0,1.5,0.2,2,0.9h0l0.1-5.2h2.2l-0.1,13.8h-2.1V315.5z M-155.9,309.7c-0.3-0.4-0.8-0.8-1.5-0.8c-1.2,0-2.2,1.2-2.2,3
		c0,1.7,0.9,2.9,2.2,2.9c0.7,0,1.5-0.7,1.6-1.5V309.7z"/>
	<path class="st0" d="M-149.7,312.1c0,1.3,0.6,2.8,2.1,2.8c0.9,0,1.5-0.6,2.1-1.2l1.3,1.2c-0.9,1.1-2.2,1.8-3.7,1.8
		c-2.3,0-3.9-2-3.9-4.9c0-2.5,1.5-4.9,4.1-4.9c2.5,0,3.7,1.9,3.7,5.2H-149.7z M-146.1,310.5c-0.1-1-0.5-2-1.6-2c-1,0-1.7,1.1-1.8,2
		H-146.1z"/>
	<path class="st0" d="M-137.1,303.7h3.5c3.2,0,4.5,1.5,4.5,3.9c0,2.6-2.1,3.9-4.5,3.9h-1.3l0,5h-2.3L-137.1,303.7z M-133.7,309.6
		c1.2,0,2.2-0.8,2.2-2c0-0.8-0.4-2-2.1-2h-1.2l0,3.9H-133.7z"/>
	<path class="st0" d="M-127.4,307.2h2.2v1.7l0,0c0.4-1.1,1-2,2.1-2c0.2,0,0.4,0,0.6,0.1l-0.4,2.2c-0.2,0-0.4-0.1-0.5-0.1
		c-0.8,0-1.5,0.6-1.9,1.6l-0.1,5.7h-2.2L-127.4,307.2z"/>
	<path class="st0" d="M-117.7,306.9c2.9,0,4.3,2.2,4.3,4.9c0,2.6-1.6,4.9-4.3,4.9c-2.9,0-4.3-2.3-4.3-4.9
		C-122,309.4-120.4,306.9-117.7,306.9 M-117.7,314.9c1.6,0,2.1-1.7,2.1-3c0-1.9-0.7-3.2-2.1-3.2c-1.6,0-2.1,1.9-2.1,3.2
		C-119.8,313-119.3,314.9-117.7,314.9"/>
	<path class="st0" d="M-104.7,308.7c0.3,0.4,0.5,0.9,0.5,1.4c0,1.9-1.6,3-3.3,3c-0.7,0-1.3-0.1-1.6-0.2c-0.3,0.3-0.8,0.5-0.8,0.8
		c0,0.4,0.6,0.5,2.6,0.7c2,0.2,4.2,0.5,4.2,2.8c0,2.5-2.7,3.8-4.9,3.8c-2.9,0-4.1-1.4-4.1-2.7c0-1.3,1-1.9,1.9-2.4v0
		c-0.8-0.2-1.9-0.4-1.9-1.3c0-0.8,0.6-1.2,2.1-2.2c-0.9-0.5-1.2-1.3-1.2-2.2c0-2,1.6-3.1,3.5-3.1c1,0,1.5,0.2,2,0.4l2.9-0.1v1.4
		L-104.7,308.7z M-107.9,319.5c1.6,0,2.7-1,2.7-2c0-1-0.4-1.1-3.5-1.5c-0.7,0.4-1.6,0.9-1.6,1.8
		C-110.3,319.1-108.9,319.5-107.9,319.5 M-109.2,310.1c0,0.8,0.5,1.6,1.5,1.6c1,0,1.5-0.7,1.5-1.7c0-0.9-0.5-1.6-1.4-1.6
		C-108.6,308.4-109.2,309.1-109.2,310.1"/>
	<path class="st0" d="M-100.6,307.2h2.2v1.7l0,0c0.4-1.1,1-2,2.1-2c0.2,0,0.4,0,0.6,0.1l-0.4,2.2c-0.2,0-0.4-0.1-0.5-0.1
		c-0.8,0-1.5,0.6-1.9,1.6l-0.1,5.7h-2.2L-100.6,307.2z"/>
	<path class="st0" d="M-94.1,308.8c2-1.7,3-1.9,3.9-1.9c1.3,0,2.6,0.9,2.6,2.7c0,0.3,0,0.5,0,0.8l-0.1,2.7c0,0.4,0,0.8,0,1.2
		c0,0.5,0.3,0.9,0.5,0.9c0.1,0,0.3-0.1,0.6-0.2l0.5,1.1c-0.9,0.6-1.5,0.8-1.9,0.8c-0.8,0-1.4-0.5-1.6-1.2c-0.6,0.8-1.5,1.2-2.3,1.2
		c-1.6,0-2.7-1-2.7-2.7c0-1.5,0.9-2.8,4.8-3.4V310c0-1-0.4-1.2-1-1.2c-0.4,0-1,0.2-2.3,1.3L-94.1,308.8z M-89.7,312
		c-2.1,0.5-2.7,1-2.7,1.9c0,0.7,0.5,1.1,1.1,1.1c0.4,0,1-0.3,1.6-0.9L-89.7,312z"/>
	<path class="st0" d="M-84.6,307.2h2.2v1.2l0,0c0.6-0.9,1.6-1.5,2.7-1.5c1.1,0,1.9,0.5,2.2,1.6c0.7-1,1.8-1.6,3-1.6
		c2,0,2.4,1.5,2.4,2.7c0,2.3,0,4.6,0,6.9h-2.2l0-3.6c0-1,0-2.2,0-2.7c0-0.7-0.4-1.1-1.1-1.1c-0.6,0-1.5,0.8-1.9,1.2l-0.1,6.3h-2.2
		l0-3.6c0-1,0-2.2,0-2.7c0-0.7-0.4-1.1-1.1-1.1c-0.6,0-1.5,0.8-1.9,1.2l-0.1,6.3h-2.2L-84.6,307.2z"/>
	<path class="st0" d="M-69.9,308.8c2-1.7,3-1.9,3.9-1.9c1.3,0,2.6,0.9,2.6,2.7c0,0.3,0,0.5,0,0.8l-0.1,2.7c0,0.4,0,0.8,0,1.2
		c0,0.5,0.3,0.9,0.5,0.9c0.1,0,0.3-0.1,0.6-0.2l0.5,1.1c-0.9,0.6-1.5,0.8-1.9,0.8c-0.8,0-1.4-0.5-1.6-1.2c-0.6,0.8-1.5,1.2-2.3,1.2
		c-1.6,0-2.7-1-2.7-2.7c0-1.5,0.9-2.8,4.8-3.4V310c0-1-0.4-1.2-1-1.2c-0.4,0-1,0.2-2.3,1.3L-69.9,308.8z M-65.5,312
		c-2.1,0.5-2.7,1-2.7,1.9c0,0.7,0.5,1.1,1.1,1.1c0.4,0,1-0.3,1.6-0.9L-65.5,312z"/>
	<path class="st0" d="M-60.4,314.3c0.7,0.4,1.4,0.8,2.3,0.8c0.7,0,1.3-0.3,1.3-1.1c0-1.9-4.2-0.4-4.2-4.1c0-1.9,1.6-2.9,3.3-2.9
		c1,0,2.3,0.3,3.1,1l-0.9,1.4c-0.5-0.4-1.3-0.7-2-0.7c-0.6,0-1.4,0.4-1.4,1.1c0,1.8,4.3,0.7,4.3,4c0,2-1.6,3-3.4,3
		c-1.1,0-2.2-0.3-3.1-0.9L-60.4,314.3z"/>
	<path class="st0" d="M-43.6,315.5L-43.6,315.5c-0.5,0.7-1.4,1.2-2.3,1.2c-2.2,0-3.8-2-3.8-4.7c0-2.5,1.4-5,3.9-5
		c0.7,0,1.5,0.2,2,0.9h0l0.1-5.2h2.2l-0.1,13.8h-2.1V315.5z M-43.7,309.7c-0.3-0.4-0.8-0.8-1.5-0.8c-1.2,0-2.2,1.2-2.2,3
		c0,1.7,0.9,2.9,2.2,2.9c0.7,0,1.5-0.7,1.6-1.5V309.7z"/>
	<path class="st0" d="M-37.5,312.1c0,1.3,0.6,2.8,2.1,2.8c0.9,0,1.5-0.6,2.1-1.2l1.3,1.2c-0.9,1.1-2.2,1.8-3.7,1.8
		c-2.3,0-3.9-2-3.9-4.9c0-2.5,1.5-4.9,4.1-4.9c2.5,0,3.7,1.9,3.7,5.2H-37.5z M-33.9,310.5c-0.1-1-0.5-2-1.6-2c-1,0-1.7,1.1-1.8,2
		H-33.9z"/>
	<path class="st0" d="M-327.7,325.8h3.5c3.2,0,4.5,1.5,4.5,3.9c0,2.6-2.1,3.9-4.5,3.9h-1.3l0,5h-2.3L-327.7,325.8z M-324.2,331.7
		c1.2,0,2.2-0.8,2.2-2c0-0.8-0.4-2-2.1-2h-1.2l0,3.9H-324.2z"/>
	<path class="st0" d="M-315.1,329c2.9,0,4.3,2.2,4.3,4.9c0,2.6-1.6,4.9-4.3,4.9c-2.9,0-4.3-2.3-4.3-4.9
		C-319.4,331.5-317.7,329-315.1,329 M-315.1,337c1.6,0,2.1-1.7,2.1-3c0-1.9-0.7-3.2-2.1-3.2c-1.6,0-2.1,1.9-2.1,3.2
		C-317.2,335.1-316.7,337-315.1,337 M-314.8,325.4h2.4l-2.5,2.6h-1.5L-314.8,325.4z"/>
	<path class="st0" d="M-308.6,336.4c0.7,0.4,1.4,0.8,2.3,0.8c0.7,0,1.3-0.3,1.3-1.1c0-1.9-4.2-0.4-4.2-4.1c0-1.9,1.6-2.9,3.3-2.9
		c1,0,2.3,0.3,3.1,1l-0.9,1.4c-0.5-0.4-1.3-0.7-2-0.7c-0.6,0-1.4,0.3-1.4,1.1c0,1.8,4.3,0.7,4.3,4c0,2-1.6,3-3.4,3
		c-1.1,0-2.2-0.3-3.1-0.9L-308.6,336.4z"/>
	<rect x="-301" y="332.9" class="st0" width="4.7" height="2"/>
	<path class="st0" d="M-285.7,332.1h2.4l-0.1,5.8c-1.4,0.6-2.8,0.9-4.2,0.9c-3.8,0-6.6-2.8-6.6-6.6c0-3.7,3-6.6,6.6-6.6
		c1.6,0,3,0.3,4,0.9l-0.8,1.8c-0.9-0.5-1.9-0.8-3.2-0.8c-2.1,0-4.2,1.7-4.2,4.7c0,2.8,1.7,4.7,4.2,4.7c0.7,0,1.3-0.1,1.8-0.3
		L-285.7,332.1z"/>
	<path class="st0" d="M-281,329.3h2.2v1.7l0,0c0.4-1.1,1-2,2.1-2c0.2,0,0.4,0,0.6,0.1l-0.4,2.2c-0.2,0-0.4-0.1-0.5-0.1
		c-0.8,0-1.5,0.6-1.9,1.6l-0.1,5.7h-2.2L-281,329.3z"/>
	<path class="st0" d="M-275.3,330.9c2-1.7,3-1.9,3.9-1.9c1.3,0,2.6,0.9,2.6,2.7c0,0.3,0,0.5,0,0.8l-0.1,2.7c0,0.4,0,0.8,0,1.2
		c0,0.5,0.3,0.9,0.5,0.9c0.1,0,0.3-0.1,0.6-0.2l0.5,1.1c-0.9,0.6-1.5,0.8-1.9,0.8c-0.8,0-1.4-0.5-1.6-1.2c-0.6,0.8-1.5,1.2-2.3,1.2
		c-1.6,0-2.7-1-2.7-2.7c0-1.5,0.9-2.8,4.8-3.4v-0.6c0-1-0.4-1.2-1-1.2c-0.4,0-1,0.2-2.3,1.3L-275.3,330.9z M-270.9,334.1
		c-2.1,0.5-2.7,1-2.7,1.9c0,0.7,0.5,1.1,1.1,1.1c0.4,0,1-0.3,1.6-0.9L-270.9,334.1z"/>
	<path class="st0" d="M-260.6,337.6L-260.6,337.6c-0.5,0.7-1.4,1.2-2.3,1.2c-2.2,0-3.8-2-3.8-4.7c0-2.5,1.4-5,3.9-5
		c0.7,0,1.5,0.2,2,0.9h0l0.1-5.2h2.2l-0.1,13.8h-2.1V337.6z M-260.7,331.8c-0.3-0.4-0.8-0.8-1.5-0.8c-1.2,0-2.2,1.2-2.2,3
		c0,1.7,0.9,2.9,2.2,2.9c0.7,0,1.5-0.7,1.6-1.5V331.8z"/>
	<path class="st0" d="M-248.7,338.6h-2.2v-1.1h0c-0.7,0.8-1.7,1.4-2.8,1.4c-2,0-2.5-1.3-2.5-3.1c0-0.6,0-1.1,0-1.7l0.1-4.7h2.2
		l0,2.3c0,1.3,0,2.7,0,3.7c0,1.1,0.3,1.5,1.2,1.5c0.7,0,1.4-0.7,2-1.2l0-6.3h2.2L-248.7,338.6z"/>
	<path class="st0" d="M-246.5,330.9c2-1.7,3-1.9,3.9-1.9c1.3,0,2.6,0.9,2.6,2.7c0,0.3,0,0.5,0,0.8l-0.1,2.7c0,0.4,0,0.8,0,1.2
		c0,0.5,0.3,0.9,0.5,0.9c0.1,0,0.3-0.1,0.6-0.2l0.5,1.1c-0.9,0.6-1.5,0.8-1.9,0.8c-0.8,0-1.4-0.5-1.6-1.2c-0.6,0.8-1.5,1.2-2.3,1.2
		c-1.6,0-2.7-1-2.7-2.7c0-1.5,0.9-2.8,4.8-3.4v-0.6c0-1-0.4-1.2-1-1.2c-0.4,0-1,0.2-2.3,1.3L-246.5,330.9z M-242,334.1
		c-2.1,0.5-2.7,1-2.7,1.9c0,0.7,0.5,1.1,1.1,1.1c0.4,0,1-0.3,1.6-0.9L-242,334.1z"/>
	<path class="st0" d="M-234.3,339.7c0.1,0,0.3-0.1,0.4-0.1c0.8,0,1.6,0.4,1.6,1.4c0,1.2-1.1,1.7-2.2,1.7c-0.6,0-1.3-0.2-1.8-0.5
		l0.3-0.7c0.4,0.1,0.8,0.3,1.1,0.3c0.5,0,1.1-0.1,1.1-0.8c0-0.5-0.4-0.7-0.9-0.7c-0.2,0-0.5,0.1-0.6,0.1l-0.4-0.3l0.9-1.5
		c-2-0.5-3.1-2.7-3.1-4.7c0-2.6,1.6-5,4.2-5c1.3,0,2.3,0.6,3.2,1.6l-1.2,1.2c-0.6-0.5-1.1-0.9-1.8-0.9c-1.4,0-2,1.5-2,2.9
		c0,2,0.8,3,1.9,3c0.8,0,1.3-0.5,1.8-1l1.2,1.2c-0.9,1.1-1.9,1.8-3.4,1.8L-234.3,339.7L-234.3,339.7z"/>
	<path class="st0" d="M-229.5,330.9c2-1.7,3-1.9,3.9-1.9c1.3,0,2.6,0.9,2.6,2.7c0,0.3,0,0.5,0,0.8l-0.1,2.7c0,0.4,0,0.8,0,1.2
		c0,0.5,0.3,0.9,0.5,0.9c0.1,0,0.3-0.1,0.6-0.2l0.5,1.1c-0.9,0.6-1.5,0.8-1.9,0.8c-0.8,0-1.4-0.5-1.6-1.2c-0.6,0.8-1.5,1.2-2.3,1.2
		c-1.6,0-2.7-1-2.7-2.7c0-1.5,0.9-2.8,4.8-3.4v-0.6c0-1-0.4-1.2-1-1.2c-0.4,0-1,0.2-2.3,1.3L-229.5,330.9z M-229.2,327.9
		c0.2-1.2,0.7-2.1,2-2.1c0.4,0,0.9,0.2,1.3,0.3c0.5,0.2,0.9,0.3,1.2,0.3c0.4,0,0.7-0.4,0.8-0.8h1c-0.2,1.2-0.7,2.1-2,2.1
		c-0.4,0-0.9-0.2-1.3-0.4c-0.5-0.2-0.9-0.3-1.2-0.3c-0.4,0-0.7,0.4-0.8,0.8H-229.2z M-225.1,334.1c-2.1,0.5-2.7,1-2.7,1.9
		c0,0.7,0.5,1.1,1.1,1.1c0.4,0,1-0.3,1.6-0.9L-225.1,334.1z"/>
	<path class="st0" d="M-216.6,329c2.9,0,4.3,2.2,4.3,4.9c0,2.6-1.6,4.9-4.3,4.9c-2.9,0-4.3-2.3-4.3-4.9
		C-220.9,331.5-219.2,329-216.6,329 M-216.6,337c1.6,0,2.1-1.7,2.1-3c0-1.9-0.7-3.2-2.1-3.2c-1.6,0-2.1,1.9-2.1,3.2
		C-218.7,335.1-218.2,337-216.6,337"/>
	<path class="st0" d="M-202.4,334.2c0,1.3,0.6,2.8,2.1,2.8c0.9,0,1.5-0.6,2.1-1.2l1.3,1.2c-0.9,1.1-2.2,1.8-3.7,1.8
		c-2.3,0-3.9-2-3.9-4.9c0-2.5,1.5-4.9,4.1-4.9c2.5,0,3.7,1.9,3.7,5.2H-202.4z M-198.8,332.6c-0.1-1-0.5-2-1.6-2c-1,0-1.7,1.1-1.8,2
		H-198.8z"/>
	<path class="st0" d="M-195,329.3h2.2v1.2l0,0c0.6-0.9,1.6-1.5,2.7-1.5c1.1,0,1.9,0.5,2.2,1.6c0.7-1,1.8-1.6,3-1.6
		c2,0,2.4,1.5,2.4,2.7c0,2.3,0,4.6,0,6.9h-2.2l0-3.6c0-1,0-2.2,0-2.7c0-0.7-0.4-1.1-1.1-1.1c-0.6,0-1.5,0.8-1.9,1.2l-0.1,6.3h-2.2
		l0-3.6c0-1,0-2.2,0-2.7c0-0.7-0.4-1.1-1.1-1.1c-0.6,0-1.5,0.8-1.9,1.2l-0.1,6.3h-2.2L-195,329.3z"/>
	<path class="st0" d="M-164.5,337.6c-1.1,0.8-2.5,1.2-3.9,1.2c-3.7,0-6.4-2.8-6.4-6.6c0-3.9,2.7-6.7,6.3-6.7c1.5,0,2.9,0.5,4,1.5
		l-1,1.6c-0.8-0.7-2-1.1-3-1.1c-2.4,0-4,2-4,4.5c0,2.4,1.6,4.7,3.9,4.7c1.6,0,2.4-0.4,3.1-0.8L-164.5,337.6z"/>
	<path class="st0" d="M-162.8,329.3h2.2l-0.1,9.3h-2.2L-162.8,329.3z M-162.7,325.8h2.2l0,2.2h-2.2L-162.7,325.8z"/>
	<path class="st0" d="M-156.4,334.2c0,1.3,0.6,2.8,2.1,2.8c0.9,0,1.5-0.6,2.1-1.2l1.3,1.2c-0.9,1.1-2.2,1.8-3.7,1.8
		c-2.3,0-3.9-2-3.9-4.9c0-2.5,1.5-4.9,4.1-4.9c2.5,0,3.7,1.9,3.7,5.2H-156.4z M-155.7,325.4h2l2,2.7h-1.6l-1.3-1.7l-1.3,1.7h-1.6
		L-155.7,325.4z M-152.8,332.6c-0.1-1-0.5-2-1.6-2c-1,0-1.7,1.1-1.8,2H-152.8z"/>
	<path class="st0" d="M-149,329.3h2.1v1.1h0c0.7-0.8,1.7-1.4,2.9-1.4c1.9,0,2.4,1.4,2.4,2.8c0,0.9,0,1.5,0,2.1l-0.1,4.7h-2.2l0-2.3
		c0-1.4,0-2.5,0-3.6c0-1.1-0.3-1.5-1.2-1.5c-0.7,0-1.4,0.7-2,1.2l0,6.3h-2.2L-149,329.3z"/>
	<path class="st0" d="M-132.3,337.1c-0.9,1.1-1.9,1.8-3.4,1.8c-2.6,0-3.9-2.5-3.9-4.8c0-2.6,1.6-5,4.2-5c1.3,0,2.3,0.6,3.2,1.6
		l-1.2,1.2c-0.6-0.5-1.1-0.9-1.8-0.9c-1.4,0-2,1.5-2,2.9c0,2,0.8,3,1.9,3c0.8,0,1.3-0.5,1.8-1L-132.3,337.1z"/>
	<path class="st0" d="M-130.9,329.3h2.2l-0.1,9.3h-2.2L-130.9,329.3z M-130.9,325.8h2.2l0,2.2h-2.2L-130.9,325.8z"/>
	<path class="st0" d="M-126.4,330.9c2-1.7,3-1.9,3.9-1.9c1.3,0,2.6,0.9,2.6,2.7c0,0.3,0,0.5,0,0.8l-0.1,2.7c0,0.4,0,0.8,0,1.2
		c0,0.5,0.3,0.9,0.5,0.9c0.1,0,0.3-0.1,0.6-0.2l0.5,1.1c-0.9,0.6-1.5,0.8-1.9,0.8c-0.8,0-1.4-0.5-1.6-1.2c-0.6,0.8-1.5,1.2-2.3,1.2
		c-1.6,0-2.7-1-2.7-2.7c0-1.5,0.9-2.8,4.8-3.4v-0.6c0-1-0.4-1.2-1-1.2c-0.4,0-1,0.2-2.3,1.3L-126.4,330.9z M-122,334.1
		c-2.1,0.5-2.7,1-2.7,1.9c0,0.7,0.5,1.1,1.1,1.1c0.4,0,1-0.3,1.6-0.9L-122,334.1z"/>
	<path class="st0" d="M-116.9,336.4c0.7,0.4,1.4,0.8,2.3,0.8c0.7,0,1.3-0.3,1.3-1.1c0-1.9-4.2-0.4-4.2-4.1c0-1.9,1.6-2.9,3.3-2.9
		c1,0,2.3,0.3,3.1,1l-0.9,1.4c-0.5-0.4-1.3-0.7-2-0.7c-0.6,0-1.4,0.3-1.4,1.1c0,1.8,4.3,0.7,4.3,4c0,2-1.6,3-3.4,3
		c-1.1,0-2.2-0.3-3.1-0.9L-116.9,336.4z"/>
	<path class="st0" d="M-93.1,337.6c-1.1,0.8-2.5,1.2-3.9,1.2c-3.7,0-6.4-2.8-6.4-6.6c0-3.9,2.6-6.7,6.3-6.7c1.5,0,2.9,0.5,4,1.5
		l-1,1.6c-0.8-0.7-2-1.1-3-1.1c-2.4,0-4,2-4,4.5c0,2.4,1.6,4.7,3.9,4.7c1.6,0,2.4-0.4,3.1-0.8L-93.1,337.6z"/>
	<path class="st0" d="M-87.9,329c2.9,0,4.3,2.2,4.3,4.9c0,2.6-1.6,4.9-4.3,4.9c-2.9,0-4.3-2.3-4.3-4.9
		C-92.2,331.5-90.5,329-87.9,329 M-87.9,337c1.6,0,2.1-1.7,2.1-3c0-1.9-0.7-3.2-2.1-3.2c-1.6,0-2.1,1.9-2.1,3.2
		C-90,335.1-89.5,337-87.9,337"/>
	<path class="st0" d="M-81.6,329.3h2.1v1.1h0c0.7-0.8,1.7-1.4,2.9-1.4c1.9,0,2.4,1.4,2.4,2.8c0,0.9,0,1.5,0,2.1l-0.1,4.7h-2.2l0-2.3
		c0-1.4,0-2.5,0-3.6c0-1.1-0.3-1.5-1.2-1.5c-0.7,0-1.4,0.7-2,1.2l0,6.3h-2.2L-81.6,329.3z"/>
	<path class="st0" d="M-66.8,338.1l-0.7,0.4c-0.6,0.3-1.1,0.4-1.4,0.4c-1.5,0-2.5-0.8-2.5-2.8c0-0.4,0-1.4,0-2.2l0.1-2.8h-1.2v-1.7
		l1.2,0l0.1-3.3h2.2l-0.1,3.3l2,0v1.7h-2l-0.1,2.7c0,0.9,0,1.8,0,2.4c0,0.6,0.2,1,0.7,1c0.4,0,0.7-0.2,1-0.4L-66.8,338.1z"/>
	<path class="st0" d="M-65.7,330.9c2-1.7,3-1.9,3.9-1.9c1.3,0,2.6,0.9,2.6,2.7c0,0.3,0,0.5,0,0.8l-0.1,2.7c0,0.4,0,0.8,0,1.2
		c0,0.5,0.3,0.9,0.5,0.9c0.1,0,0.3-0.1,0.6-0.2l0.5,1.1c-0.9,0.6-1.5,0.8-1.9,0.8c-0.8,0-1.4-0.5-1.6-1.2c-0.6,0.8-1.5,1.2-2.3,1.2
		c-1.6,0-2.7-1-2.7-2.7c0-1.5,0.9-2.8,4.8-3.4v-0.6c0-1-0.4-1.2-1-1.2c-0.4,0-1,0.2-2.3,1.3L-65.7,330.9z M-61.3,334.1
		c-2.1,0.5-2.7,1-2.7,1.9c0,0.7,0.5,1.1,1.1,1.1c0.4,0,1-0.3,1.6-0.9L-61.3,334.1z M-61.9,325.4h2.4L-62,328h-1.5L-61.9,325.4z"/>
	<path class="st0" d="M-56.4,324.8h2.2l-0.1,5.7l0,0c0.4-0.9,1.2-1.4,2.3-1.4c2.2,0,3.6,2.1,3.6,4.6c0,2.4-1.5,5.2-4,5.2
		c-0.9,0-1.7-0.3-2.1-1.1h0v0.8h-2.1L-56.4,324.8z M-54.3,336.2c0.2,0.3,0.8,0.7,1.5,0.7c1.6,0,2.4-1.6,2.4-3c0-1.4-0.6-2.9-2-2.9
		c-0.8,0-1.3,0.5-1.8,1.2L-54.3,336.2z"/>
	<path class="st0" d="M-44.8,334.2c0,1.3,0.6,2.8,2.1,2.8c0.9,0,1.5-0.6,2.1-1.2l1.3,1.2c-0.9,1.1-2.2,1.8-3.7,1.8
		c-2.3,0-3.9-2-3.9-4.9c0-2.5,1.5-4.9,4.1-4.9c2.5,0,3.7,1.9,3.7,5.2H-44.8z M-41.2,332.6c-0.1-1-0.5-2-1.6-2c-1,0-1.7,1.1-1.8,2
		H-41.2z"/>
	<path class="st0" d="M-37.2,329.3h2.2l-0.1,9.3h-2.2L-37.2,329.3z M-37.2,325.8h2.2l0,2.2h-2.2L-37.2,325.8z"/>
	<path class="st0" d="M-32.1,336.4c0.7,0.4,1.4,0.8,2.3,0.8c0.7,0,1.3-0.3,1.3-1.1c0-1.9-4.2-0.4-4.2-4.1c0-1.9,1.6-2.9,3.3-2.9
		c1,0,2.3,0.3,3.1,1l-0.9,1.4c-0.5-0.4-1.3-0.7-2-0.7c-0.6,0-1.4,0.3-1.4,1.1c0,1.8,4.3,0.7,4.3,4c0,2-1.6,3-3.4,3
		c-1.1,0-2.2-0.3-3.1-0.9L-32.1,336.4z"/>
</g>
</svg>
