<?xml version="1.0" encoding="utf-8"?>
<!-- Generator: Adobe Illustrator 19.2.1, SVG Export Plug-In . SVG Version: 6.00 Build 0)  -->
<svg version="1.1" id="Layer_1" xmlns="http://www.w3.org/2000/svg" xmlns:xlink="http://www.w3.org/1999/xlink" x="0px" y="0px"
	 width="370px" height="75px" viewBox="0 0 370 75" style="enable-background:new 0 0 370 75;" xml:space="preserve">
<style type="text/css">
	.st0{fill:#E5DAD1;}
</style>
<g>
	<path class="st0" d="M229.2-271v0.1v24.4c-3-3-6-9.3-9.4-14c-5.5-7.8-7.8-11-17.6-11.6c-0.3,0-0.6,0-1,0v0.1v34.7v0.1h7.4v-0.1
		v-26.4c3,3.1,6,9.3,9.4,14c5.5,7.8,7.8,12.4,17.6,13c0.3,0,0.6,0,1,0v-0.1v-34.1v-0.1H229.2z"/>
	<path class="st0" d="M177.6-273.1c-9.7,0-18.5,4.1-18.4,18.2c0.1,12.4,9.3,17.6,18.2,18h0.4c8.9-0.4,18.4-4.6,18.2-18
		C195.9-267.6,187.3-273.1,177.6-273.1 M177.7-242.9h-0.2c-5.4-0.3-10.9-3.7-11-11.9c-0.1-9.4,5.2-12.1,11.1-12.1c0,0,0,0-0.1,0h0.1
		h-0.1c5.8,0,11,3.6,11.1,12.1C188.8-246,183.1-243.2,177.7-242.9"/>
	<path class="st0" d="M250.9-244v-28h4.1v-6.2h-4.1v-5.8h-6.5v5.9v0.1v34.3v0.1c0,3.6,2.9,6.6,6.6,6.6h0.1h5.5v-6.1h-4.9
		C251.3-243.3,250.9-243.6,250.9-244"/>
	<path class="st0" d="M155.7-245.1c-1.7,0.8-5.3,2.2-9.7,2.2c-8.4,0-10.7-6-10.7-12.1c0-9.3,4.6-11.5,10.7-11.8
		c4.3-0.2,8,0.8,9.7,1.5v-6.8c-10.3-2.3-27.5-1.3-27.8,17.2c-0.2,18.7,15.5,19.9,27.8,17V-245.1z"/>
	<path class="st0" d="M73.7-271h-0.3v0.3v0.1v23.5c-1.7-1.8-3.3-4.6-5-7.4c-1.2-2.1-2.5-4.2-3.9-6.1l-0.1-0.1
		c-5.5-7.8-8.3-11-18.3-11.6c-0.3,0-0.7,0-1,0h-0.3v0.3v0.1v34.4v0.1v0.3h0.3H53h0.3v-0.3v-0.1V-263c1.7,1.8,3.3,4.6,5,7.4
		c1.2,2.1,2.5,4.2,3.9,6.1l0.1,0.1c5.5,7.8,8.3,12.2,18.3,12.8c0.3,0,0.7,0,1,0h0.3v-0.3v-0.1v-33.6v-0.1v-0.3h-0.3
		C81.6-271,73.7-271,73.7-271z"/>
	<path class="st0" d="M116.6-270.1c-4.2-3.1-9.7-3.2-13.5-3.2c-3.2,0-6.7,0.5-9.8,1.3c-4.8,1.3-6.5,1.6-6.5,1.6h-0.2v0.2v30.2v21.8
		v0.3h0.3H87c4.2,0,8.1-3.1,8.1-6.8v-13.1c3.4,0.8,6.6,1.2,9.6,1.2c6.1,0,10.8-1.1,14-4.3c3.1-3.1,5.1-8.2,5-14.2
		C123.6-261.6,120.9-267,116.6-270.1 M115.3-255.1c0,5.4-1.8,11.9-10.5,11.9c-4.4,0-8.2-1.5-9.7-2.2V-257v-8.2
		c1.6-0.6,4.7-1.5,8.4-1.5c0.4,0,0.8,0,1.2,0C110.2-266.3,115.3-264.7,115.3-255.1"/>
	<path class="st0" d="M38.7-245.6c-0.7,0-1.3-0.7-1.3-1.4v-16.9c0-2.4,0.1-4.8,0.2-7.1l0,0h-0.5h-4c-1.1,0-2.2-0.1-3.3-0.4
		c-3.6-0.9-7.3-1.4-10.5-1.4c-6.1,0-10.8,1.1-14,4.3c-3,3-5.1,8.1-5,14c0.1,5.2,1.7,9.7,4.6,12.9c4.6,5,10.9,5,16,5
		c2,0,7.5-1.2,9-3.5c0.2,2.2,0.4,2.9,5.2,2.9h5.6v-8.5L38.7-245.6L38.7-245.6z M21.1-243.5c-7.7,0.5-12.4-2.9-12.4-11
		c0-5.4,1.8-11.9,10.5-11.9c4.3,0,8.5,1.4,10.2,2.2v16.3C28.3-246.1,26.3-243.8,21.1-243.5"/>
	<path class="st0" d="M294.9-260l-1.8-0.6l4-10.5h1.8l3.8,10.5l-1.9,0.6l-1-3.1H296L294.9-260z M298-269L298-269l-1.4,4.2h2.6
		L298-269z"/>
	<path class="st0" d="M304.2-262.1c0.6,0.4,1.2,0.7,1.9,0.7c0.6,0,1.1-0.3,1.1-0.9c0-1.6-3.6-0.4-3.6-3.5c0-1.6,1.3-2.4,2.8-2.4
		c0.9,0,1.9,0.3,2.6,0.9l-0.8,1.2c-0.4-0.3-1.1-0.6-1.7-0.6c-0.5,0-1.2,0.3-1.2,0.9c0,1.5,3.7,0.6,3.7,3.4c0,1.7-1.4,2.5-2.9,2.5
		c-0.9,0-1.8-0.3-2.6-0.8L304.2-262.1z"/>
	<path class="st0" d="M311-262.1c0.6,0.4,1.2,0.7,1.9,0.7c0.6,0,1.1-0.3,1.1-0.9c0-1.6-3.6-0.4-3.6-3.5c0-1.6,1.3-2.4,2.8-2.4
		c0.9,0,1.9,0.3,2.6,0.9l-0.8,1.2c-0.4-0.3-1.1-0.6-1.7-0.6c-0.5,0-1.2,0.3-1.2,0.9c0,1.5,3.7,0.6,3.7,3.4c0,1.7-1.4,2.5-2.9,2.5
		c-0.9,0-1.8-0.3-2.6-0.8L311-262.1z"/>
	<path class="st0" d="M320.6-268.3c2.4,0,3.7,1.8,3.7,4.2c0,2.2-1.4,4.2-3.7,4.2c-2.5,0-3.7-1.9-3.7-4.2
		C317-266.3,318.4-268.3,320.6-268.3 M320.6-261.5c1.3,0,1.8-1.5,1.8-2.6c0-1.6-0.6-2.7-1.8-2.7c-1.4,0-1.8,1.6-1.8,2.7
		C318.8-263.2,319.3-261.5,320.6-261.5"/>
	<path class="st0" d="M331.6-261.5c-0.7,0.9-1.6,1.5-2.9,1.5c-2.2,0-3.3-2.1-3.3-4c0-2.2,1.3-4.3,3.6-4.3c1.1,0,2,0.5,2.7,1.3
		l-1.1,1c-0.5-0.4-0.9-0.8-1.6-0.8c-1.2,0-1.7,1.3-1.7,2.5c0,1.7,0.7,2.6,1.6,2.6c0.7,0,1.1-0.4,1.6-0.9L331.6-261.5z"/>
	<path class="st0" d="M332.8-268.1h1.9l-0.1,7.9h-1.9L332.8-268.1z M332.9-271.1h1.9v1.8h-1.9V-271.1z"/>
	<path class="st0" d="M336.7-266.7c1.7-1.4,2.5-1.6,3.3-1.6c1.1,0,2.2,0.7,2.2,2.3c0,0.3,0,0.5,0,0.7l-0.1,2.3c0,0.4,0,0.7,0,1
		c0,0.4,0.2,0.8,0.4,0.8c0.1,0,0.2,0,0.5-0.2l0.4,1c-0.8,0.5-1.2,0.6-1.6,0.6c-0.7,0-1.2-0.4-1.3-1c-0.5,0.7-1.2,1-2,1
		c-1.4,0-2.3-0.9-2.3-2.3c0-1.3,0.8-2.4,4.1-2.9v-0.5c0-0.9-0.4-1-0.9-1c-0.4,0-0.8,0.2-2,1.1L336.7-266.7z M340.4-264
		c-1.8,0.4-2.3,0.8-2.3,1.6c0,0.6,0.4,0.9,1,0.9c0.4,0,0.9-0.3,1.3-0.7V-264z"/>
	<path class="st0" d="M347-259.3c0.1,0,0.2-0.1,0.3-0.1c0.7,0,1.4,0.4,1.4,1.2c0,1-0.9,1.5-1.8,1.5c-0.5,0-1.1-0.2-1.6-0.4l0.3-0.6
		c0.3,0.1,0.6,0.3,1,0.3s0.9-0.1,0.9-0.7c0-0.4-0.4-0.6-0.7-0.6c-0.2,0-0.4,0-0.5,0.1l-0.3-0.3l0.8-1.2c-1.7-0.4-2.6-2.3-2.6-4
		c0-2.2,1.3-4.3,3.6-4.3c1.1,0,2,0.5,2.7,1.3l-1,1c-0.5-0.4-0.9-0.7-1.6-0.7c-1.2,0-1.7,1.3-1.7,2.5c0,1.7,0.7,2.6,1.6,2.6
		c0.7,0,1.1-0.4,1.6-0.9l1,1c-0.7,0.9-1.6,1.5-2.9,1.5L347-259.3L347-259.3z"/>
	<path class="st0" d="M351.6-266.7c1.7-1.4,2.5-1.6,3.3-1.6c1.1,0,2.2,0.7,2.2,2.3c0,0.3,0,0.5,0,0.7L357-263c0,0.4,0,0.7,0,1
		c0,0.4,0.2,0.8,0.4,0.8c0.1,0,0.2,0,0.5-0.2l0.4,1c-0.8,0.5-1.2,0.6-1.6,0.6c-0.7,0-1.2-0.4-1.3-1c-0.5,0.7-1.2,1-2,1
		c-1.4,0-2.3-0.9-2.3-2.3c0-1.3,0.8-2.4,4.1-2.9v-0.5c0-0.9-0.4-1-0.9-1c-0.4,0-0.8,0.2-2,1.1L351.6-266.7z M351.9-269.3
		c0.2-1,0.6-1.8,1.7-1.8c0.3,0,0.7,0.2,1.1,0.3c0.4,0.1,0.8,0.3,1.1,0.3c0.4,0,0.6-0.4,0.7-0.7h0.8c-0.2,1-0.6,1.8-1.7,1.8
		c-0.3,0-0.7-0.2-1.1-0.3c-0.4-0.1-0.8-0.3-1.1-0.3c-0.4,0-0.6,0.4-0.7,0.7H351.9z M355.3-264c-1.8,0.4-2.3,0.8-2.3,1.6
		c0,0.6,0.4,0.9,1,0.9c0.4,0,0.9-0.3,1.3-0.7V-264z"/>
	<path class="st0" d="M362.6-268.3c2.4,0,3.7,1.8,3.7,4.2c0,2.2-1.4,4.2-3.7,4.2c-2.5,0-3.7-1.9-3.7-4.2
		C358.9-266.3,360.3-268.3,362.6-268.3 M362.6-261.5c1.3,0,1.8-1.5,1.8-2.6c0-1.6-0.6-2.7-1.8-2.7c-1.4,0-1.8,1.6-1.8,2.7
		C360.8-263.2,361.2-261.5,362.6-261.5"/>
	<polygon class="st0" points="371.8,-270.7 373.6,-271.3 378.5,-263 378.5,-263 378.4,-271.1 380.4,-271.1 380.3,-260.6 378.3,-260 
		373.5,-268.3 373.5,-268.2 373.6,-260.2 371.7,-260.2 	"/>
	<path class="st0" d="M382.3-266.7c1.7-1.4,2.5-1.6,3.3-1.6c1.1,0,2.2,0.7,2.2,2.3c0,0.3,0,0.5,0,0.7l-0.1,2.3c0,0.4,0,0.7,0,1
		c0,0.4,0.2,0.8,0.4,0.8c0.1,0,0.2,0,0.5-0.2l0.4,1c-0.8,0.5-1.2,0.6-1.6,0.6c-0.7,0-1.2-0.4-1.3-1c-0.5,0.7-1.2,1-2,1
		c-1.4,0-2.3-0.9-2.3-2.3c0-1.3,0.8-2.4,4.1-2.9v-0.5c0-0.9-0.4-1-0.9-1c-0.4,0-0.8,0.2-2,1.1L382.3-266.7z M386.1-264
		c-1.8,0.4-2.3,0.8-2.3,1.6c0,0.6,0.4,0.9,1,0.9c0.4,0,0.9-0.3,1.3-0.7V-264z"/>
	<path class="st0" d="M395.9-261.5c-0.7,0.9-1.6,1.5-2.9,1.5c-2.2,0-3.3-2.1-3.3-4c0-2.2,1.3-4.3,3.6-4.3c1.1,0,2,0.5,2.7,1.3l-1,1
		c-0.5-0.4-0.9-0.8-1.6-0.8c-1.2,0-1.7,1.3-1.7,2.5c0,1.7,0.7,2.6,1.6,2.6c0.7,0,1.1-0.4,1.6-0.9L395.9-261.5z"/>
	<path class="st0" d="M397.1-268.1h1.9l-0.1,7.9H397L397.1-268.1z M397.1-271.1h1.9v1.8h-1.9V-271.1z"/>
	<path class="st0" d="M404.3-268.3c2.4,0,3.7,1.8,3.7,4.2c0,2.2-1.4,4.2-3.7,4.2c-2.5,0-3.7-1.9-3.7-4.2
		C400.7-266.3,402.1-268.3,404.3-268.3 M404.3-261.5c1.3,0,1.8-1.5,1.8-2.6c0-1.6-0.6-2.7-1.8-2.7c-1.4,0-1.8,1.6-1.8,2.7
		C402.5-263.2,403-261.5,404.3-261.5"/>
	<path class="st0" d="M409.7-268.1h1.8v1l0,0c0.6-0.7,1.5-1.2,2.5-1.2c1.6,0,2,1.2,2,2.4c0,0.8,0,1.3,0,1.8v4h-1.9v-2
		c0-1.2,0-2.2,0-3.1c0-1-0.2-1.3-1-1.3c-0.6,0-1.2,0.6-1.7,1v5.4h-1.9L409.7-268.1z"/>
	<path class="st0" d="M417.9-266.7c1.7-1.4,2.5-1.6,3.3-1.6c1.1,0,2.2,0.7,2.2,2.3c0,0.3,0,0.5,0,0.7l-0.1,2.3c0,0.4,0,0.7,0,1
		c0,0.4,0.2,0.8,0.4,0.8c0.1,0,0.2,0,0.5-0.2l0.4,1c-0.8,0.5-1.2,0.6-1.6,0.6c-0.7,0-1.2-0.4-1.3-1c-0.5,0.7-1.2,1-2,1
		c-1.4,0-2.3-0.9-2.3-2.3c0-1.3,0.8-2.4,4.1-2.9v-0.5c0-0.9-0.4-1-0.9-1c-0.4,0-0.8,0.2-2,1.1L417.9-266.7z M421.6-264
		c-1.8,0.4-2.3,0.8-2.3,1.6c0,0.6,0.4,0.9,1,0.9c0.4,0,0.9-0.3,1.3-0.7V-264z"/>
	<polygon class="st0" points="425.9,-272 427.7,-272 427.6,-260.2 425.8,-260.2 	"/>
	<path class="st0" d="M438.8-261.1L438.8-261.1c-0.4,0.6-1.2,1-1.9,1c-1.9,0-3.2-1.7-3.2-4c0-2.1,1.2-4.2,3.3-4.2
		c0.6,0,1.3,0.2,1.7,0.8l0,0v-4.4h1.9v11.7h-1.8V-261.1z M438.7-266c-0.2-0.3-0.7-0.7-1.3-0.7c-1,0-1.9,1-1.9,2.5s0.8,2.5,1.8,2.5
		c0.6,0,1.2-0.6,1.3-1.2v-3.1H438.7z"/>
	<path class="st0" d="M444-263.9c0,1.1,0.5,2.4,1.8,2.4c0.7,0,1.3-0.5,1.8-1l1.1,1c-0.8,0.9-1.9,1.5-3.1,1.5c-1.9,0-3.3-1.7-3.3-4.1
		c0-2.1,1.3-4.2,3.5-4.2s3.2,1.6,3.2,4.4H444z M447-265.3c0-0.8-0.4-1.7-1.4-1.7c-0.8,0-1.5,0.9-1.6,1.7H447z"/>
	<path class="st0" d="M454.7-271.1h3c2.8,0,3.9,1.3,3.9,3.3c0,2.2-1.8,3.3-3.8,3.3h-1.1v4.2h-2V-271.1z M457.6-266.1
		c1,0,1.9-0.7,1.9-1.7c0-0.7-0.4-1.7-1.8-1.7h-1v3.3h0.9V-266.1z"/>
	<path class="st0" d="M462.9-268.1h1.9v1.4l0,0c0.4-0.9,0.8-1.7,1.8-1.7c0.2,0,0.4,0,0.5,0.1l-0.3,1.8c-0.2,0-0.3-0.1-0.4-0.1
		c-0.7,0-1.2,0.5-1.6,1.4v4.9h-1.9V-268.1z"/>
	<path class="st0" d="M471.2-268.3c2.4,0,3.7,1.8,3.7,4.2c0,2.2-1.4,4.2-3.7,4.2c-2.5,0-3.7-1.9-3.7-4.2
		C467.5-266.3,468.9-268.3,471.2-268.3 M471.2-261.5c1.3,0,1.8-1.5,1.8-2.6c0-1.6-0.6-2.7-1.8-2.7c-1.4,0-1.8,1.6-1.8,2.7
		C469.4-263.2,469.8-261.5,471.2-261.5"/>
	<path class="st0" d="M482.2-266.9c0.3,0.3,0.4,0.8,0.4,1.2c0,1.6-1.4,2.6-2.8,2.6c-0.6,0-1.1-0.1-1.4-0.2c-0.3,0.2-0.7,0.4-0.7,0.7
		c0,0.3,0.5,0.4,2.2,0.6s3.5,0.4,3.5,2.3c0,2.2-2.3,3.2-4.2,3.2c-2.4,0-3.5-1.2-3.5-2.3c0-1.1,0.8-1.6,1.6-2.1l0,0
		c-0.7-0.2-1.6-0.3-1.6-1.1c0-0.7,0.5-1,1.8-1.9c-0.7-0.4-1.1-1.1-1.1-1.8c0-1.7,1.4-2.7,3-2.7c0.9,0,1.2,0.2,1.7,0.3h2.5v1.2H482.2
		z M479.5-257.7c1.3,0,2.3-0.8,2.3-1.7c0-0.8-0.3-0.9-3-1.3c-0.6,0.4-1.3,0.8-1.3,1.5C477.4-258,478.7-257.7,479.5-257.7
		 M478.4-265.7c0,0.7,0.4,1.3,1.3,1.3c0.8,0,1.2-0.6,1.2-1.4c0-0.8-0.5-1.4-1.2-1.4C478.9-267.1,478.4-266.5,478.4-265.7"/>
	<path class="st0" d="M485.7-268.1h1.9v1.4l0,0c0.4-0.9,0.8-1.7,1.8-1.7c0.2,0,0.4,0,0.5,0.1l-0.3,1.8c-0.2,0-0.3-0.1-0.4-0.1
		c-0.7,0-1.2,0.5-1.6,1.4v4.9h-1.9V-268.1z"/>
	<path class="st0" d="M491.2-266.7c1.7-1.4,2.5-1.6,3.3-1.6c1.1,0,2.2,0.7,2.2,2.3c0,0.3,0,0.5,0,0.7l-0.1,2.3c0,0.4,0,0.7,0,1
		c0,0.4,0.2,0.8,0.4,0.8c0.1,0,0.2,0,0.5-0.2l0.4,1c-0.8,0.5-1.2,0.6-1.6,0.6c-0.7,0-1.2-0.4-1.3-1c-0.5,0.7-1.2,1-2,1
		c-1.4,0-2.3-0.9-2.3-2.3c0-1.3,0.8-2.4,4.1-2.9v-0.5c0-0.9-0.4-1-0.9-1c-0.4,0-0.8,0.2-2,1.1L491.2-266.7z M495-264
		c-1.8,0.4-2.3,0.8-2.3,1.6c0,0.6,0.4,0.9,1,0.9c0.4,0,0.9-0.3,1.3-0.7V-264z"/>
	<path class="st0" d="M499.3-268.1h1.8v1l0,0c0.5-0.7,1.3-1.3,2.3-1.3c0.9,0,1.6,0.4,1.9,1.3c0.6-0.8,1.5-1.3,2.5-1.3
		c1.7,0,2.1,1.3,2.1,2.3c0,1.9,0,3.9,0,5.8H508v-3.1c0-0.8,0-1.9,0-2.3c0-0.6-0.4-1-0.9-1s-1.3,0.6-1.6,1l-0.1,5.3h-1.8v-3.1
		c0-0.8,0-1.9,0-2.3c0-0.6-0.3-1-0.9-1c-0.5,0-1.3,0.6-1.6,1l-0.1,5.3h-1.8L499.3-268.1z"/>
	<path class="st0" d="M511.8-266.7c1.7-1.4,2.5-1.6,3.3-1.6c1.1,0,2.2,0.7,2.2,2.3c0,0.3,0,0.5,0,0.7l-0.1,2.3c0,0.4,0,0.7,0,1
		c0,0.4,0.2,0.8,0.4,0.8c0.1,0,0.2,0,0.5-0.2l0.4,1c-0.8,0.5-1.2,0.6-1.6,0.6c-0.7,0-1.2-0.4-1.3-1c-0.5,0.7-1.2,1-2,1
		c-1.4,0-2.3-0.9-2.3-2.3c0-1.3,0.8-2.4,4.1-2.9v-0.5c0-0.9-0.4-1-0.9-1c-0.4,0-0.8,0.2-2,1.1L511.8-266.7z M515.5-264
		c-1.8,0.4-2.3,0.8-2.3,1.6c0,0.6,0.4,0.9,1,0.9c0.4,0,0.9-0.3,1.3-0.7V-264z"/>
	<path class="st0" d="M519.8-262.1c0.6,0.4,1.2,0.7,1.9,0.7c0.6,0,1.1-0.3,1.1-0.9c0-1.6-3.6-0.4-3.6-3.5c0-1.6,1.3-2.4,2.8-2.4
		c0.9,0,1.9,0.3,2.6,0.9l-0.8,1.2c-0.4-0.3-1.1-0.6-1.7-0.6c-0.5,0-1.2,0.3-1.2,0.9c0,1.5,3.7,0.6,3.7,3.4c0,1.7-1.4,2.5-2.9,2.5
		c-0.9,0-1.8-0.3-2.6-0.8L519.8-262.1z"/>
	<path class="st0" d="M534.1-261.1L534.1-261.1c-0.4,0.6-1.2,1-1.9,1c-1.9,0-3.2-1.7-3.2-4c0-2.1,1.2-4.2,3.3-4.2
		c0.6,0,1.3,0.2,1.7,0.8l0,0v-4.4h1.9v11.7h-1.8V-261.1z M534-266c-0.2-0.3-0.7-0.7-1.3-0.7c-1,0-1.9,1-1.9,2.5s0.8,2.5,1.8,2.5
		c0.6,0,1.2-0.6,1.3-1.2v-3.1H534z"/>
	<path class="st0" d="M539.3-263.9c0,1.1,0.5,2.4,1.8,2.4c0.7,0,1.3-0.5,1.8-1l1.1,1c-0.8,0.9-1.9,1.5-3.1,1.5
		c-1.9,0-3.3-1.7-3.3-4.1c0-2.1,1.3-4.2,3.5-4.2s3.2,1.6,3.2,4.4H539.3z M542.3-265.3c0-0.8-0.4-1.7-1.4-1.7c-0.8,0-1.5,0.9-1.6,1.7
		H542.3z"/>
	<path class="st0" d="M292.8-252.3h3c2.8,0,3.8,1.3,3.8,3.3c0,2.2-1.8,3.3-3.8,3.3h-1.1v4.2h-2L292.8-252.3z M295.7-247.3
		c1.1,0,1.9-0.7,1.9-1.7c0-0.7-0.4-1.7-1.8-1.7h-1v3.3L295.7-247.3L295.7-247.3z"/>
	<path class="st0" d="M303.5-249.6c2.4,0,3.7,1.8,3.7,4.2c0,2.2-1.4,4.2-3.7,4.2c-2.5,0-3.7-1.9-3.7-4.2
		C299.8-247.5,301.2-249.6,303.5-249.6 M303.5-242.8c1.3,0,1.8-1.5,1.8-2.6c0-1.6-0.6-2.7-1.8-2.7c-1.4,0-1.8,1.6-1.8,2.7
		C301.7-244.4,302.1-242.8,303.5-242.8 M303.7-252.6h2.1l-2.1,2.2h-1.3L303.7-252.6z"/>
	<path class="st0" d="M309-243.3c0.6,0.4,1.2,0.7,1.9,0.7c0.6,0,1.1-0.3,1.1-0.9c0-1.6-3.6-0.4-3.6-3.5c0-1.6,1.3-2.4,2.8-2.4
		c0.9,0,1.9,0.3,2.6,0.9l-0.8,1.2c-0.4-0.3-1.1-0.6-1.7-0.6c-0.5,0-1.2,0.3-1.2,0.9c0,1.5,3.7,0.6,3.7,3.4c0,1.7-1.4,2.5-2.9,2.5
		c-0.9,0-1.8-0.3-2.6-0.8L309-243.3z"/>
	<rect x="315.4" y="-246.3" class="st0" width="4" height="1.7"/>
	<path class="st0" d="M328.4-246.9h2l-0.1,4.9c-1.2,0.5-2.4,0.8-3.5,0.8c-3.2,0-5.6-2.3-5.6-5.6c0-3.2,2.5-5.6,5.6-5.6
		c1.4,0,2.5,0.3,3.4,0.8l-0.7,1.5c-0.8-0.4-1.6-0.7-2.7-0.7c-1.8,0-3.6,1.5-3.6,4c0,2.4,1.4,4,3.6,4c0.6,0,1.1-0.1,1.5-0.3
		L328.4-246.9z"/>
	<path class="st0" d="M332.4-249.3h1.9v1.4l0,0c0.4-0.9,0.8-1.7,1.8-1.7c0.2,0,0.4,0,0.5,0.1l-0.3,1.8c-0.2,0-0.3-0.1-0.4-0.1
		c-0.7,0-1.2,0.5-1.6,1.4v4.9h-1.9V-249.3z"/>
	<path class="st0" d="M337.3-248c1.7-1.4,2.5-1.6,3.3-1.6c1.1,0,2.2,0.7,2.2,2.3c0,0.3,0,0.5,0,0.7l-0.1,2.3c0,0.4,0,0.7,0,1
		c0,0.4,0.2,0.7,0.4,0.7c0.1,0,0.2,0,0.5-0.2l0.4,1c-0.8,0.5-1.2,0.6-1.6,0.6c-0.7,0-1.2-0.4-1.3-1c-0.5,0.7-1.2,1-2,1
		c-1.4,0-2.3-0.9-2.3-2.3c0-1.3,0.8-2.4,4.1-2.9v-0.5c0-0.9-0.4-1-0.9-1c-0.4,0-0.8,0.2-2,1.1L337.3-248z M341-245.2
		c-1.8,0.4-2.3,0.8-2.3,1.6c0,0.6,0.4,0.9,1,0.9c0.4,0,0.9-0.2,1.3-0.7V-245.2z"/>
	<path class="st0" d="M349.7-242.3L349.7-242.3c-0.4,0.6-1.2,1-1.9,1c-1.9,0-3.2-1.7-3.2-4c0-2.1,1.2-4.2,3.3-4.2
		c0.6,0,1.3,0.2,1.7,0.7l0,0v-4.4h1.9v11.7h-1.8V-242.3z M349.6-247.2c-0.2-0.3-0.7-0.7-1.3-0.7c-1,0-1.9,1-1.9,2.5s0.8,2.5,1.8,2.5
		c0.6,0,1.2-0.6,1.3-1.2v-3.1H349.6z"/>
	<path class="st0" d="M359.9-241.5H358v-1l0,0c-0.6,0.7-1.4,1.2-2.4,1.2c-1.7,0-2.1-1.1-2.1-2.7c0-0.5,0-1,0-1.5v-4h1.9v2
		c0,1.1,0,2.3,0,3.1c0,0.9,0.2,1.3,1,1.3c0.6,0,1.2-0.6,1.7-1v-5.4h1.9L359.9-241.5z"/>
	<path class="st0" d="M361.8-248c1.7-1.4,2.5-1.6,3.3-1.6c1.1,0,2.2,0.7,2.2,2.3c0,0.3,0,0.5,0,0.7l-0.1,2.3c0,0.4,0,0.7,0,1
		c0,0.4,0.2,0.7,0.4,0.7c0.1,0,0.2,0,0.5-0.2l0.4,1c-0.8,0.5-1.2,0.6-1.6,0.6c-0.7,0-1.2-0.4-1.3-1c-0.5,0.7-1.2,1-2,1
		c-1.4,0-2.3-0.9-2.3-2.3c0-1.3,0.8-2.4,4.1-2.9v-0.5c0-0.9-0.4-1-0.9-1c-0.4,0-0.8,0.2-2,1.1L361.8-248z M365.5-245.2
		c-1.8,0.4-2.3,0.8-2.3,1.6c0,0.6,0.4,0.9,1,0.9c0.4,0,0.9-0.2,1.3-0.7V-245.2z"/>
	<path class="st0" d="M372.1-240.5c0.1,0,0.2-0.1,0.3-0.1c0.7,0,1.4,0.4,1.4,1.2c0,1-0.9,1.5-1.8,1.5c-0.5,0-1.1-0.2-1.6-0.4
		l0.3-0.6c0.3,0.1,0.6,0.3,1,0.3s0.9-0.1,0.9-0.7c0-0.4-0.4-0.6-0.7-0.6c-0.2,0-0.4,0-0.5,0.1l-0.3-0.3l0.8-1.2
		c-1.7-0.4-2.6-2.3-2.6-4c0-2.2,1.3-4.3,3.6-4.3c1.1,0,2,0.5,2.7,1.3l-1.1,1c-0.5-0.4-0.9-0.7-1.6-0.7c-1.2,0-1.7,1.3-1.7,2.5
		c0,1.7,0.7,2.6,1.6,2.6c0.7,0,1.1-0.4,1.6-0.9l1,1c-0.7,0.9-1.6,1.5-2.9,1.5L372.1-240.5L372.1-240.5z"/>
	<path class="st0" d="M376.2-248c1.7-1.4,2.5-1.6,3.3-1.6c1.1,0,2.2,0.7,2.2,2.3c0,0.3,0,0.5,0,0.7l-0.1,2.3c0,0.4,0,0.7,0,1
		c0,0.4,0.2,0.7,0.4,0.7c0.1,0,0.2,0,0.5-0.2l0.4,1c-0.8,0.5-1.2,0.6-1.6,0.6c-0.7,0-1.2-0.4-1.3-1c-0.5,0.7-1.2,1-2,1
		c-1.4,0-2.3-0.9-2.3-2.3c0-1.3,0.8-2.4,4.1-2.9v-0.5c0-0.9-0.4-1-0.9-1c-0.4,0-0.8,0.2-2,1.1L376.2-248z M376.5-250.5
		c0.2-1,0.6-1.8,1.7-1.8c0.3,0,0.7,0.2,1.1,0.3s0.8,0.3,1,0.3c0.4,0,0.6-0.4,0.7-0.7h0.8c-0.2,1-0.6,1.8-1.7,1.8
		c-0.3,0-0.7-0.2-1.1-0.3c-0.4-0.1-0.8-0.3-1-0.3c-0.4,0-0.6,0.4-0.7,0.7H376.5z M379.9-245.2c-1.8,0.4-2.3,0.8-2.3,1.6
		c0,0.6,0.4,0.9,1,0.9c0.4,0,0.9-0.2,1.3-0.7V-245.2z"/>
	<path class="st0" d="M387.2-249.6c2.4,0,3.7,1.8,3.7,4.2c0,2.2-1.4,4.2-3.7,4.2c-2.5,0-3.7-1.9-3.7-4.2
		C383.5-247.5,384.9-249.6,387.2-249.6 M387.2-242.8c1.3,0,1.8-1.5,1.8-2.6c0-1.6-0.6-2.7-1.8-2.7c-1.4,0-1.8,1.6-1.8,2.7
		C385.4-244.4,385.8-242.8,387.2-242.8"/>
	<path class="st0" d="M399.2-245.2c0,1.1,0.5,2.4,1.8,2.4c0.7,0,1.3-0.5,1.8-1l1.1,1c-0.8,0.9-1.9,1.5-3.1,1.5
		c-1.9,0-3.3-1.7-3.3-4.1c0-2.1,1.3-4.2,3.5-4.2s3.2,1.6,3.2,4.4C404.2-245.2,399.2-245.2,399.2-245.2z M402.3-246.5
		c0-0.8-0.4-1.7-1.4-1.7c-0.8,0-1.5,0.9-1.6,1.7H402.3z"/>
	<path class="st0" d="M405.5-249.3h1.8v1l0,0c0.5-0.8,1.3-1.3,2.3-1.3c0.9,0,1.6,0.4,1.9,1.3c0.6-0.8,1.5-1.3,2.5-1.3
		c1.7,0,2.1,1.3,2.1,2.3c0,1.9,0,3.9,0,5.8h-1.9v-3.1c0-0.8,0-1.9,0-2.3c0-0.6-0.4-1-0.9-1s-1.3,0.6-1.6,1l-0.1,5.3h-1.8v-3.1
		c0-0.8,0-1.9,0-2.3c0-0.6-0.3-1-0.9-1c-0.5,0-1.3,0.6-1.6,1l-0.1,5.3h-1.8L405.5-249.3z"/>
	<path class="st0" d="M431.4-242.3c-1,0.7-2.2,1-3.3,1c-3.1,0-5.5-2.4-5.5-5.6c0-3.3,2.3-5.7,5.4-5.7c1.2,0,2.5,0.4,3.4,1.3
		l-0.9,1.4c-0.6-0.6-1.7-0.9-2.5-0.9c-2.1,0-3.4,1.7-3.4,3.8s1.4,4,3.3,4c1.3,0,2-0.3,2.6-0.7L431.4-242.3z"/>
	<path class="st0" d="M432.9-249.3h1.9l-0.1,7.9h-1.9L432.9-249.3z M432.9-252.3h1.9v1.8h-1.9V-252.3z"/>
	<path class="st0" d="M438.3-245.2c0,1.1,0.5,2.4,1.8,2.4c0.7,0,1.3-0.5,1.8-1l1.1,1c-0.8,0.9-1.9,1.5-3.1,1.5
		c-1.9,0-3.3-1.7-3.3-4.1c0-2.1,1.3-4.2,3.5-4.2s3.2,1.6,3.2,4.4C443.3-245.2,438.3-245.2,438.3-245.2z M438.9-252.6h1.7l1.7,2.3
		h-1.4l-1.1-1.4l-1.1,1.4h-1.4L438.9-252.6z M441.4-246.5c0-0.8-0.4-1.7-1.4-1.7c-0.8,0-1.5,0.9-1.6,1.7H441.4z"/>
	<path class="st0" d="M444.6-249.3h1.8v1l0,0c0.6-0.7,1.5-1.2,2.5-1.2c1.6,0,2,1.2,2,2.4c0,0.8,0,1.3,0,1.8v4H449v-2
		c0-1.2,0-2.2,0-3.1c0-1-0.2-1.3-1-1.3c-0.6,0-1.2,0.6-1.7,1v5.4h-1.9L444.6-249.3z"/>
	<path class="st0" d="M458.7-242.7c-0.7,0.9-1.6,1.5-2.9,1.5c-2.2,0-3.3-2.1-3.3-4c0-2.2,1.3-4.3,3.6-4.3c1.1,0,2,0.5,2.7,1.3l-1,1
		c-0.5-0.4-0.9-0.7-1.6-0.7c-1.2,0-1.7,1.3-1.7,2.5c0,1.7,0.7,2.6,1.6,2.6c0.7,0,1.1-0.4,1.6-0.9L458.7-242.7z"/>
	<path class="st0" d="M460-249.3h1.9l-0.1,7.9h-1.9L460-249.3z M460-252.3h1.9v1.8H460V-252.3z"/>
	<path class="st0" d="M463.8-248c1.7-1.4,2.5-1.6,3.3-1.6c1.1,0,2.2,0.7,2.2,2.3c0,0.3,0,0.5,0,0.7l-0.1,2.3c0,0.4,0,0.7,0,1
		c0,0.4,0.2,0.7,0.4,0.7c0.1,0,0.2,0,0.5-0.2l0.4,1c-0.8,0.5-1.2,0.6-1.6,0.6c-0.7,0-1.2-0.4-1.3-1c-0.5,0.7-1.2,1-2,1
		c-1.4,0-2.3-0.9-2.3-2.3c0-1.3,0.8-2.4,4.1-2.9v-0.5c0-0.9-0.4-1-0.9-1c-0.4,0-0.8,0.2-2,1.1L463.8-248z M467.5-245.2
		c-1.8,0.4-2.3,0.8-2.3,1.6c0,0.6,0.4,0.9,1,0.9c0.4,0,0.9-0.2,1.3-0.7V-245.2z"/>
	<path class="st0" d="M471.9-243.3c0.6,0.4,1.2,0.7,1.9,0.7c0.6,0,1.1-0.3,1.1-0.9c0-1.6-3.6-0.4-3.6-3.5c0-1.6,1.3-2.4,2.8-2.4
		c0.9,0,1.9,0.3,2.6,0.9l-0.8,1.2c-0.4-0.3-1.1-0.6-1.7-0.6c-0.5,0-1.2,0.3-1.2,0.9c0,1.5,3.7,0.6,3.7,3.4c0,1.7-1.4,2.5-2.9,2.5
		c-0.9,0-1.8-0.3-2.6-0.8L471.9-243.3z"/>
	<path class="st0" d="M492.1-242.3c-1,0.7-2.2,1-3.3,1c-3.1,0-5.5-2.4-5.5-5.6c0-3.3,2.3-5.7,5.4-5.7c1.2,0,2.5,0.4,3.4,1.3
		l-0.9,1.4c-0.6-0.6-1.7-0.9-2.5-0.9c-2.1,0-3.4,1.7-3.4,3.8s1.4,4,3.3,4c1.3,0,2-0.3,2.6-0.7L492.1-242.3z"/>
	<path class="st0" d="M496.5-249.6c2.4,0,3.7,1.8,3.7,4.2c0,2.2-1.4,4.2-3.7,4.2c-2.5,0-3.7-1.9-3.7-4.2
		C492.9-247.5,494.3-249.6,496.5-249.6 M496.5-242.8c1.3,0,1.8-1.5,1.8-2.6c0-1.6-0.6-2.7-1.8-2.7c-1.4,0-1.8,1.6-1.8,2.7
		C494.7-244.4,495.2-242.8,496.5-242.8"/>
	<path class="st0" d="M501.8-249.3h1.8v1l0,0c0.6-0.7,1.5-1.2,2.5-1.2c1.6,0,2,1.2,2,2.4c0,0.8,0,1.3,0,1.8v4h-1.9v-2
		c0-1.2,0-2.2,0-3.1c0-1-0.2-1.3-1-1.3c-0.6,0-1.2,0.6-1.7,1v5.4h-1.9L501.8-249.3z"/>
	<path class="st0" d="M514.4-241.9l-0.6,0.3c-0.5,0.3-0.9,0.3-1.2,0.3c-1.3,0-2.1-0.7-2.1-2.4c0-0.4,0-1.2,0-1.9v-2.4h-1v-1.4h1
		l0.1-2.8h1.9l-0.1,2.8h1.7v1.4h-1.7v2.3c0,0.8,0,1.5,0,2.1c0,0.5,0.2,0.8,0.6,0.8c0.3,0,0.6-0.2,0.9-0.4L514.4-241.9z"/>
	<path class="st0" d="M515.4-248c1.7-1.4,2.5-1.6,3.3-1.6c1.1,0,2.2,0.7,2.2,2.3c0,0.3,0,0.5,0,0.7l-0.1,2.3c0,0.4,0,0.7,0,1
		c0,0.4,0.2,0.8,0.4,0.8c0.1,0,0.2,0,0.5-0.2l0.4,1c-0.8,0.5-1.2,0.6-1.6,0.6c-0.7,0-1.2-0.4-1.3-1c-0.5,0.7-1.2,1-2,1
		c-1.4,0-2.3-0.9-2.3-2.3c0-1.3,0.8-2.4,4.1-2.9v-0.5c0-0.9-0.4-1-0.9-1c-0.4,0-0.8,0.2-2,1.1L515.4-248z M519.1-245.2
		c-1.8,0.4-2.3,0.8-2.3,1.6c0,0.6,0.4,0.9,1,0.9c0.4,0,0.9-0.3,1.3-0.7V-245.2z M518.5-252.6h2.1l-2.1,2.2h-1.3L518.5-252.6z"/>
	<path class="st0" d="M523.3-253.2h1.9l-0.1,4.8l0,0c0.3-0.8,1-1.2,2-1.2c1.9,0,3.1,1.8,3.1,3.9c0,2-1.2,4.4-3.4,4.4
		c-0.7,0-1.4-0.2-1.8-0.9l0,0v0.7h-1.8L523.3-253.2z M525-243.5c0.2,0.3,0.7,0.6,1.2,0.6c1.4,0,2-1.3,2-2.6c0-1.2-0.5-2.5-1.7-2.5
		c-0.7,0-1.1,0.4-1.5,1V-243.5z"/>
	<path class="st0" d="M533.1-245.2c0,1.1,0.5,2.4,1.8,2.4c0.7,0,1.3-0.5,1.8-1l1.1,1c-0.8,0.9-1.9,1.5-3.1,1.5
		c-1.9,0-3.3-1.7-3.3-4.1c0-2.1,1.3-4.2,3.5-4.2s3.2,1.6,3.2,4.4C538.1-245.2,533.1-245.2,533.1-245.2z M536.2-246.5
		c0-0.8-0.4-1.7-1.4-1.7c-0.8,0-1.5,0.9-1.6,1.7H536.2z"/>
	<path class="st0" d="M539.6-249.3h1.9l-0.1,7.9h-1.9L539.6-249.3z M539.6-252.3h1.9v1.8h-1.9V-252.3z"/>
	<path class="st0" d="M543.9-243.3c0.6,0.4,1.2,0.7,1.9,0.7c0.6,0,1.1-0.3,1.1-0.9c0-1.6-3.6-0.4-3.6-3.5c0-1.6,1.3-2.4,2.8-2.4
		c0.9,0,1.9,0.3,2.6,0.9l-0.8,1.2c-0.4-0.3-1.1-0.6-1.7-0.6c-0.5,0-1.2,0.3-1.2,0.9c0,1.5,3.7,0.6,3.7,3.4c0,1.7-1.4,2.5-2.9,2.5
		c-0.9,0-1.8-0.3-2.6-0.8L543.9-243.3z"/>
	<rect x="273.6" y="-273.4" class="st0" width="2.5" height="32.1"/>
</g>
<g>
	<g>
		<path class="st0" d="M86.5,47.3L86.5,47.3L86.5,47.3l-0.1,0.1v6.8c-0.5-0.5-1-1.3-1.4-2.1c-0.4-0.6-0.7-1.2-1.1-1.8l0,0
			c-1.6-2.2-2.4-3.2-5.2-3.3c-0.1,0-0.2,0-0.3,0l-0.1,0V47v0v9.9v0V57h0.1h2.3h0.1V57v0v-7.3c0.5,0.5,1,1.3,1.4,2.1
			c0.4,0.6,0.7,1.2,1.1,1.8l0,0c1.6,2.2,2.4,3.5,5.2,3.7c0.1,0,0.2,0,0.3,0l0.1,0v-0.1v0v-9.7v0v-0.1h-0.1H86.5z"/>
		<path class="st0" d="M75.4,54.6c-0.2,0-0.4-0.2-0.4-0.4l0-4.9c0-0.7,0-1.4,0.1-2.1l0,0h-0.1h-1.1c-0.3,0-0.6,0-0.9-0.1
			c-1-0.3-2.1-0.4-3-0.4c-1.8,0-3.1,0.3-4,1.2c-0.9,0.9-1.5,2.4-1.5,4.1c0,1.5,0.5,2.8,1.3,3.7c1.3,1.4,3.1,1.4,4.6,1.4
			c0.6,0,2.2-0.4,2.6-1c0.1,0.6,0.1,0.8,1.5,0.8H76v-2.4H75.4z M70.4,55.2c-2.2,0.1-3.6-0.8-3.6-3.2c0-1.6,0.5-3.4,3-3.4
			c1.2,0,2.4,0.4,2.9,0.6l0,4.7C72.4,54.5,71.8,55.1,70.4,55.2"/>
		<path class="st0" d="M96.2,46.7c-2.8,0-5.3,1.2-5.3,5.2c0,3.6,2.7,5.1,5.2,5.2h0.1c2.6-0.1,5.3-1.3,5.2-5.2
			C101.5,48.3,99,46.7,96.2,46.7 M96.2,55.4L96.2,55.4c-1.6-0.1-3.2-1.1-3.2-3.4c0-2.7,1.5-3.5,3.2-3.5c0,0,0,0,0,0h0c0,0,0,0,0,0
			c1.7,0,3.2,1,3.2,3.5C99.4,54.5,97.8,55.3,96.2,55.4"/>
		<g>
			<path class="st0" d="M102.7,55.7l1.3-1.6c1.4,0.8,2.9,1.3,4.2,1.3c1.3,0,2-0.4,2-1.1v0c0-0.8-1.4-1.1-2.9-1.4c-1.9-0.4-4-1-4-3v0
				c0-1.9,2-3.1,4.6-3.1c1.6,0,3.3,0.4,4.7,1.2l-1.2,1.7c-1.2-0.6-2.5-1-3.6-1c-1.1,0-1.8,0.4-1.8,1v0c0,0.8,1.4,1.1,2.9,1.5
				c1.9,0.5,4,1.1,4,3v0c0,2.2-2.1,3.2-4.8,3.2C106.3,57.3,104.3,56.7,102.7,55.7z"/>
		</g>
	</g>
	<g>
		<g>
			<path class="st0" d="M69.2,15L69,40.8c2.9-0.6,5.8-1,8.7-1.3l0.2-33h-7.5l-12.3,9l4.5,5.1L69.2,15z"/>
			<path class="st0" d="M88.8,38.9c2,0,4,0.1,6,0.2c-1.8-2.8-1.9-8-1.9-12.1c0-5.4,0.3-15.4,5.3-15.4c4.9,0,5.1,9,5.1,15
				c0,4.4-0.2,10.4-2.3,13.1c2.6,0.3,5.3,0.7,7.8,1.3c2.4-4.3,3.2-10.2,3.2-15.7c0-8.9-3.4-19.8-13.8-19.8
				c-11,0-14.1,11.8-14.1,21.3c0,4.1,0.6,8.5,2.2,12.2C87.1,38.9,88,38.9,88.8,38.9z"/>
		</g>
	</g>
	<g>
		<path class="st0" d="M349.4,9.1L349.4,9.1v16.6c-2.1-2.1-4-6.3-6.3-9.5c-3.7-5.3-5.2-7.4-11.9-7.8c-0.2,0-0.4,0-0.7,0v0.1v23.5V32
			h5v-0.1V14.1c2.1,2.1,4,6.3,6.3,9.5c3.7,5.3,5.2,8.4,11.9,8.8c0.2,0,0.4,0,0.7,0v-0.1V9.2V9.1H349.4z"/>
		<path class="st0" d="M314.5,7.7c-6.5,0-12.5,2.8-12.4,12.3c0.1,8.4,6.3,11.9,12.3,12.2h0.2c6-0.3,12.4-3.1,12.3-12.2
			C326.9,11.4,321.1,7.7,314.5,7.7 M314.6,28.1h-0.2c-3.6-0.2-7.4-2.5-7.4-8.1c0-6.3,3.5-8.2,7.5-8.2c0,0,0,0,0,0h0.1c0,0,0,0-0.1,0
			c3.9,0,7.4,2.4,7.5,8.2C322.1,26,318.2,27.9,314.6,28.1"/>
		<path class="st0" d="M364.1,27.4V8.4h2.8V4.3h-2.8v-4h-4.4v4v0v23.2v0c0,2.5,2,4.4,4.4,4.4h0h3.7v-4.1h-3.3
			C364.3,27.9,364.1,27.6,364.1,27.4"/>
		<path class="st0" d="M299.7,26.6c-1.1,0.5-3.6,1.5-6.5,1.5c-5.7,0-7.2-4-7.2-8.2c0-6.3,3.1-7.8,7.2-8c2.9-0.2,5.4,0.6,6.5,1V8.3
			c-7-1.5-18.6-0.9-18.8,11.6c-0.2,12.6,10.5,13.5,18.8,11.5V26.6z"/>
		<path class="st0" d="M244.3,9.1h-0.2v0.2v0.1v15.9c-1.1-1.2-2.2-3.1-3.4-5c-0.8-1.4-1.7-2.8-2.6-4.1l0-0.1
			c-3.7-5.3-5.6-7.4-12.3-7.8c-0.2,0-0.5,0-0.7,0l-0.2,0v0.2v0.1v23.3v0.1V32h0.2h5.3h0.2v-0.2v-0.1V14.5c1.1,1.2,2.2,3.1,3.4,5
			c0.8,1.4,1.7,2.8,2.6,4.1l0,0.1c3.7,5.3,5.6,8.2,12.3,8.6c0.2,0,0.5,0,0.7,0l0.2,0v-0.2v-0.1V9.4V9.3V9.1h-0.2H244.3z"/>
		<path class="st0" d="M273.3,9.7c-2.9-2.1-6.5-2.2-9.1-2.2c-2.2,0-4.5,0.3-6.6,0.9c-3.2,0.9-4.4,1.1-4.4,1.1l-0.1,0v0.1v20.4v14.7
			V45h0.2h0.1c2.8,0,5.5-2.1,5.5-4.6v-8.7c2.3,0.5,4.4,0.8,6.5,0.8c4.1,0,7.3-0.7,9.4-2.9c2.1-2.1,3.5-5.6,3.4-9.6
			C278,15.5,276.2,11.8,273.3,9.7 M272.4,19.9c0,3.7-1.2,8-7.1,8c-3,0-5.5-1-6.5-1.5v-7.8v-5.5c1.1-0.4,3.2-1,5.7-1
			c0.3,0,0.6,0,0.8,0C269,12.3,272.4,13.4,272.4,19.9"/>
		<path class="st0" d="M220.6,26.2c-0.4,0-0.9-0.5-0.9-0.9l0-11.5c0-1.6,0-3.2,0.1-4.8l0,0h-0.3h-2.7c-0.7,0-1.5-0.1-2.2-0.3
			c-2.5-0.6-4.9-0.9-7.1-0.9c-4.1,0-7.3,0.7-9.4,2.9c-2.1,2.1-3.5,5.6-3.4,9.6c0,3.5,1.2,6.6,3.1,8.7c3.1,3.4,7.4,3.4,10.8,3.4
			c1.3,0,5.1-0.8,6.1-2.4c0.1,1.5,0.3,2,3.5,2h3.8v-5.8H220.6z M208.7,27.7c-5.2,0.3-8.4-2-8.4-7.4c0-3.7,1.2-8,7.1-8
			c2.9,0,5.7,0.9,6.9,1.5l0,11C213.6,25.9,212.2,27.5,208.7,27.7"/>
		<path class="st0" d="M196.2,56.8l-1.2-0.4l2.7-7.1h1.2l2.5,7.1l-1.3,0.4l-0.7-2.1H197L196.2,56.8z M198.3,50.8L198.3,50.8
			l-0.9,2.9h1.7L198.3,50.8z"/>
		<path class="st0" d="M202.5,55.4c0.4,0.2,0.8,0.4,1.3,0.4c0.4,0,0.7-0.2,0.7-0.6c0-1.1-2.4-0.2-2.4-2.4c0-1.1,0.9-1.6,1.9-1.6
			c0.6,0,1.3,0.2,1.8,0.6l-0.5,0.8c-0.3-0.2-0.8-0.4-1.1-0.4c-0.4,0-0.8,0.2-0.8,0.6c0,1,2.5,0.4,2.5,2.3c0,1.1-0.9,1.7-2,1.7
			c-0.6,0-1.2-0.2-1.8-0.5L202.5,55.4z"/>
		<path class="st0" d="M207,55.4c0.4,0.2,0.8,0.4,1.3,0.4c0.4,0,0.7-0.2,0.7-0.6c0-1.1-2.4-0.2-2.4-2.4c0-1.1,0.9-1.6,1.9-1.6
			c0.6,0,1.3,0.2,1.8,0.6l-0.5,0.8c-0.3-0.2-0.8-0.4-1.1-0.4c-0.4,0-0.8,0.2-0.8,0.6c0,1,2.5,0.4,2.5,2.3c0,1.1-0.9,1.7-2,1.7
			c-0.6,0-1.2-0.2-1.8-0.5L207,55.4z"/>
		<path class="st0" d="M213.6,51.2c1.6,0,2.5,1.2,2.5,2.8c0,1.5-0.9,2.8-2.5,2.8c-1.7,0-2.5-1.3-2.5-2.8
			C211.1,52.6,212.1,51.2,213.6,51.2 M213.6,55.8c0.9,0,1.2-1,1.2-1.7c0-1.1-0.4-1.8-1.2-1.8c-0.9,0-1.2,1.1-1.2,1.8
			C212.4,54.7,212.7,55.8,213.6,55.8"/>
		<path class="st0" d="M221,55.8c-0.5,0.6-1.1,1-1.9,1c-1.5,0-2.3-1.4-2.3-2.7c0-1.5,0.9-2.9,2.4-2.9c0.8,0,1.3,0.4,1.8,0.9
			l-0.7,0.7c-0.3-0.3-0.6-0.5-1-0.5c-0.8,0-1.2,0.9-1.2,1.7c0,1.1,0.5,1.7,1.1,1.7c0.5,0,0.8-0.3,1.1-0.6L221,55.8z"/>
		<path class="st0" d="M221.8,51.4h1.3l-0.1,5.3h-1.3L221.8,51.4z M221.8,49.4h1.3l0,1.2h-1.3L221.8,49.4z"/>
		<path class="st0" d="M224.4,52.3c1.1-1,1.7-1.1,2.3-1.1c0.8,0,1.5,0.5,1.5,1.5c0,0.2,0,0.3,0,0.4l0,1.5c0,0.2,0,0.4,0,0.7
			c0,0.3,0.1,0.5,0.3,0.5c0.1,0,0.2,0,0.4-0.1l0.3,0.6c-0.5,0.4-0.8,0.4-1.1,0.4c-0.4,0-0.8-0.3-0.9-0.7c-0.4,0.4-0.8,0.7-1.3,0.7
			c-0.9,0-1.6-0.6-1.6-1.6c0-0.9,0.5-1.6,2.8-2V53c0-0.6-0.2-0.7-0.6-0.7c-0.3,0-0.6,0.1-1.3,0.7L224.4,52.3z M227,54.1
			c-1.2,0.3-1.6,0.6-1.6,1.1c0,0.4,0.3,0.6,0.7,0.6c0.3,0,0.6-0.2,0.9-0.5L227,54.1z"/>
		<path class="st0" d="M231.4,57.3c0.1,0,0.1,0,0.2,0c0.5,0,0.9,0.3,0.9,0.8c0,0.7-0.6,1-1.2,1c-0.4,0-0.7-0.1-1.1-0.3l0.2-0.4
			c0.2,0.1,0.4,0.2,0.7,0.2c0.3,0,0.6-0.1,0.6-0.5c0-0.3-0.2-0.4-0.5-0.4c-0.1,0-0.3,0-0.4,0.1l-0.2-0.2l0.5-0.8
			c-1.2-0.3-1.8-1.5-1.8-2.7c0-1.5,0.9-2.9,2.4-2.9c0.8,0,1.3,0.4,1.8,0.9l-0.7,0.7c-0.3-0.3-0.6-0.5-1-0.5c-0.8,0-1.2,0.9-1.2,1.7
			c0,1.1,0.5,1.7,1.1,1.7c0.5,0,0.8-0.3,1.1-0.6l0.7,0.7c-0.5,0.6-1.1,1-1.9,1L231.4,57.3L231.4,57.3z"/>
		<path class="st0" d="M234.5,52.3c1.1-1,1.7-1.1,2.3-1.1c0.8,0,1.5,0.5,1.5,1.5c0,0.2,0,0.3,0,0.4l0,1.5c0,0.2,0,0.4,0,0.7
			c0,0.3,0.1,0.5,0.3,0.5c0.1,0,0.2,0,0.4-0.1l0.3,0.6c-0.5,0.4-0.8,0.4-1.1,0.4c-0.4,0-0.8-0.3-0.9-0.7c-0.4,0.4-0.8,0.7-1.3,0.7
			c-0.9,0-1.6-0.6-1.6-1.6c0-0.9,0.5-1.6,2.8-2V53c0-0.6-0.2-0.7-0.6-0.7c-0.3,0-0.6,0.1-1.3,0.7L234.5,52.3z M234.7,50.6
			c0.1-0.7,0.4-1.2,1.2-1.2c0.2,0,0.5,0.1,0.8,0.2c0.3,0.1,0.5,0.2,0.7,0.2c0.3,0,0.4-0.2,0.4-0.5h0.6c-0.1,0.7-0.4,1.2-1.2,1.2
			c-0.2,0-0.5-0.1-0.8-0.2c-0.3-0.1-0.5-0.2-0.7-0.2c-0.3,0-0.4,0.2-0.4,0.5H234.7z M237,54.1c-1.2,0.3-1.6,0.6-1.6,1.1
			c0,0.4,0.3,0.6,0.7,0.6c0.3,0,0.6-0.2,0.9-0.5L237,54.1z"/>
		<path class="st0" d="M241.9,51.2c1.6,0,2.5,1.2,2.5,2.8c0,1.5-0.9,2.8-2.5,2.8c-1.7,0-2.5-1.3-2.5-2.8
			C239.5,52.6,240.4,51.2,241.9,51.2 M241.9,55.8c0.9,0,1.2-1,1.2-1.7c0-1.1-0.4-1.8-1.2-1.8c-0.9,0-1.2,1.1-1.2,1.8
			C240.7,54.7,241,55.8,241.9,55.8"/>
		<polygon class="st0" points="248.1,49.6 249.4,49.2 252.7,54.8 252.7,54.8 252.6,49.4 254,49.4 253.9,56.5 252.6,56.8 249.3,51.3 
			249.3,51.3 249.4,56.7 248.1,56.7 		"/>
		<path class="st0" d="M255.3,52.3c1.1-1,1.7-1.1,2.3-1.1c0.8,0,1.5,0.5,1.5,1.5c0,0.2,0,0.3,0,0.4l0,1.5c0,0.2,0,0.4,0,0.7
			c0,0.3,0.1,0.5,0.3,0.5c0.1,0,0.2,0,0.4-0.1l0.3,0.6c-0.5,0.4-0.8,0.4-1.1,0.4c-0.4,0-0.8-0.3-0.9-0.7c-0.4,0.4-0.8,0.7-1.3,0.7
			c-0.9,0-1.6-0.6-1.6-1.6c0-0.9,0.5-1.6,2.8-2V53c0-0.6-0.2-0.7-0.6-0.7c-0.3,0-0.6,0.1-1.3,0.7L255.3,52.3z M257.8,54.1
			c-1.2,0.3-1.6,0.6-1.6,1.1c0,0.4,0.3,0.6,0.7,0.6c0.3,0,0.6-0.2,0.9-0.5L257.8,54.1z"/>
		<path class="st0" d="M264.4,55.8c-0.5,0.6-1.1,1-1.9,1c-1.5,0-2.3-1.4-2.3-2.7c0-1.5,0.9-2.9,2.4-2.9c0.8,0,1.3,0.4,1.8,0.9
			l-0.7,0.7c-0.3-0.3-0.6-0.5-1-0.5c-0.8,0-1.2,0.9-1.2,1.7c0,1.1,0.5,1.7,1.1,1.7c0.5,0,0.8-0.3,1.1-0.6L264.4,55.8z"/>
		<path class="st0" d="M265.3,51.4h1.3l-0.1,5.3h-1.3L265.3,51.4z M265.3,49.4h1.3l0,1.2h-1.3L265.3,49.4z"/>
		<path class="st0" d="M270.2,51.2c1.6,0,2.5,1.2,2.5,2.8c0,1.5-0.9,2.8-2.5,2.8c-1.7,0-2.5-1.3-2.5-2.8
			C267.7,52.6,268.6,51.2,270.2,51.2 M270.2,55.8c0.9,0,1.2-1,1.2-1.7c0-1.1-0.4-1.8-1.2-1.8c-0.9,0-1.2,1.1-1.2,1.8
			C268.9,54.7,269.2,55.8,270.2,55.8"/>
		<path class="st0" d="M273.8,51.4h1.2V52h0c0.4-0.5,1-0.8,1.7-0.8c1.1,0,1.4,0.8,1.4,1.6c0,0.5,0,0.9,0,1.2l0,2.7h-1.3l0-1.3
			c0-0.8,0-1.5,0-2.1c0-0.7-0.2-0.9-0.7-0.9c-0.4,0-0.8,0.4-1.1,0.7l0,3.6h-1.3L273.8,51.4z"/>
		<path class="st0" d="M279.3,52.3c1.1-1,1.7-1.1,2.3-1.1c0.8,0,1.5,0.5,1.5,1.5c0,0.2,0,0.3,0,0.4l0,1.5c0,0.2,0,0.4,0,0.7
			c0,0.3,0.1,0.5,0.3,0.5c0.1,0,0.2,0,0.4-0.1l0.3,0.6c-0.5,0.4-0.8,0.4-1.1,0.4c-0.4,0-0.8-0.3-0.9-0.7c-0.4,0.4-0.8,0.7-1.3,0.7
			c-0.9,0-1.6-0.6-1.6-1.6c0-0.9,0.5-1.6,2.8-2V53c0-0.6-0.2-0.7-0.6-0.7c-0.3,0-0.6,0.1-1.3,0.7L279.3,52.3z M281.8,54.1
			c-1.2,0.3-1.6,0.6-1.6,1.1c0,0.4,0.3,0.6,0.7,0.6c0.3,0,0.6-0.2,0.9-0.5L281.8,54.1z"/>
		<polygon class="st0" points="284.7,48.8 286,48.8 285.9,56.7 284.7,56.7 		"/>
		<path class="st0" d="M293.5,56.1L293.5,56.1c-0.3,0.4-0.8,0.7-1.3,0.7c-1.3,0-2.2-1.1-2.2-2.7c0-1.4,0.8-2.9,2.3-2.9
			c0.4,0,0.9,0.1,1.2,0.5h0l0-3h1.3l0,7.9h-1.2V56.1z M293.4,52.8c-0.2-0.2-0.4-0.5-0.9-0.5c-0.7,0-1.3,0.7-1.3,1.7
			c0,1,0.5,1.7,1.2,1.7c0.4,0,0.8-0.4,0.9-0.8V52.8z"/>
		<path class="st0" d="M297,54.2c0,0.7,0.3,1.6,1.2,1.6c0.5,0,0.9-0.3,1.2-0.7l0.7,0.7c-0.5,0.6-1.3,1-2.1,1c-1.3,0-2.3-1.1-2.3-2.8
			c0-1.4,0.9-2.8,2.4-2.8c1.5,0,2.1,1.1,2.1,3H297z M299,53.3c0-0.6-0.3-1.2-0.9-1.2c-0.6,0-1,0.6-1,1.2H299z"/>
		<path class="st0" d="M304.2,49.4h2c1.9,0,2.6,0.9,2.6,2.2c0,1.5-1.2,2.2-2.6,2.2h-0.7l0,2.9h-1.3L304.2,49.4z M306.2,52.7
			c0.7,0,1.3-0.4,1.3-1.1c0-0.4-0.2-1.1-1.2-1.1h-0.7l0,2.3H306.2z"/>
		<path class="st0" d="M309.8,51.4h1.3v1l0,0c0.2-0.6,0.6-1.1,1.2-1.1c0.1,0,0.2,0,0.4,0.1l-0.2,1.2c-0.1,0-0.2,0-0.3,0
			c-0.5,0-0.8,0.4-1.1,0.9l0,3.3h-1.3L309.8,51.4z"/>
		<path class="st0" d="M315.3,51.2c1.6,0,2.5,1.2,2.5,2.8c0,1.5-0.9,2.8-2.5,2.8c-1.7,0-2.5-1.3-2.5-2.8
			C312.9,52.6,313.8,51.2,315.3,51.2 M315.3,55.8c0.9,0,1.2-1,1.2-1.7c0-1.1-0.4-1.8-1.2-1.8c-0.9,0-1.2,1.1-1.2,1.8
			C314.1,54.7,314.4,55.8,315.3,55.8"/>
		<path class="st0" d="M322.8,52.2c0.2,0.2,0.3,0.5,0.3,0.8c0,1.1-0.9,1.7-1.9,1.7c-0.4,0-0.8-0.1-0.9-0.1c-0.2,0.1-0.5,0.3-0.5,0.5
			c0,0.2,0.3,0.3,1.5,0.4c1.2,0.1,2.4,0.3,2.4,1.6c0,1.5-1.5,2.2-2.8,2.2c-1.7,0-2.3-0.8-2.3-1.6c0-0.8,0.6-1.1,1.1-1.4v0
			c-0.5-0.1-1.1-0.2-1.1-0.7c0-0.5,0.3-0.7,1.2-1.3c-0.5-0.3-0.7-0.7-0.7-1.2c0-1.1,0.9-1.8,2-1.8c0.6,0,0.8,0.1,1.2,0.2l1.7,0v0.8
			L322.8,52.2z M320.9,58.4c0.9,0,1.5-0.6,1.5-1.1c0-0.6-0.2-0.6-2-0.8c-0.4,0.3-0.9,0.5-0.9,1C319.6,58.2,320.4,58.4,320.9,58.4
			 M320.2,53c0,0.5,0.3,0.9,0.9,0.9c0.6,0,0.8-0.4,0.8-1c0-0.5-0.3-0.9-0.8-0.9C320.5,52,320.2,52.4,320.2,53"/>
		<path class="st0" d="M325.1,51.4h1.3v1l0,0c0.2-0.6,0.6-1.1,1.2-1.1c0.1,0,0.2,0,0.4,0.1l-0.2,1.2c-0.1,0-0.2,0-0.3,0
			c-0.5,0-0.8,0.4-1.1,0.9l0,3.3h-1.3L325.1,51.4z"/>
		<path class="st0" d="M328.9,52.3c1.1-1,1.7-1.1,2.3-1.1c0.8,0,1.5,0.5,1.5,1.5c0,0.2,0,0.3,0,0.4l0,1.5c0,0.2,0,0.4,0,0.7
			c0,0.3,0.1,0.5,0.3,0.5c0.1,0,0.2,0,0.4-0.1l0.3,0.6c-0.5,0.4-0.8,0.4-1.1,0.4c-0.4,0-0.8-0.3-0.9-0.7c-0.4,0.4-0.8,0.7-1.3,0.7
			c-0.9,0-1.6-0.6-1.6-1.6c0-0.9,0.5-1.6,2.8-2V53c0-0.6-0.2-0.7-0.6-0.7c-0.3,0-0.6,0.1-1.3,0.7L328.9,52.3z M331.4,54.1
			c-1.2,0.3-1.6,0.6-1.6,1.1c0,0.4,0.3,0.6,0.7,0.6c0.3,0,0.6-0.2,0.9-0.5L331.4,54.1z"/>
		<path class="st0" d="M334.4,51.4h1.2v0.7l0,0c0.3-0.5,0.9-0.9,1.5-0.9c0.6,0,1.1,0.3,1.3,0.9c0.4-0.5,1-0.9,1.7-0.9
			c1.2,0,1.4,0.9,1.4,1.5c0,1.3,0,2.6,0,3.9h-1.3l0-2.1c0-0.6,0-1.3,0-1.6c0-0.4-0.2-0.7-0.6-0.7c-0.4,0-0.9,0.4-1.1,0.7l0,3.6h-1.2
			l0-2.1c0-0.6,0-1.3,0-1.6c0-0.4-0.2-0.7-0.6-0.7c-0.4,0-0.9,0.4-1.1,0.7l0,3.6h-1.2L334.4,51.4z"/>
		<path class="st0" d="M342.8,52.3c1.1-1,1.7-1.1,2.3-1.1c0.8,0,1.5,0.5,1.5,1.5c0,0.2,0,0.3,0,0.4l0,1.5c0,0.2,0,0.4,0,0.7
			c0,0.3,0.1,0.5,0.3,0.5c0.1,0,0.2,0,0.4-0.1l0.3,0.6c-0.5,0.4-0.8,0.4-1.1,0.4c-0.4,0-0.8-0.3-0.9-0.7c-0.4,0.4-0.8,0.7-1.3,0.7
			c-0.9,0-1.6-0.6-1.6-1.6c0-0.9,0.5-1.6,2.8-2V53c0-0.6-0.2-0.7-0.6-0.7c-0.3,0-0.6,0.1-1.3,0.7L342.8,52.3z M345.3,54.1
			c-1.2,0.3-1.6,0.6-1.6,1.1c0,0.4,0.3,0.6,0.7,0.6c0.3,0,0.6-0.2,0.9-0.5L345.3,54.1z"/>
		<path class="st0" d="M348.2,55.4c0.4,0.2,0.8,0.4,1.3,0.4c0.4,0,0.7-0.2,0.7-0.6c0-1.1-2.4-0.2-2.4-2.4c0-1.1,0.9-1.6,1.9-1.6
			c0.6,0,1.3,0.2,1.8,0.6l-0.5,0.8c-0.3-0.2-0.8-0.4-1.1-0.4c-0.4,0-0.8,0.2-0.8,0.6c0,1,2.5,0.4,2.5,2.3c0,1.1-0.9,1.7-2,1.7
			c-0.6,0-1.2-0.2-1.8-0.5L348.2,55.4z"/>
		<path class="st0" d="M357.9,56.1L357.9,56.1c-0.3,0.4-0.8,0.7-1.3,0.7c-1.3,0-2.2-1.1-2.2-2.7c0-1.4,0.8-2.9,2.3-2.9
			c0.4,0,0.9,0.1,1.2,0.5h0l0-3h1.3l0,7.9h-1.2V56.1z M357.8,52.8c-0.2-0.2-0.4-0.5-0.9-0.5c-0.7,0-1.3,0.7-1.3,1.7
			c0,1,0.5,1.7,1.2,1.7c0.4,0,0.8-0.4,0.9-0.8V52.8z"/>
		<path class="st0" d="M361.4,54.2c0,0.7,0.3,1.6,1.2,1.6c0.5,0,0.9-0.3,1.2-0.7l0.7,0.7c-0.5,0.6-1.3,1-2.1,1
			c-1.3,0-2.3-1.1-2.3-2.8c0-1.4,0.9-2.8,2.4-2.8c1.5,0,2.1,1.1,2.1,3H361.4z M363.4,53.3c0-0.6-0.3-1.2-0.9-1.2c-0.6,0-1,0.6-1,1.2
			H363.4z"/>
		<path class="st0" d="M194.8,62.1h2c1.9,0,2.6,0.9,2.6,2.2c0,1.5-1.2,2.2-2.6,2.2H196l0,2.9h-1.3L194.8,62.1z M196.7,65.4
			c0.7,0,1.3-0.4,1.3-1.1c0-0.4-0.2-1.1-1.2-1.1h-0.7l0,2.3H196.7z"/>
		<path class="st0" d="M202,63.9c1.6,0,2.5,1.2,2.5,2.8c0,1.5-0.9,2.8-2.5,2.8c-1.7,0-2.5-1.3-2.5-2.8
			C199.5,65.3,200.5,63.9,202,63.9 M202,68.5c0.9,0,1.2-1,1.2-1.7c0-1.1-0.4-1.8-1.2-1.8c-0.9,0-1.2,1.1-1.2,1.8
			C200.8,67.4,201.1,68.5,202,68.5 M202.1,61.8h1.4l-1.4,1.5h-0.9L202.1,61.8z"/>
		<path class="st0" d="M205.7,68.1c0.4,0.2,0.8,0.4,1.3,0.4c0.4,0,0.7-0.2,0.7-0.6c0-1.1-2.4-0.2-2.4-2.4c0-1.1,0.9-1.6,1.9-1.6
			c0.6,0,1.3,0.2,1.8,0.6l-0.5,0.8c-0.3-0.2-0.8-0.4-1.1-0.4c-0.4,0-0.8,0.2-0.8,0.6c0,1,2.5,0.4,2.5,2.3c0,1.1-0.9,1.7-2,1.7
			c-0.6,0-1.2-0.2-1.8-0.5L205.7,68.1z"/>
		<rect x="210.1" y="66.1" class="st0" width="2.7" height="1.2"/>
		<path class="st0" d="M218.8,65.7h1.4l-0.1,3.3c-0.8,0.3-1.6,0.5-2.4,0.5c-2.2,0-3.8-1.6-3.8-3.8c0-2.1,1.7-3.8,3.8-3.8
			c0.9,0,1.7,0.2,2.3,0.5l-0.5,1c-0.5-0.3-1.1-0.5-1.8-0.5c-1.2,0-2.4,1-2.4,2.7c0,1.6,1,2.7,2.4,2.7c0.4,0,0.7-0.1,1-0.2
			L218.8,65.7z"/>
		<path class="st0" d="M221.6,64.1h1.3v1l0,0c0.2-0.6,0.6-1.1,1.2-1.1c0.1,0,0.2,0,0.4,0.1l-0.2,1.2c-0.1,0-0.2,0-0.3,0
			c-0.5,0-0.8,0.4-1.1,0.9l0,3.3h-1.3L221.6,64.1z"/>
		<path class="st0" d="M224.8,65c1.1-1,1.7-1.1,2.3-1.1c0.8,0,1.5,0.5,1.5,1.5c0,0.2,0,0.3,0,0.4l0,1.5c0,0.2,0,0.4,0,0.7
			c0,0.3,0.1,0.5,0.3,0.5c0.1,0,0.2,0,0.4-0.1l0.3,0.6c-0.5,0.4-0.8,0.4-1.1,0.4c-0.4,0-0.8-0.3-0.9-0.7c-0.4,0.4-0.8,0.7-1.3,0.7
			c-0.9,0-1.6-0.6-1.6-1.6c0-0.9,0.5-1.6,2.8-2v-0.3c0-0.6-0.2-0.7-0.6-0.7c-0.3,0-0.6,0.1-1.3,0.7L224.8,65z M227.3,66.8
			c-1.2,0.3-1.6,0.6-1.6,1.1c0,0.4,0.3,0.6,0.7,0.6c0.3,0,0.6-0.2,0.9-0.5L227.3,66.8z"/>
		<path class="st0" d="M233.3,68.8L233.3,68.8c-0.3,0.4-0.8,0.7-1.3,0.7c-1.3,0-2.2-1.1-2.2-2.7c0-1.4,0.8-2.9,2.3-2.9
			c0.4,0,0.9,0.1,1.2,0.5h0l0-3h1.3l0,7.9h-1.2V68.8z M233.2,65.5c-0.2-0.2-0.4-0.5-0.9-0.5c-0.7,0-1.3,0.7-1.3,1.7
			c0,1,0.5,1.7,1.2,1.7c0.4,0,0.8-0.4,0.9-0.8V65.5z"/>
		<path class="st0" d="M240.1,69.4h-1.3v-0.6h0c-0.4,0.5-1,0.8-1.6,0.8c-1.1,0-1.4-0.8-1.4-1.8c0-0.3,0-0.7,0-1l0-2.7h1.3l0,1.3
			c0,0.8,0,1.5,0,2.1c0,0.6,0.2,0.9,0.7,0.9c0.4,0,0.8-0.4,1.1-0.7l0-3.6h1.3L240.1,69.4z"/>
		<path class="st0" d="M241.4,65c1.1-1,1.7-1.1,2.3-1.1c0.8,0,1.5,0.5,1.5,1.5c0,0.2,0,0.3,0,0.4l0,1.5c0,0.2,0,0.4,0,0.7
			c0,0.3,0.1,0.5,0.3,0.5c0.1,0,0.2,0,0.4-0.1l0.3,0.6c-0.5,0.4-0.8,0.4-1.1,0.4c-0.4,0-0.8-0.3-0.9-0.7c-0.4,0.4-0.8,0.7-1.3,0.7
			c-0.9,0-1.6-0.6-1.6-1.6c0-0.9,0.5-1.6,2.8-2v-0.3c0-0.6-0.2-0.7-0.6-0.7c-0.3,0-0.6,0.1-1.3,0.7L241.4,65z M243.9,66.8
			c-1.2,0.3-1.6,0.6-1.6,1.1c0,0.4,0.3,0.6,0.7,0.6c0.3,0,0.6-0.2,0.9-0.5L243.9,66.8z"/>
		<path class="st0" d="M248.4,70c0.1,0,0.1,0,0.2,0c0.5,0,0.9,0.3,0.9,0.8c0,0.7-0.6,1-1.2,1c-0.4,0-0.7-0.1-1.1-0.3l0.2-0.4
			c0.2,0.1,0.4,0.2,0.7,0.2c0.3,0,0.6-0.1,0.6-0.5c0-0.3-0.2-0.4-0.5-0.4c-0.1,0-0.3,0-0.4,0.1l-0.2-0.2l0.5-0.8
			c-1.2-0.3-1.8-1.5-1.8-2.7c0-1.5,0.9-2.9,2.4-2.9c0.8,0,1.3,0.4,1.8,0.9l-0.7,0.7c-0.3-0.3-0.6-0.5-1-0.5c-0.8,0-1.2,0.9-1.2,1.7
			c0,1.1,0.5,1.7,1.1,1.7c0.5,0,0.8-0.3,1.1-0.6l0.7,0.7c-0.5,0.6-1.1,1-1.9,1L248.4,70L248.4,70z"/>
		<path class="st0" d="M251.1,65c1.1-1,1.7-1.1,2.3-1.1c0.8,0,1.5,0.5,1.5,1.5c0,0.2,0,0.3,0,0.4l0,1.5c0,0.2,0,0.4,0,0.7
			c0,0.3,0.1,0.5,0.3,0.5c0.1,0,0.2,0,0.4-0.1l0.3,0.6c-0.5,0.4-0.8,0.4-1.1,0.4c-0.4,0-0.8-0.3-0.9-0.7c-0.4,0.4-0.8,0.7-1.3,0.7
			c-0.9,0-1.6-0.6-1.6-1.6c0-0.9,0.5-1.6,2.8-2v-0.3c0-0.6-0.2-0.7-0.6-0.7c-0.3,0-0.6,0.1-1.3,0.7L251.1,65z M251.3,63.3
			c0.1-0.7,0.4-1.2,1.2-1.2c0.2,0,0.5,0.1,0.8,0.2c0.3,0.1,0.5,0.2,0.7,0.2c0.3,0,0.4-0.2,0.4-0.5h0.6c-0.1,0.7-0.4,1.2-1.2,1.2
			c-0.2,0-0.5-0.1-0.8-0.2c-0.3-0.1-0.5-0.2-0.7-0.2c-0.3,0-0.4,0.2-0.4,0.5H251.3z M253.6,66.8c-1.2,0.3-1.6,0.6-1.6,1.1
			c0,0.4,0.3,0.6,0.7,0.6c0.3,0,0.6-0.2,0.9-0.5L253.6,66.8z"/>
		<path class="st0" d="M258.6,63.9c1.6,0,2.5,1.2,2.5,2.8c0,1.5-0.9,2.8-2.5,2.8c-1.7,0-2.5-1.3-2.5-2.8
			C256.1,65.3,257,63.9,258.6,63.9 M258.6,68.5c0.9,0,1.2-1,1.2-1.7c0-1.1-0.4-1.8-1.2-1.8c-0.9,0-1.2,1.1-1.2,1.8
			C257.3,67.4,257.6,68.5,258.6,68.5"/>
		<path class="st0" d="M266.7,66.9c0,0.7,0.3,1.6,1.2,1.6c0.5,0,0.9-0.3,1.2-0.7l0.7,0.7c-0.5,0.6-1.3,1-2.1,1
			c-1.3,0-2.3-1.1-2.3-2.8c0-1.4,0.9-2.8,2.4-2.8c1.5,0,2.1,1.1,2.1,3H266.7z M268.8,66c0-0.6-0.3-1.2-0.9-1.2c-0.6,0-1,0.6-1,1.2
			H268.8z"/>
		<path class="st0" d="M270.9,64.1h1.2v0.7l0,0c0.3-0.5,0.9-0.9,1.5-0.9c0.6,0,1.1,0.3,1.3,0.9c0.4-0.5,1-0.9,1.7-0.9
			c1.2,0,1.4,0.9,1.4,1.5c0,1.3,0,2.6,0,3.9h-1.3l0-2.1c0-0.6,0-1.3,0-1.6c0-0.4-0.2-0.7-0.6-0.7c-0.4,0-0.9,0.4-1.1,0.7l0,3.6h-1.2
			l0-2.1c0-0.6,0-1.3,0-1.6c0-0.4-0.2-0.7-0.6-0.7c-0.4,0-0.9,0.4-1.1,0.7l0,3.6h-1.2L270.9,64.1z"/>
		<path class="st0" d="M288.5,68.8c-0.7,0.5-1.5,0.7-2.3,0.7c-2.1,0-3.7-1.6-3.7-3.8c0-2.3,1.5-3.8,3.6-3.8c0.8,0,1.7,0.3,2.3,0.8
			l-0.6,0.9c-0.4-0.4-1.1-0.6-1.7-0.6c-1.4,0-2.3,1.1-2.3,2.6c0,1.4,0.9,2.7,2.3,2.7c0.9,0,1.4-0.2,1.8-0.5L288.5,68.8z"/>
		<path class="st0" d="M289.5,64.1h1.3l-0.1,5.3h-1.3L289.5,64.1z M289.5,62.1h1.3l0,1.2h-1.3L289.5,62.1z"/>
		<path class="st0" d="M293.1,66.9c0,0.7,0.3,1.6,1.2,1.6c0.5,0,0.9-0.3,1.2-0.7l0.7,0.7c-0.5,0.6-1.3,1-2.1,1
			c-1.3,0-2.3-1.1-2.3-2.8c0-1.4,0.9-2.8,2.4-2.8c1.5,0,2.1,1.1,2.1,3H293.1z M293.5,61.8h1.1l1.1,1.5h-0.9l-0.8-1l-0.8,1h-0.9
			L293.5,61.8z M295.2,66c0-0.6-0.3-1.2-0.9-1.2c-0.6,0-1,0.6-1,1.2H295.2z"/>
		<path class="st0" d="M297.4,64.1h1.2v0.6h0c0.4-0.5,1-0.8,1.7-0.8c1.1,0,1.4,0.8,1.4,1.6c0,0.5,0,0.9,0,1.2l0,2.7h-1.3l0-1.3
			c0-0.8,0-1.5,0-2.1c0-0.7-0.2-0.9-0.7-0.9c-0.4,0-0.8,0.4-1.1,0.7l0,3.6h-1.3L297.4,64.1z"/>
		<path class="st0" d="M306.9,68.5c-0.5,0.6-1.1,1-1.9,1c-1.5,0-2.3-1.4-2.3-2.7c0-1.5,0.9-2.9,2.4-2.9c0.8,0,1.3,0.4,1.8,0.9
			l-0.7,0.7c-0.3-0.3-0.6-0.5-1-0.5c-0.8,0-1.2,0.9-1.2,1.7c0,1.1,0.5,1.7,1.1,1.7c0.5,0,0.8-0.3,1.1-0.6L306.9,68.5z"/>
		<path class="st0" d="M307.8,64.1h1.3l-0.1,5.3h-1.3L307.8,64.1z M307.8,62.1h1.3l0,1.2h-1.3L307.8,62.1z"/>
		<path class="st0" d="M310.3,65c1.1-1,1.7-1.1,2.3-1.1c0.8,0,1.5,0.5,1.5,1.5c0,0.2,0,0.3,0,0.4l0,1.5c0,0.2,0,0.4,0,0.7
			c0,0.3,0.1,0.5,0.3,0.5c0.1,0,0.2,0,0.4-0.1l0.3,0.6c-0.5,0.4-0.8,0.4-1.1,0.4c-0.4,0-0.8-0.3-0.9-0.7c-0.4,0.4-0.8,0.7-1.3,0.7
			c-0.9,0-1.6-0.6-1.6-1.6c0-0.9,0.5-1.6,2.8-2v-0.3c0-0.6-0.2-0.7-0.6-0.7c-0.3,0-0.6,0.1-1.3,0.7L310.3,65z M312.9,66.8
			c-1.2,0.3-1.6,0.6-1.6,1.1c0,0.4,0.3,0.6,0.7,0.6c0.3,0,0.6-0.2,0.9-0.5L312.9,66.8z"/>
		<path class="st0" d="M315.8,68.1c0.4,0.2,0.8,0.4,1.3,0.4c0.4,0,0.7-0.2,0.7-0.6c0-1.1-2.4-0.2-2.4-2.4c0-1.1,0.9-1.6,1.9-1.6
			c0.6,0,1.3,0.2,1.8,0.6l-0.5,0.8c-0.3-0.2-0.8-0.4-1.1-0.4c-0.4,0-0.8,0.2-0.8,0.6c0,1,2.5,0.4,2.5,2.3c0,1.1-0.9,1.7-2,1.7
			c-0.6,0-1.2-0.2-1.8-0.5L315.8,68.1z"/>
		<path class="st0" d="M329.5,68.8c-0.7,0.5-1.5,0.7-2.3,0.7c-2.1,0-3.7-1.6-3.7-3.8c0-2.3,1.5-3.8,3.6-3.8c0.8,0,1.7,0.3,2.3,0.8
			l-0.6,0.9c-0.4-0.4-1.1-0.6-1.7-0.6c-1.4,0-2.3,1.1-2.3,2.6c0,1.4,0.9,2.7,2.3,2.7c0.9,0,1.4-0.2,1.8-0.5L329.5,68.8z"/>
		<path class="st0" d="M332.5,63.9c1.6,0,2.5,1.2,2.5,2.8c0,1.5-0.9,2.8-2.5,2.8c-1.7,0-2.5-1.3-2.5-2.8
			C330,65.3,331,63.9,332.5,63.9 M332.5,68.5c0.9,0,1.2-1,1.2-1.7c0-1.1-0.4-1.8-1.2-1.8c-0.9,0-1.2,1.1-1.2,1.8
			C331.3,67.4,331.5,68.5,332.5,68.5"/>
		<path class="st0" d="M336.1,64.1h1.2v0.6h0c0.4-0.5,1-0.8,1.7-0.8c1.1,0,1.4,0.8,1.4,1.6c0,0.5,0,0.9,0,1.2l0,2.7h-1.3l0-1.3
			c0-0.8,0-1.5,0-2.1c0-0.7-0.2-0.9-0.7-0.9c-0.4,0-0.8,0.4-1.1,0.7l0,3.6H336L336.1,64.1z"/>
		<path class="st0" d="M344.6,69.1l-0.4,0.2c-0.3,0.2-0.6,0.2-0.8,0.2c-0.9,0-1.4-0.5-1.4-1.6c0-0.2,0-0.8,0-1.3l0-1.6h-0.7v-1
			l0.7,0l0-1.9h1.3l0,1.9l1.2,0v1h-1.2l0,1.6c0,0.5,0,1,0,1.4c0,0.3,0.1,0.6,0.4,0.6c0.2,0,0.4-0.1,0.6-0.3L344.6,69.1z"/>
		<path class="st0" d="M345.2,65c1.1-1,1.7-1.1,2.3-1.1c0.8,0,1.5,0.5,1.5,1.5c0,0.2,0,0.3,0,0.4l0,1.5c0,0.2,0,0.4,0,0.7
			c0,0.3,0.1,0.5,0.3,0.5c0.1,0,0.2,0,0.4-0.1l0.3,0.6c-0.5,0.4-0.8,0.4-1.1,0.4c-0.4,0-0.8-0.3-0.9-0.7c-0.4,0.4-0.8,0.7-1.3,0.7
			c-0.9,0-1.6-0.6-1.6-1.6c0-0.9,0.5-1.6,2.8-2v-0.3c0-0.6-0.2-0.7-0.6-0.7c-0.3,0-0.6,0.1-1.3,0.7L345.2,65z M347.7,66.8
			c-1.2,0.3-1.6,0.6-1.6,1.1c0,0.4,0.3,0.6,0.7,0.6c0.3,0,0.6-0.2,0.9-0.5L347.7,66.8z M347.4,61.8h1.4l-1.4,1.5h-0.9L347.4,61.8z"
			/>
		<path class="st0" d="M350.5,61.5h1.3l0,3.2l0,0c0.2-0.5,0.7-0.8,1.3-0.8c1.3,0,2.1,1.2,2.1,2.7c0,1.4-0.8,3-2.3,3
			c-0.5,0-1-0.2-1.2-0.6h0v0.5h-1.2L350.5,61.5z M351.7,68c0.1,0.2,0.5,0.4,0.8,0.4c0.9,0,1.4-0.9,1.4-1.7c0-0.8-0.3-1.7-1.2-1.7
			c-0.5,0-0.8,0.3-1,0.7L351.7,68z"/>
		<path class="st0" d="M357.2,66.9c0,0.7,0.3,1.6,1.2,1.6c0.5,0,0.9-0.3,1.2-0.7l0.7,0.7c-0.5,0.6-1.3,1-2.1,1
			c-1.3,0-2.3-1.1-2.3-2.8c0-1.4,0.9-2.8,2.4-2.8c1.5,0,2.1,1.1,2.1,3H357.2z M359.3,66c0-0.6-0.3-1.2-0.9-1.2c-0.6,0-1,0.6-1,1.2
			H359.3z"/>
		<path class="st0" d="M361.6,64.1h1.3l-0.1,5.3h-1.3L361.6,64.1z M361.6,62.1h1.3l0,1.2h-1.3L361.6,62.1z"/>
		<path class="st0" d="M364.5,68.1c0.4,0.2,0.8,0.4,1.3,0.4c0.4,0,0.7-0.2,0.7-0.6c0-1.1-2.4-0.2-2.4-2.4c0-1.1,0.9-1.6,1.9-1.6
			c0.6,0,1.3,0.2,1.8,0.6l-0.5,0.8c-0.3-0.2-0.8-0.4-1.1-0.4c-0.4,0-0.8,0.2-0.8,0.6c0,1,2.5,0.4,2.5,2.3c0,1.1-0.9,1.7-2,1.7
			c-0.6,0-1.2-0.2-1.8-0.5L364.5,68.1z"/>
	</g>
	<g>
		<path class="st0" d="M135.9,17.7c2.2,0.2,4-0.4,5.9-0.7c2.7-0.4,5.3-1,7.9-1.4c0.3-0.1,0.7-0.1,1-0.1c1,0,1.5,0.6,1.2,1.6
			c-0.2,1-0.5,1.9-0.8,2.9c-0.4,1.3-1.5,2-3.1,2.1c-3.5,0.1-7,0.2-10.5,0.4c-0.8,0-1.5,0.1-2.1,0.8c0.8,0.5,1.5,0.4,2.2,0.3
			c3.2-0.1,6.4-0.2,9.6-0.3c0.7,0,1.4-0.2,1.8,0.5c0.4,0.6-0.1,1.2-0.4,1.7c-0.1,0.3-0.3,0.5-0.4,0.8c-0.9,2-2.4,2.7-4.6,2.4
			c-2.3-0.3-4.6-0.5-6.9-0.8c-0.8-0.1-1.6,0.1-2.5,0.4c1.1,0.8,2.2,0.7,3.3,0.8c2,0.3,4,0.5,6,0.7c0.5,0.1,1.1,0.1,1.3,0.7
			c0.2,0.6-0.1,1-0.5,1.4c-0.4,0.4-0.7,0.8-1,1.2c-1,1.1-2.3,1.5-3.7,1c-1.4-0.4-2.9-0.9-4.3-1.4c-0.8-0.3-1.7-0.4-2.6-0.1
			c0.3,0.7,0.9,0.8,1.5,1c1.3,0.5,2.6,0.9,3.9,1.3c1.2,0.4,1.3,0.8,0.7,1.9c-1,1.6-2.7,2.1-4.4,1.1c-0.7-0.4-1.3-0.9-2-1.2
			c-0.5-0.3-1.1-0.5-1.9-0.3c0.4,0.8,1.2,1.1,1.8,1.6c0.6,0.4,1.6,0.6,1.3,1.5c-0.2,1-1,1.6-2,1.9c-0.9,0.2-1.9,0.1-2.6-0.6
			c-0.6-0.6-1.2-0.7-2.1-1c0.1,0.7,0.5,1.1,1,1.5c0.7,0.6,0.5,1.1-0.1,1.5c-0.2,0.2-0.5,0.3-0.8,0.3c-3.1,0.6-6.2,1.2-9.3,1.8
			c-1.9,0.4-3-0.9-2.3-2.8c0.4-1,1.1-1.7,1.9-2.3c1.9-1.4,3.8-3,5.2-5c1.8-2.5,2.6-5.3,2.4-8.4c-0.2-3-0.6-6,0.1-8.9
			c0.5-2.1,1.7-3.6,3.8-4.3c2.8-0.9,5.7-1.3,8.5-1.9c4.7-1,9.3-2,14-3c1.5-0.3,1.8-0.1,1.8,1.5c0,0.4,0,0.8-0.1,1.2
			c-0.2,2.4-0.7,3-3.1,3.5c-3.8,0.7-7.5,1.4-11.3,2.1C137.6,16.5,136.8,16.8,135.9,17.7z"/>
		<path class="st0" d="M41.6,23c-0.7-0.8-1.6-0.8-2.5-0.8C36,22,32.8,22,29.7,21.9c-2.5-0.1-3.3-0.7-3.9-3c-0.2-0.6-0.3-1.1-0.5-1.7
			c-0.4-1.4,0.3-2.1,1.6-1.8c3.8,0.7,7.6,1.4,11.4,2.1c0.9,0.2,1.8,0.5,2.9,0.2c-0.6-0.9-1.5-1.1-2.3-1.2c-3.9-0.7-7.9-1.5-11.8-2.2
			c-1.9-0.4-2.6-1.1-2.8-3.1c0-0.3-0.1-0.7-0.1-1c-0.1-2,0.2-2.3,2.2-1.8c4.1,0.9,8.2,1.8,12.3,2.7c2.7,0.6,5.3,1.1,8,1.7
			c4.5,0.9,5.8,3.2,5.9,7.5c0.1,2.3-0.1,4.6-0.2,6.8c-0.2,3.4,1,6.3,3.1,8.8c1.3,1.6,2.9,2.9,4.6,4.1c0.6,0.4,1.1,1,1.5,1.6
			c0.5,0.9,0.6,1.8,0,2.6c-0.6,0.8-1.4,0.7-2.2,0.6c-2.3-0.5-4.7-0.9-7-1.4c-0.9-0.2-1.8-0.3-2.6-0.6c-1.1-0.4-1.2-1-0.4-1.8
			c0.3-0.3,0.7-0.6,0.7-1.2c-0.7,0-1.3,0.3-1.9,0.8c-1.5,1.3-3.3,1-4.4-0.6c-0.5-0.7-0.4-1.3,0.3-1.7c0.8-0.5,1.5-1,2.2-1.4
			c0.1-0.1,0.2-0.3,0.4-0.5c-0.9-0.2-1.6,0.1-2.3,0.5c-0.9,0.5-1.6,1.2-2.6,1.4c-1.7,0.3-3.2-0.5-3.6-2.2c-0.2-0.7,0.3-1,0.8-1.2
			c1.3-0.4,2.6-0.8,3.9-1.3c0.5-0.2,1.1-0.3,1.5-0.9c-0.9-0.5-1.8-0.2-2.7,0c-1.3,0.4-2.5,0.8-3.8,1.2c-1.7,0.5-3.1,0.3-4.3-1.1
			c-0.4-0.5-0.8-0.8-1.2-1.3c-0.6-0.8-0.4-1.4,0.6-1.6c1.8-0.3,3.7-0.4,5.5-0.7c1.4-0.2,2.8-0.1,4.2-0.8c-0.9-0.6-1.7-0.6-2.6-0.5
			c-2.2,0.2-4.5,0.5-6.7,0.8c-2.3,0.3-3.3-0.1-4.5-2.2c-0.3-0.4-0.5-0.9-0.8-1.3c-0.6-1.1-0.2-1.9,1.1-1.9c0.9,0,1.8,0,2.8,0.1
			c2.9,0.1,5.7,0.3,8.6,0.2C41,23.2,41.3,23.3,41.6,23z"/>
	</g>
	<path class="st0" d="M88.3,74.7c-16.1,0-30.9-5-45.2-9.8c-13.9-4.7-27.1-9.1-41-9.1v-3c14.4,0,27.8,4.5,42,9.3
		c14.1,4.7,28.6,9.6,44.2,9.6c15.5,0,29.9-4.9,43.8-9.6c13.6-4.6,27.7-9.4,42.6-9.4v3c-14.4,0-27.6,4.5-41.6,9.2
		C119,69.8,104.4,74.7,88.3,74.7z"/>
</g>
</svg>
