<?xml version="1.0" encoding="utf-8"?>
<!-- Generator: Adobe Illustrator 19.1.1, SVG Export Plug-In . SVG Version: 6.00 Build 0)  -->
<svg version="1.1" id="Layer_1" xmlns="http://www.w3.org/2000/svg" xmlns:xlink="http://www.w3.org/1999/xlink" x="0px" y="0px"
	 width="50px" height="50px" viewBox="-454 256 50 50" style="enable-background:new -454 256 50 50;" xml:space="preserve">
<style type="text/css">
	.st0{fill:#F2EDE8;}
</style>
<path class="st0" d="M-405.7,265.9l-15.1,15.1l15.1,15.2c2.3,2.3,2.3,5.9,0,8.2c-1.1,1.1-2.6,1.7-4.1,1.7s-3-0.6-4.1-1.7l-15.1-15.2
	l-15.1,15.1c-1.2,1.1-2.7,1.7-4.1,1.7c-1.5,0-3-0.6-4.1-1.7c-2.3-2.3-2.3-5.9,0-8.2l15.1-15.1l-15.1-15.1c-2.3-2.3-2.3-5.9,0-8.2
	c2.3-2.3,5.9-2.3,8.2,0l15.1,15.1l15.2-15.1c2.3-2.3,5.9-2.3,8.2,0C-403.4,259.9-403.4,263.6-405.7,265.9L-405.7,265.9z"/>
</svg>
