<?xml version="1.0" encoding="utf-8"?>
<!-- Generator: Adobe Illustrator 19.1.1, SVG Export Plug-In . SVG Version: 6.00 Build 0)  -->
<svg version="1.1" id="Layer_1" xmlns="http://www.w3.org/2000/svg" xmlns:xlink="http://www.w3.org/1999/xlink" x="0px" y="0px"
	 width="192px" height="144px" viewBox="-383 353 192 144" style="enable-background:new -383 353 192 144;" xml:space="preserve">
<g>
	<path d="M-194.9,387.2l-30.4-30.3c-2.2-2.2-5.3-3.5-8.4-3.5h-106.5c-3.1,0-6.2,1.3-8.4,3.5l-30.4,30.3c-2.3,2.4-3.5,5.5-3.5,8.6
		c0,2.8,1,5.6,3,7.8l83.6,89c2.2,2.5,5.5,4,8.9,4s6.6-1.5,8.9-4l83.6-89c2-2.3,3-5.2,3-8.1C-191.5,392.5-192.7,389.5-194.9,387.2
		L-194.9,387.2z M-237.9,365.4l-11.4,9.5l-9.5-9.5H-237.9z M-237.5,395.2h-26.9l14.7-12.2L-237.5,395.2z M-253.9,378.7l-15.1,12.6
		l-13.2-11l16.3-13.6L-253.9,378.7z M-273.7,395.2h-26.5l13.3-11.1L-273.7,395.2z M-273.7,365.4l-13.3,11l-13.2-11H-273.7z
		 M-291.6,380.3l-13.3,11l-15.1-12.6l12-12L-291.6,380.3z M-309.5,395.2h-27l12.2-12.2L-309.5,395.2z M-315.1,365.4l-9.5,9.5
		l-11.5-9.5H-315.1z M-342.6,367.7l13.8,11.5l-16.1,16h-25.6L-342.6,367.7z M-365.4,401.1h21.2l37.5,62.6L-365.4,401.1z
		 M-337.2,401.1h29.3l14.6,73.3L-337.2,401.1z M-301.8,401.1h29.7l-14.9,74.4L-301.8,401.1z M-280.7,474.4l14.7-73.3h29.3
		L-280.7,474.4z M-267.3,463.7l37.5-62.6h21.2L-267.3,463.7z M-229,395.2l-16.1-16.1l13.7-11.4l27.5,27.5H-229z"/>
</g>
</svg>
