<?xml version="1.0" encoding="utf-8"?>
<!-- Generator: Adobe Illustrator 19.1.1, SVG Export Plug-In . SVG Version: 6.00 Build 0)  -->
<svg version="1.1" id="Layer_1" xmlns="http://www.w3.org/2000/svg" xmlns:xlink="http://www.w3.org/1999/xlink" x="0px" y="0px"
	 width="215px" height="135px" viewBox="-372 348 215 135" style="enable-background:new -372 348 215 135;" xml:space="preserve">
<g>
	<path d="M-264.5,348.3c-46.9,0-87.5,27.3-107.5,67.2c20,39.9,60.6,67.2,107.5,67.2s87.5-27.3,107.5-67.2
		C-177,375.6-217.7,348.3-264.5,348.3L-264.5,348.3z M-211.5,383.9c12.6,8.1,23.3,18.8,31.4,31.5c-8,12.7-18.7,23.5-31.4,31.5
		c-15.9,10.1-34.2,15.5-53,15.5s-37.1-5.4-53-15.5c-12.6-8.1-23.3-18.8-31.4-31.5c8-12.7,18.7-23.5,31.4-31.5c0.8-0.5,1.7-1,2.5-1.5
		c-2.1,5.7-3.2,11.9-3.2,18.4c0,29.7,24.1,53.7,53.7,53.7c29.7,0,53.7-24.1,53.7-53.7c0-6.5-1.1-12.6-3.2-18.4
		C-213.2,382.9-212.4,383.4-211.5,383.9L-211.5,383.9z M-264.5,394.1c0,11.1-9,20.2-20.2,20.2c-11.1,0-20.1-9-20.1-20.2
		c0-11.2,9-20.1,20.1-20.1C-273.6,373.9-264.5,382.9-264.5,394.1L-264.5,394.1z"/>
</g>
</svg>
