<?xml version="1.0" encoding="utf-8"?>
<!-- Generator: Adobe Illustrator 19.1.1, SVG Export Plug-In . SVG Version: 6.00 Build 0)  -->
<svg version="1.1" id="Layer_1" xmlns="http://www.w3.org/2000/svg" xmlns:xlink="http://www.w3.org/1999/xlink" x="0px" y="0px"
	 width="43px" height="43px" viewBox="-458 259 43 43" style="enable-background:new -458 259 43 43;" xml:space="preserve">
<style type="text/css">
	.st0{fill:#E5DAD1;}
</style>
<g>
	<path class="st0" d="M-415,266c0-3.7-3.6-7-7.3-7h-28.6c-3.7,0-7.1,3.3-7.1,7v28.5c0,3.8,3.4,7.5,7.1,7.5h13.9v-16h-5v-8h5v-2.4
		c0-4.8,4-9.6,8.4-9.6h5.6v8h-5.6c-0.6,0-1.4,0.4-1.4,1.5v2.5h7v8h-7v16h7.7c3.8,0,7.3-3.7,7.3-7.4V266z"/>
</g>
</svg>
