<?xml version="1.0" encoding="utf-8"?>
<!-- Generator: Adobe Illustrator 19.2.0, SVG Export Plug-In . SVG Version: 6.00 Build 0)  -->
<svg version="1.1" id="Layer_1" xmlns="http://www.w3.org/2000/svg" xmlns:xlink="http://www.w3.org/1999/xlink" x="0px" y="0px"
	 width="43px" height="43px" viewBox="0 0 43 43" style="enable-background:new 0 0 43 43;" xml:space="preserve">
<g>
	<path d="M43,7c0-3.7-3.6-7-7.3-7H7.1C3.4,0,0,3.3,0,7v28.5C0,39.3,3.4,43,7.1,43H21V27h-5v-8h5v-2.4c0-4.8,4-9.6,8.4-9.6H35v8h-5.6
		c-0.6,0-1.4,0.4-1.4,1.5V19h7v8h-7v16h7.7c3.8,0,7.3-3.7,7.3-7.4V7z"/>
</g>
</svg>
