<?xml version="1.0" encoding="utf-8"?>
<!-- Generator: Adobe Illustrator 19.1.1, SVG Export Plug-In . SVG Version: 6.00 Build 0)  -->
<svg version="1.1" id="Layer_1" xmlns="http://www.w3.org/2000/svg" xmlns:xlink="http://www.w3.org/1999/xlink" x="0px" y="0px"
	 width="74px" height="295px" viewBox="-442 428 74 295" style="enable-background:new -442 428 74 295;" xml:space="preserve">
<style type="text/css">
	.st0{fill:#E5DAD1;}
</style>
<path class="st0" d="M-401.8,572.3c22.8,54.6,27,91.2,27,149.4c0,0.7,0,1.5,0,2.2h5.9c0.2-60.3-4-97.7-27.5-153.9
	c-3.9-9.2-7.6-18.9-11.1-28.8c4.5-11.6,9-21.8,13.4-31.4c11.6-25.9,23.6-48.5,23.6-81.8h-5.9c0,32.3-11.3,53-23.1,79.4
	c-3.5,7.9-7.3,16.3-11,25.4c-14.3-41.6-24.8-84.6-24.8-104.8h-5.9c0,13.1,4.1,35.6,11.6,63.1c4.5,16.6,9.9,33.7,15.8,50.1
	c-4.8,12.6-9.4,26.8-13.4,43.6c-9.4,38.9-14,84.2-14,139.2h5.9c0-86,11.4-137.3,24.6-174.1C-407.8,557.6-404.8,565.1-401.8,572.3z"
	/>
</svg>
