<?xml version="1.0" encoding="utf-8"?>
<!-- Generator: Adobe Illustrator 19.1.1, SVG Export Plug-In . SVG Version: 6.00 Build 0)  -->
<svg version="1.1" id="Layer_1" xmlns="http://www.w3.org/2000/svg" xmlns:xlink="http://www.w3.org/1999/xlink" x="0px" y="0px"
	 width="460px" height="82px" viewBox="-249 240 460 82" style="enable-background:new -249 240 460 82;" xml:space="preserve">
<style type="text/css">
	.st0{fill:#E5DAD1;stroke:#E5DAD1;stroke-miterlimit:10;}
</style>
<g>
	<g>
		<path class="st0" d="M13.1,311.3c16.7,3.9,31.1,3.6,42.3-1.3c26.9-11.8,45.6-21.6,60.5-29.5c43.1-22.8,49.8-26.3,117.7,1.8
			l0.3-0.7c-68.3-28.2-74.9-24.7-118.4-1.7c-15,7.9-33.6,17.8-60.5,29.5c-25.8,11.2-69.5-2.3-119.7-37.1
			c-66.8-46.2-136.6-116.5-134.1-165.5h-0.8c-1.1,22.3,12.6,43.6,39.8,78c25.3,32,59.8,64.1,94.6,88.2C-36.2,293-9.4,306,13.1,311.3
			z"/>
	</g>
	<g>
		<path class="st0" d="M-4.3,301.2c19.2,4.5,35.8,4.2,48.8-1.2c99.6-42.2,102.4-40.8,174-6.2c3.1,1.5,6.4,3.1,9.9,4.8l0.3-0.7
			c-3.4-1.6-6.7-3.2-9.9-4.8c-71.9-34.8-74.7-36.1-174.7,6.1c-27.9,11.7-73.4-0.7-124.9-34c-32.2-20.9-62.8-47.4-86-74.7
			c-24.3-28.8-37.5-45.7-38-65.9h-0.8c0.5,20.4,13.8,37.5,38.3,66.4c23.3,27.4,53.9,53.9,86.2,74.8
			C-53.2,283.9-26.9,295.9-4.3,301.2z"/>
	</g>
	<g>
		<path class="st0" d="M-23.6,291.1c22.8,5.3,42.1,4.9,57.2-1.2c88-35.7,111.5-21.6,163.1,9.4c7.9,4.7,16.7,10.1,26.5,15.6l0.4-0.7
			c-9.7-5.5-18.6-10.9-26.5-15.6c-51.8-31.1-75.4-45.3-163.8-9.4c-15.7,6.4-35.8,6.5-59.9,0.4c-21.7-5.5-46-16-70.3-30.5
			c-62.3-37.1-109.8-80.4-113.9-116.7l-0.8,0.1c2.1,18.6,14.4,31.2,36.7,55.3c20.9,22.6,48.4,44.6,77.6,62
			c24.4,14.5,48.7,25.1,70.5,30.6C-25.8,290.6-24.7,290.9-23.6,291.1z"/>
	</g>
	<g>
		<path class="st0" d="M-47.1,280.8c27.1,6.3,51.4,6.2,69.8-1c82.6-32.1,119.2-4.8,165.5,29.9c9.4,7,19.1,14.3,29.7,21.5l0.4-0.7
			c-10.6-7.1-20.2-14.4-29.6-21.4c-46.5-34.8-83.3-62.3-166.3-30c-32.6,12.7-83.9,3.1-137.1-25.7c-54.7-29.5-95.9-71.1-102.7-103.3
			l-0.8,0.2c6.8,32.4,48.3,74.1,103.1,103.8C-91.6,266.8-68.4,275.8-47.1,280.8z"/>
	</g>
	<g>
		<path class="st0" d="M212.6,347.5l0.5-0.6c-8.7-7.2-17.1-14.8-26-22.9c-22.7-20.6-46.2-42-74.2-54.4c-31.7-14-64.9-14.2-101.5-0.6
			c-36.1,13.5-91.9,5.8-145.6-20.2c-46.2-22.4-80.5-53.4-89.3-81l-0.7,0.3c8.9,27.8,43.3,59,89.7,81.4
			c25.1,12.2,51.5,20.7,76.2,24.5c26.9,4.2,51.1,2.7,70-4.3c81.2-30.3,128.8,12.9,174.9,54.8C195.5,332.7,203.9,340.3,212.6,347.5z"
			/>
	</g>
	<g>
		<path class="st0" d="M207.4,363.8l0.6-0.6c-5.3-5.4-10.8-11.5-16.8-17.9c-21.8-23.7-48.8-53.1-80.5-72.4
			c-37-22.6-73.1-27.1-110.2-13.9c-74.5,26.7-203.5-14.5-230-73.3l-0.7,0.3c12.3,27.4,48.4,53.2,96.4,68.8
			c48.5,15.9,98.9,17.7,134.7,4.9c83.3-29.8,144.8,37.2,189.8,86.1C196.5,352.3,202.1,358.4,207.4,363.8z"/>
	</g>
	<g>
		<path class="st0" d="M202.1,380.1l0.6-0.5c-16.6-22.4-47.5-64.2-85.1-95.1c-45.2-37.1-88.3-49.1-128-35.6
			c-37.4,12.7-85.9,15.4-129.9,7c-45.6-8.6-80.4-27.7-95.2-52.5l-0.7,0.4c13.8,23,44.6,41.2,85.4,50.8c3.4,0.8,6.9,1.5,10.5,2.2
			c44.1,8.4,92.8,5.7,130.3-7.1c39.4-13.4,82.2-1.5,127.2,35.5C154.7,316,185.6,357.7,202.1,380.1z"/>
	</g>
	<g>
		<path class="st0" d="M196.9,396.4l0.7-0.4c-14.7-27.9-47.8-73.7-85.4-108.1c-22.2-20.3-44-35.1-64.8-43.7
			c-24.6-10.3-47.6-12-68.6-5.2c-41.8,13.4-87.6,20.3-125.6,18.8c-44.7-1.6-77.5-14.3-94.8-36.6l-0.6,0.5
			c17.4,22.5,50.4,35.3,95.4,36.9c38.2,1.4,84-5.5,125.9-19c48.3-15.8,98.8,17.8,132.6,48.8C149.2,322.9,182.2,368.5,196.9,396.4z"
			/>
	</g>
	<g>
		<path class="st0" d="M191.6,412.7l0.8-0.2c-8.6-26.2-43-78.7-85.7-121.1c-23.8-23.7-47-41.3-69.1-52.3
			c-25.9-13-49.4-16.4-69.8-10.1l-7.2,2.1c-77.7,23.9-165.8,51-208.2,7.9l-0.6,0.6c10.1,10.2,22.7,16.5,37.1,19.9
			c46.7,10.9,112.4-9.3,172-27.6l7.3-2.2c20.2-6.2,43.5-2.8,69.2,10.1c22,11,45.1,28.6,68.8,52.2C148.7,334.2,183,386.5,191.6,412.7
			z"/>
	</g>
</g>
</svg>
