<?xml version="1.0" encoding="utf-8"?>
<!-- Generator: Adobe Illustrator 19.1.1, SVG Export Plug-In . SVG Version: 6.00 Build 0)  -->
<svg version="1.1" id="Layer_1" xmlns="http://www.w3.org/2000/svg" xmlns:xlink="http://www.w3.org/1999/xlink" x="0px" y="0px"
	 width="210px" height="82px" viewBox="-374 240 210 82" style="enable-background:new -374 240 210 82;" xml:space="preserve">
<style type="text/css">
	.st0{fill:#E5DAD1;stroke:#E5DAD1;stroke-miterlimit:10;}
</style>
<g>
	<g>
		<path class="st0" d="M-249.3,288c8,2.8,15.1,3.5,20.9,1.7c13.9-4.3,23.6-8.1,31.4-11.2c22.4-8.9,25.9-10.2,57.8,7.3l0.2-0.3
			c-32.1-17.6-35.5-16.2-58.2-7.3c-7.8,3.1-17.5,6.9-31.4,11.2c-13.3,4.1-34.1-4.9-56.9-24.8c-30.4-26.4-60.9-64.8-57-88.7h-0.4
			c-1.8,10.9,3.8,22.1,15.3,40.5c10.7,17.1,25.9,34.8,41.7,48.5C-272.6,276.3-260.1,284.1-249.3,288z"/>
	</g>
	<g>
		<path class="st0" d="M-257.4,282.1c9.2,3.3,17.4,4,24.1,2.1c51.3-15.3,52.6-14.5,85.9,6.4c1.4,0.9,3,1.9,4.6,2.9l0.2-0.3
			c-1.6-1-3.1-1.9-4.6-2.9c-33.5-21-34.8-21.8-86.3-6.5c-14.4,4.2-36.1-4.3-59.6-23.5c-14.7-12-28.3-26.7-38.2-41.4
			c-10.4-15.5-16-24.5-15.1-34.5h-0.4c-0.9,10.1,4.7,19.2,15.2,34.8c10,14.7,23.6,29.5,38.3,41.5
			C-280.5,270.9-268.2,278.2-257.4,282.1z"/>
	</g>
	<g>
		<path class="st0" d="M-266.3,276c10.9,3.8,20.4,4.7,28.2,2.5c45.2-12.8,56-4.6,79.7,13.5c3.6,2.7,7.7,5.9,12.2,9.1l0.2-0.3
			c-4.5-3.2-8.6-6.4-12.2-9.1c-23.8-18.1-34.6-26.4-80.1-13.5c-8.1,2.3-18,1.2-29.5-3.1c-10.4-3.9-21.8-10.4-32.9-18.8
			c-28.6-21.6-49.6-45.5-49.7-63.6h-0.4c0,9.3,5.4,16.1,15,29.2c9.1,12.3,21.4,24.6,34.8,34.7c11.2,8.5,22.6,15,33,18.9
			C-267.4,275.7-266.8,275.9-266.3,276z"/>
	</g>
	<g>
		<path class="st0" d="M-277.3,269.7c13,4.6,25,5.8,34.4,3.3c42.4-11.3,58.9,4.1,79.8,23.7c4.2,4,8.6,8.1,13.4,12.2l0.2-0.3
			c-4.8-4.1-9.2-8.2-13.4-12.1c-21-19.7-37.6-35.2-80.2-23.8c-16.7,4.5-41.4-3-66.1-20.1c-25.3-17.5-43.3-40.2-44.9-56.4l-0.4,0.1
			c1.6,16.3,19.7,39.1,45.1,56.7C-298.4,260.4-287.5,266.1-277.3,269.7z"/>
	</g>
	<g>
		<path class="st0" d="M-153.2,316.6l0.3-0.3c-3.9-4-7.6-8.2-11.5-12.7c-10-11.4-20.4-23.2-33.5-30.8c-14.8-8.6-31.2-10.5-49.9-5.8
			c-18.5,4.7-45.5-2.1-70.5-17.9c-21.5-13.5-36.7-30.7-39.5-44.7l-0.4,0.1c2.9,14.2,18.1,31.4,39.7,44.9c11.7,7.4,24.2,13,36.2,16.2
			c13,3.5,25,4.1,34.7,1.7c41.6-10.5,62.7,13.4,83.1,36.5C-160.8,308.4-157.1,312.6-153.2,316.6z"/>
	</g>
	<g>
		<path class="st0" d="M-156.6,324.4l0.3-0.3c-2.3-2.9-4.7-6.2-7.3-9.7c-9.4-12.8-21.1-28.8-35.7-40c-17-13.1-34.5-17.3-53.5-12.8
			c-38.1,9.1-99.3-18.2-109.2-48.6l-0.4,0.1c4.6,14.1,20.9,28.8,43.7,39.1c23,10.5,47.7,14.1,66,9.7c42.6-10.1,69.2,26.2,88.7,52.7
			C-161.3,318.1-158.9,321.4-156.6,324.4z"/>
	</g>
	<g>
		<path class="st0" d="M-160.1,332.1l0.3-0.2c-6.9-11.9-19.9-34.2-36.7-51.4c-20.2-20.7-40.8-29-61-24.5
			c-19.1,4.2-43.1,2.9-64.3-3.6c-22-6.7-38-18-44-31l-0.4,0.2c5.5,12.1,19.7,22.7,39.3,29.6c1.6,0.6,3.3,1.1,5,1.7
			c21.2,6.5,45.3,7.9,64.5,3.6c20.1-4.4,40.5,3.7,60.6,24.4C-179.9,298-167,320.2-160.1,332.1z"/>
	</g>
	<g>
		<path class="st0" d="M-163.5,339.8l0.4-0.2c-5.7-14.5-19.5-38.9-36.1-57.8c-9.8-11.2-19.7-19.7-29.5-25
			c-11.5-6.4-22.8-8.5-33.5-6.3c-21.3,4.3-44.2,5.2-62.8,2.4c-21.9-3.2-37.4-11.3-44.6-23.2l-0.3,0.2c7.3,12,22.9,20.1,44.9,23.3
			c18.7,2.8,41.6,1.9,63-2.5c24.6-5.1,47.6,14.1,62.6,31.2C-183,301.1-169.3,325.3-163.5,339.8z"/>
	</g>
	<g>
		<path class="st0" d="M-167,347.6l0.4-0.1c-2.8-13.4-16.9-41.1-35.6-64.2c-10.4-13-20.9-22.9-31.1-29.5c-12-7.8-23.4-10.8-33.8-8.8
			l-3.7,0.6c-39.5,7.6-84.4,16.1-102.9-7.4l-0.3,0.3c4.4,5.6,10.3,9.4,17.2,11.8c22.4,7.9,55.8,1.5,86.1-4.2l3.7-0.7
			c10.3-2,21.6,1,33.5,8.7c10.2,6.6,20.6,16.5,31,29.4C-183.9,306.6-169.8,334.2-167,347.6z"/>
	</g>
</g>
</svg>
