<?xml version="1.0" encoding="utf-8"?>
<!-- Generator: Adobe Illustrator 19.1.1, SVG Export Plug-In . SVG Version: 6.00 Build 0)  -->
<svg version="1.1" id="Layer_1" xmlns="http://www.w3.org/2000/svg" xmlns:xlink="http://www.w3.org/1999/xlink" x="0px" y="0px"
	 width="117px" height="99px" viewBox="-421 231 117 99" style="enable-background:new -421 231 117 99;" xml:space="preserve">
<style type="text/css">
	.st0{fill:#E5DAD1;stroke:#E5DAD1;stroke-width:0.5;stroke-miterlimit:10;}
</style>
<g>
	<g>
		<path class="st0" d="M-350.8,311.4c-4.5,3.3-8.8,5-12.7,5c-9.5-0.1-16.3-0.7-21.8-1.1c-15.7-1.3-18.2-1.5-34.8,15.5l-0.2-0.2
			c16.7-17.1,19.2-16.9,35-15.5c5.5,0.5,12.2,1,21.7,1.1c9.1,0.1,20.4-9.5,31-26.2c14-22.2,24.8-55,17.8-69.3l0.2-0.1
			c3.2,6.5,2.9,17.6-0.8,31.3c-3.5,12.7-9.6,26.7-16.9,38.3C-338.5,299.7-344.8,306.9-350.8,311.4z"/>
	</g>
	<g>
		<path class="st0" d="M-346.9,306.1c-5.1,3.8-10.1,5.8-14.7,5.8c-35,0.1-35.7,0.9-52.6,20.3c-0.7,0.9-1.5,1.7-2.3,2.7l-0.2-0.2
			c0.8-0.9,1.6-1.8,2.3-2.7c17-19.5,17.7-20.2,52.8-20.3c9.8-0.1,21.7-9.5,32.8-26c6.9-10.3,12.7-22.1,16.1-33.1
			c3.6-11.7,4.3-21.4,1.9-27.5l0.2-0.1c2.4,6.1,1.8,16-1.9,27.7c-3.4,11.1-9.2,22.9-16.1,33.2C-334.6,294.8-340.9,301.7-346.9,306.1
			z"/>
	</g>
	<g>
		<path class="st0" d="M-342.4,300.7c-6.1,4.5-11.9,6.8-17.2,6.9c-30.7,0.5-35.9,7.7-47.3,23.5c-1.7,2.4-3.7,5.1-5.9,8l-0.2-0.2
			c2.2-2.9,4.2-5.6,5.9-8c11.5-15.8,16.7-23,47.5-23.6c5.5-0.1,11.5-2.6,17.9-7.5c5.8-4.4,11.6-10.6,17-18
			c13.8-18.9,21.4-40.9,18-52.2l0.2-0.1c1.7,5.8,0.8,14.2-2.8,24.2c-3.3,9.4-8.8,19.4-15.2,28.3c-5.4,7.4-11.3,13.6-17.1,18
			C-341.9,300.3-342.2,300.5-342.4,300.7z"/>
	</g>
	<g>
		<path class="st0" d="M-336.8,294.7c-7.2,5.3-14.5,8.3-20.9,8.5c-28.7,0.9-36.1,13.7-45.5,29.9c-1.9,3.3-3.9,6.7-6.1,10.1l-0.2-0.1
			c2.2-3.5,4.2-6.9,6.1-10.1c9.4-16.3,16.9-29.1,45.7-30c11.3-0.4,25.4-9.7,37.5-25c12.5-15.7,19.5-33.3,17.5-43.8l0.3-0.1
			c2.1,10.5-4.9,28.2-17.5,44C-325.3,284.9-331.1,290.5-336.8,294.7z"/>
	</g>
	<g>
		<path class="st0" d="M-405.6,347.5l-0.2-0.1c1.7-3.2,3.2-6.6,4.8-10.1c4.1-9,8.4-18.4,15.2-25.6c7.7-8.2,17.5-12.5,30.1-13
			c12.5-0.6,28.1-10,40.8-24.5c10.9-12.6,17.1-26.2,16.3-35.5h0.3c0.9,9.4-5.4,23-16.4,35.6c-5.9,6.8-12.7,12.7-19.6,17
			c-7.5,4.7-14.9,7.3-21.4,7.6c-28,1.3-36.7,20.2-45.1,38.5C-402.4,340.9-403.9,344.2-405.6,347.5z"/>
	</g>
	<g>
		<path class="st0" d="M-402,351.6l-0.2-0.1c0.9-2.3,1.8-4.8,2.7-7.5c3.5-9.8,7.8-22,14.8-31.8c8.2-11.4,18.3-17.3,31-18.1
			c25.6-1.5,58.7-30.1,59.2-51h0.3c-0.2,9.7-7.6,22-19.9,32.7c-12.6,11-27.3,17.9-39.6,18.7c-28.6,1.7-38.4,29.4-45.5,49.7
			C-400.2,346.8-401.1,349.4-402,351.6z"/>
	</g>
	<g>
		<path class="st0" d="M-398.3,355.8l-0.3-0.1c2.1-8.8,6-25.1,13.3-39.1c8.7-16.8,20-25.8,33.6-26.8c12.7-1,27.5-6.3,39.5-14.4
			c12.5-8.4,20.4-18.5,21.7-27.7h0.3c-1.2,8.6-8,17.9-19,25.9c-0.9,0.7-1.9,1.3-2.8,2c-12.1,8.2-27,13.5-39.7,14.5
			c-13.4,1-24.7,10-33.4,26.7C-392.4,330.7-396.3,347.1-398.3,355.8z"/>
	</g>
	<g>
		<path class="st0" d="M-394.7,360h-0.3c0.8-10.2,4.9-28,11.7-43c4-8.9,8.7-16,13.7-21.2c6-6.2,12.7-9.6,19.7-10.2
			c14.1-1.3,28.6-5.1,39.8-10.3c13.1-6.2,21.2-14.1,23.6-22.9l0.2,0.1c-2.3,8.9-10.5,16.9-23.7,23.1c-11.2,5.3-25.7,9-39.9,10.3
			c-16.2,1.3-27,17.7-33.1,31.2C-389.9,332.1-393.9,349.9-394.7,360z"/>
	</g>
	<g>
		<path class="st0" d="M-391.1,364.2h-0.3c-0.8-8.9,2.8-28.9,10.1-46.9c4.1-10.1,8.8-18.2,13.9-24.3c6.1-7.2,12.6-11.1,19.5-11.9
			l2.4-0.3c26.2-2.7,55.8-5.9,63-24.1l0.2,0.1c-1.7,4.3-4.6,7.8-8.5,10.6c-12.4,9.3-34.5,11.6-54.6,13.7l-2.4,0.3
			c-6.8,0.7-13.3,4.7-19.3,11.8c-5.1,6.1-9.8,14.2-13.9,24.3C-388.3,335.4-391.8,355.3-391.1,364.2z"/>
	</g>
</g>
</svg>
