<?xml version="1.0" encoding="utf-8"?>
<!-- Generator: Adobe Illustrator 19.2.0, SVG Export Plug-In . SVG Version: 6.00 Build 0)  -->
<svg version="1.1" id="Layer_1" xmlns="http://www.w3.org/2000/svg" xmlns:xlink="http://www.w3.org/1999/xlink" x="0px" y="0px"
	 width="47px" height="34px" viewBox="0 0 47 34" style="enable-background:new 0 0 47 34;" xml:space="preserve">
<g>
	<path d="M47,28.4c0,3.1-2.5,5.6-5.6,5.6H5.6C2.5,34,0,31.5,0,28.4V5.6C0,2.5,2.5,0,5.6,0h35.8C44.5,0,47,2.5,47,5.6V28.4z M43,5.3
		C43,4.6,42.4,4,41.7,4H5.3C4.6,4,4,4.6,4,5.3v23.4C4,29.4,4.6,30,5.3,30h36.4c0.7,0,1.3-0.6,1.3-1.3V5.3z"/>
	<path d="M23.4,19.2c-0.4,0-0.8-0.1-1.1-0.3L1.4,6.4C0.4,5.8,0,4.5,0.7,3.5c0.6-1,1.9-1.4,2.9-0.7l19.7,11.8L43.1,2.8
		c1-0.6,2.3-0.3,2.9,0.7s0.3,2.3-0.7,2.9L24.5,18.9C24.1,19.1,23.8,19.2,23.4,19.2z"/>
</g>
</svg>
