<?xml version="1.0" encoding="utf-8"?>
<!-- Generator: Adobe Illustrator 19.1.1, SVG Export Plug-In . SVG Version: 6.00 Build 0)  -->
<svg version="1.1" id="Layer_1" xmlns="http://www.w3.org/2000/svg" xmlns:xlink="http://www.w3.org/1999/xlink" x="0px" y="0px"
	 width="47px" height="34px" viewBox="-456 264 47 34" style="enable-background:new -456 264 47 34;" xml:space="preserve">
<style type="text/css">
	.st0{fill:#E5DAD1;}
</style>
<g>
	<path class="st0" d="M-409,292.4c0,3.1-2.5,5.6-5.6,5.6h-35.8c-3.1,0-5.6-2.5-5.6-5.6v-22.8c0-3.1,2.5-5.6,5.6-5.6h35.8
		c3.1,0,5.6,2.5,5.6,5.6V292.4z M-413,269.3c0-0.7-0.6-1.3-1.3-1.3h-36.4c-0.7,0-1.3,0.6-1.3,1.3v23.4c0,0.7,0.6,1.3,1.3,1.3h36.4
		c0.7,0,1.3-0.6,1.3-1.3V269.3z"/>
	<path class="st0" d="M-432.6,283.2c-0.4,0-0.8-0.1-1.1-0.3l-20.9-12.5c-1-0.6-1.4-1.9-0.7-2.9c0.6-1,1.9-1.4,2.9-0.7l19.7,11.8
		l19.8-11.8c1-0.6,2.3-0.3,2.9,0.7s0.3,2.3-0.7,2.9l-20.8,12.5C-431.9,283.1-432.2,283.2-432.6,283.2z"/>
</g>
</svg>
