<?xml version="1.0" encoding="utf-8"?>
<!-- Generator: Adobe Illustrator 19.1.1, SVG Export Plug-In . SVG Version: 6.00 Build 0)  -->
<svg version="1.1" id="Layer_1" xmlns="http://www.w3.org/2000/svg" xmlns:xlink="http://www.w3.org/1999/xlink" x="0px" y="0px"
	 width="50px" height="49.4px" viewBox="-454 256.6 50 49.4" style="enable-background:new -454 256.6 50 49.4;"
	 xml:space="preserve">
<style type="text/css">
	.st0{fill:#F2EDE8;}
</style>
<g>
	<path class="st0" d="M-408.8,256.6h-40.4c-2.6,0-4.8,2.2-4.8,4.8c0,2.7,2.2,4.8,4.8,4.8h40.3c2.7,0,4.8-2.2,4.8-4.8
		C-404,258.8-406.2,256.6-408.8,256.6L-408.8,256.6z"/>
	<path class="st0" d="M-408.8,276.5h-40.4c-2.7,0-4.8,2.2-4.8,4.8c0,2.7,2.2,4.8,4.8,4.8h40.3c2.7,0,4.8-2.2,4.8-4.8
		C-404,278.7-406.2,276.5-408.8,276.5L-408.8,276.5z"/>
	<path class="st0" d="M-408.8,296.4h-40.4c-2.7,0-4.8,2.2-4.8,4.8c0,2.7,2.2,4.8,4.8,4.8h40.3c2.7,0,4.8-2.2,4.8-4.8
		C-404,298.5-406.2,296.4-408.8,296.4L-408.8,296.4z"/>
</g>
</svg>
