<?xml version="1.0" encoding="utf-8"?>
<!-- Generator: Adobe Illustrator 19.1.1, SVG Export Plug-In . SVG Version: 6.00 Build 0)  -->
<svg version="1.1" id="Layer_1" xmlns="http://www.w3.org/2000/svg" xmlns:xlink="http://www.w3.org/1999/xlink" x="0px" y="0px"
	 viewBox="0 0 85 26" style="enable-background:new 0 0 85 26;" xml:space="preserve">
<style type="text/css">
	.st0{fill:#36323F;}
</style>
<g>
	<path class="st0" d="M32.7,12.4C32.7,12.4,32.7,12.4,32.7,12.4l-2.8-7.5h-3.1L24,12.4l0,0c0,0,0,0,0,0c-0.2,0.6,0.1,1.3,0.7,1.6
		c0.6,0.2,1.3-0.1,1.6-0.7c0,0,0,0,0,0l0,0l0.3-0.8h3.6l0.3,0.8l0,0l0,0c0.2,0.6,0.9,1,1.6,0.7C32.6,13.8,32.9,13.1,32.7,12.4z
		 M27.2,10.6l1.2-3.2l1.1,3.2H27.2z"/>
	<path class="st0" d="M5,4.8c2.7,0,4.7,2,4.7,4.7c0,2.7-2,4.7-4.7,4.7c-2.7,0-4.7-2-4.7-4.7C0.3,6.8,2.3,4.8,5,4.8z M5,11.8
		c1.3,0,2.2-1,2.2-2.3c0-1.3-0.9-2.3-2.2-2.3c-1.3,0-2.2,1-2.2,2.3C2.8,10.8,3.7,11.8,5,11.8z"/>
	<path class="st0" d="M18.8,0.3h-4.7v7.9l0,0l0,0c0,0.7,0.6,1.3,1.3,1.3c0.7,0,1.3-0.6,1.3-1.3l0,0l0,0V7.1h2.1
		c1.9,0,3.4-1.3,3.4-3.4C22.2,1.4,20.7,0.3,18.8,0.3z M18.4,4.9h-1.7V2.5h1.7c0.7,0,1.2,0.5,1.2,1.2C19.6,4.4,19.1,4.9,18.4,4.9z"/>
	<path class="st0" d="M46.1,16.4c-0.3,0.1-0.6,0.1-0.9,0.1c-0.8,0-1.5-0.6-2.3-1.3c1.3-0.3,2.2-1.3,2.2-2.7c0-2.1-1.7-3.1-3.4-3.1
		h-4.7v7.9l0,0l0,0c0,0.7,0.6,1.3,1.3,1.3c0.7,0,1.3-0.6,1.3-1.3l0,0v-2h0.1c1.3,0.8,2.8,3.4,5,3.4c0.6,0,1.2-0.2,1.6-0.4L46.1,16.4
		z M41.5,13.5h-1.8v-1.9h1.8c0.6,0,1,0.4,1,0.9C42.5,13.1,42.2,13.5,41.5,13.5z"/>
	<path class="st0" d="M71.6,9.9c-0.7,0-1.3,0.6-1.3,1.3l0,0l0,0v3.7c0,1.2-0.6,1.9-1.8,1.9c-1.1,0-1.8-0.7-1.8-1.9v-3.7l0,0l0,0
		c0-0.7-0.6-1.3-1.3-1.3c-0.7,0-1.3,0.6-1.3,1.3v3.9c0,2.4,1.6,4.1,4.4,4.1c2.8,0,4.4-1.9,4.4-4.1v-3.9C72.9,10.5,72.3,9.9,71.6,9.9
		z"/>
	<path class="st0" d="M83.6,12.3L83.6,12.3h-3.9V11h3l0,0h0c0.6,0,1.1-0.5,1.1-1.1c0-0.6-0.5-1.1-1.1-1.1h0l0,0h-3V7.6h3.9v0l0,0
		c0.6,0,1.1-0.5,1.1-1.1c0-0.6-0.5-1.1-1.1-1.1h0l0,0h-6.4v9.2h6.4l0,0h0c0.6,0,1.1-0.5,1.1-1.1C84.8,12.8,84.2,12.3,83.6,12.3z"/>
	<path class="st0" d="M61.1,25.4c-0.4,0.1-1,0.3-1.7,0.3c-2.1,0-3.3-1.9-4-2.3c-2.7,0-4.6-2-4.6-4.7c0-2.7,2-4.7,4.7-4.7
		c2.7,0,4.7,2,4.7,4.7c0,1.8-0.9,3.3-2.3,4.1c0.5,0.4,1,0.8,1.7,0.8c0.4,0,1-0.1,1.2-0.1L61.1,25.4z M55.5,21c1.3,0,2.2-1,2.2-2.3
		c0-1.3-0.9-2.3-2.2-2.3c-1.3,0-2.2,1-2.2,2.3C53.3,20,54.2,21,55.5,21z"/>
</g>
</svg>
