<?xml version="1.0" encoding="utf-8"?>
<!-- Generator: Adobe Illustrator 19.1.1, SVG Export Plug-In . SVG Version: 6.00 Build 0)  -->
<svg version="1.1" id="Layer_1" xmlns="http://www.w3.org/2000/svg" xmlns:xlink="http://www.w3.org/1999/xlink" x="0px" y="0px"
	 width="173px" height="134px" viewBox="-393 348 173 134" style="enable-background:new -393 348 173 134;" xml:space="preserve">
<path d="M-244.9,352.3c-2.6-2.6-5.7-3.9-9.2-3.9s-6.6,1.3-9.2,3.9l-56.2,56.2l-30-30c-2.6-2.6-5.6-3.9-9.2-3.9
	c-3.5,0-6.6,1.3-9.2,3.9l-20.9,20.8c-2.6,2.6-3.9,5.6-3.9,9.2c0,3.5,1.3,6.6,3.9,9.2l60.1,60.1c2.6,2.6,5.7,3.9,9.2,3.9
	s6.6-1.3,9.2-3.9l86.2-86.2c2.6-2.6,3.9-5.6,3.9-9.2c0-3.5-1.3-6.6-3.9-9.2L-244.9,352.3z"/>
</svg>
