<?xml version="1.0" encoding="utf-8"?>
<!-- Generator: Adobe Illustrator 19.1.1, SVG Export Plug-In . SVG Version: 6.00 Build 0)  -->
<svg version="1.1" id="Layer_1" xmlns="http://www.w3.org/2000/svg" xmlns:xlink="http://www.w3.org/1999/xlink" x="0px" y="0px"
	 width="50px" height="49.4px" viewBox="0 0 50 49.4" style="enable-background:new 0 0 50 49.4;" xml:space="preserve">
<style type="text/css">
	.st0{fill-rule:evenodd;clip-rule:evenodd;fill:#F2EDE8;}
</style>
<g>
	<g>
		<g>
			<path class="st0" d="M48.8,42.3L37.9,31.6c-0.1-0.1-0.1-0.1-0.2-0.1c2.1-3.2,3.4-7,3.4-11.2C41.1,9.1,31.9,0,20.6,0S0,9.1,0,20.3
				c0,11.2,9.2,20.3,20.6,20.3c4.2,0,8.1-1.2,11.3-3.3c0.1,0.1,0.1,0.1,0.2,0.2l10.9,10.7c1.6,1.6,4.3,1.6,5.9,0
				C50.4,46.6,50.4,43.9,48.8,42.3L48.8,42.3z M20.6,33.6c-7.4,0-13.4-5.9-13.4-13.3C7.1,13,13.1,7,20.6,7S34,13,34,20.3
				C34,27.6,28,33.6,20.6,33.6L20.6,33.6z M20.6,33.6"/>
		</g>
	</g>
</g>
</svg>
