<?xml version="1.0" encoding="utf-8"?>
<!-- Generator: Adobe Illustrator 19.1.1, SVG Export Plug-In . SVG Version: 6.00 Build 0)  -->
<svg version="1.1" id="Layer_1" xmlns="http://www.w3.org/2000/svg" xmlns:xlink="http://www.w3.org/1999/xlink" x="0px" y="0px"
	 width="912px" height="133.6px" viewBox="-23 214.4 912 133.6" style="enable-background:new -23 214.4 912 133.6;"
	 xml:space="preserve">
<style type="text/css">
	.st0{fill:#AF3838;}
</style>
<g>
	<g>
		<g>
			<path class="st0" d="M392.2,279.6L392.2,279.6v31.8c-4-4-7.8-12-12.2-18.2c-7.2-10-10-14.2-22.8-15c-0.4,0-0.8,0-1.2,0v0.2v44.8
				v0.2h9.6v-0.2V289c4,4,7.8,12,12.2,18.2c7.2,10,10,16,22.8,16.8c0.4,0,0.8,0,1.2,0v-0.2v-44.2v-0.2h-9.6V279.6z"/>
			<path class="st0" d="M325.4,277c-12.4,0-23.8,5.4-23.8,23.6c0.2,16,12,22.8,23.6,23.2h0.4c11.6-0.6,23.8-6,23.6-23.2
				C349,284,338,276.8,325.4,277z M325.6,315.8h-0.2c-7-0.4-14.2-4.8-14.2-15.4c0-12,6.8-15.6,14.4-15.6l0,0h0.2c0,0,0,0-0.2,0
				c7.6,0,14.2,4.6,14.4,15.6C340,312,332.6,315.6,325.6,315.8z"/>
			<path class="st0" d="M420.2,314.4v-36.2h5.4v-8h-5.4v-7.4h-8.4v7.6l0,0v44.4l0,0c0,4.6,3.8,8.6,8.6,8.6l0,0h7v-8H421
				C420.6,315.4,420.2,315,420.2,314.4z"/>
			<path class="st0" d="M297.2,313c-2.2,1-6.8,2.8-12.4,2.8c-11,0-13.8-7.6-13.8-15.6c0-12,6-14.8,13.8-15.2
				c5.6-0.4,10.2,1,12.4,1.8V278c-13.4-3-35.6-1.8-35.8,22.2c-0.4,24.2,20,25.8,35.8,22V313z"/>
			<path class="st0" d="M191.2,279.6H191v0.4v0.2v30.4c-2.2-2.4-4.2-5.8-6.6-9.6c-1.6-2.6-3.2-5.4-5-7.8l0,0
				c-7.2-10-10.8-14.2-23.6-15c-0.4,0-0.8,0-1.2,0h-0.4v0.4v0.2v44v0.2v0.4h0.4h10.2h0.4V323v-0.2v-33c2.2,2.4,4.2,5.8,6.6,9.6
				c1.6,2.6,3.2,5.4,5,7.8l0,0c7.2,10,10.8,15.8,23.6,16.6c0.4,0,0.8,0,1.2,0h0.4v-0.4v-0.2v-43.4v-0.2v-0.4h-0.4h-10.4
				C191.2,279.2,191.2,279.6,191.2,279.6z"/>
			<path class="st0" d="M246.8,280.8c-5.4-4-12.4-4.2-17.4-4.2c-4.2,0-8.6,0.6-12.6,1.6c-6.2,1.6-8.4,2-8.4,2h-0.2v0.2v39v28.2v0.4
				h0.4l0,0c5.4,0,10.4-4,10.4-8.8v-16.8c4.4,1,8.4,1.6,12.4,1.6c7.8,0,14-1.4,18-5.6c4-4,6.6-10.6,6.6-18.4
				C255.8,291.8,252.2,284.8,246.8,280.8z M245,300.2c0,7-2.4,15.4-13.6,15.4c-5.8,0-10.6-2-12.6-2.8v-15v-10.6c2-0.8,6.2-2,10.8-2
				c0.6,0,1,0,1.6,0C238.4,285.6,245,287.8,245,300.2z"/>
			<path class="st0" d="M146,312.4c-0.8,0-1.6-0.8-1.6-1.8v-21.8c0-3,0-6.2,0.2-9.2l0,0H144h-5.2c-1.4,0-2.8-0.2-4.2-0.6
				c-4.6-1.2-9.4-1.8-13.6-1.8c-7.8,0-14,1.4-18,5.6c-4,4-6.6,10.6-6.6,18.4c0,6.8,2.2,12.6,6,16.6c6,6.4,14.2,6.4,20.6,6.4
				c2.6,0,9.6-1.6,11.6-4.6c0.2,2.8,0.4,3.8,6.8,3.8h7.2v-11H146L146,312.4z M123.4,315.2c-10,0.6-16-3.8-16-14.2
				c0-7,2.4-15.4,13.6-15.4c5.6,0,11,1.8,13.2,2.8v21C132.8,311.8,130,314.8,123.4,315.2z"/>
		</g>
	</g>
	<g>
		<path class="st0" d="M115,244.4c-6.2,0-10.8-5-10.8-11.8v-0.2c0-6.6,4.8-11.6,10.8-11.6c3.2,0,6,1.2,9,3.8l4.2-5
			c-3.6-3.4-7.6-5-13.2-5c-10.2,0-18,7.6-18,17.8l0,0c0,10,7.6,17.8,17.6,17.8c5.8,0,9.8-1.6,13.8-5.8l-4.2-4.2
			C121.6,242.8,119,244.4,115,244.4z"/>
		<path class="st0" d="M170.2,232.6c0-10-7.8-17.8-18.2-17.8c-10.2,0-18.4,7.8-18.4,17.8l0,0c0,10,7.8,17.8,18.2,17.8
			C162.2,250.4,170.2,242.6,170.2,232.6L170.2,232.6z M163.2,232.8c0,6.6-4.8,11.6-11.2,11.6s-11.2-5.2-11.2-11.8v-0.2
			c0-6.6,4.8-11.6,11.2-11.6C158.2,221,163.2,226,163.2,232.8L163.2,232.8z"/>
		<polygon class="st0" points="208.8,249.8 208.8,215.4 202,215.4 202,238.4 184.6,215.4 178.2,215.4 178.2,249.8 184.8,249.8 
			184.8,226.2 202.8,249.8 		"/>
		<path class="st0" d="M216.8,232.8c0,10.4,7.4,17.8,18.2,17.8c5.4,0,10.4-1.8,14.6-5.4v-14.6h-14.4v5.6h7.8v5.8l-0.2,0.2
			c-2,1.4-4.6,2.2-7.6,2.2c-6.6,0-11.2-5-11.2-11.8v-0.2c0-6.4,4.8-11.6,10.8-11.6c4,0,6.6,1.2,9.2,3.4l4.2-5
			c-3.2-2.6-6.8-4.4-13.2-4.4C224.6,214.8,216.8,222.6,216.8,232.8L216.8,232.8z"/>
		<path class="st0" d="M279.4,249.8h7.8l-8.4-12.4l0.6-0.2c3.4-1.2,7.2-4,7.2-10.4l0,0c0-3.2-1-5.8-2.8-7.8c-2.2-2.2-5.6-3.4-10-3.4
			h-15.6V250h6.8v-11.4h7L279.4,249.8z M264.8,221.4h8.4c4.2,0,6.6,2,6.6,5.6v0.2c0,3.4-2.6,5.6-6.6,5.6h-8.4
			C264.8,232.8,264.8,221.4,264.8,221.4z"/>
		<polygon class="st0" points="318.2,235.4 318.2,229.6 301.4,229.6 301.4,221.2 320.4,221.2 320.4,215.4 294.8,215.4 294.8,249.8 
			320.6,249.8 320.6,244 301.4,244 301.4,235.4 		"/>
		<path class="st0" d="M353.2,239.8c0-5.4-3-8-10.8-10.2c-5.8-1.4-8-2.4-8-5.2l0,0c0-1.6,1.4-3.6,5.2-3.6c2.8,0,5.8,1,9,3.2l3.4-5
			c-3.6-2.8-7.8-4-12.4-4c-7.2,0-11.8,4-11.8,10.2v0.2c0,6.4,3.6,8.4,11.4,10.4c6,1.6,7.6,2.6,7.6,5l0,0c0,2.4-2.2,3.8-5.6,3.8
			c-3.6,0-7-1.4-10.6-4l-4,4.8c4,3.4,9,5.2,14.2,5.2C348.4,250.4,353.2,246.4,353.2,239.8L353.2,239.8z"/>
		<path class="st0" d="M385.2,239.8c0-5.4-3-8-10.8-10.2c-5.8-1.4-8-2.4-8-5.2l0,0c0-1.6,1.4-3.6,5.2-3.6c2.8,0,5.8,1,9,3.2l3.4-5
			c-3.6-2.8-7.8-4-12.4-4c-7.2,0-11.8,4-11.8,10.2v0.2c0,6.4,3.6,8.4,11.4,10.4c6,1.6,7.6,2.6,7.6,5l0,0c0,2.4-2.2,3.8-5.6,3.8
			c-3.6,0-7-1.4-10.6-4l-4,4.8c4,3.4,9,5.2,14.2,5.2C380.4,250.4,385.2,246.4,385.2,239.8L385.2,239.8z"/>
		<path class="st0" d="M428.2,232.6c0-10-7.8-17.8-18.2-17.8s-18.4,7.8-18.4,17.8l0,0c0,10,7.8,17.8,18.2,17.8
			C420,250.4,428.2,242.6,428.2,232.6L428.2,232.6z M421,232.8c0,6.6-4.8,11.6-11.2,11.6s-11.2-5.2-11.2-11.8v-0.2
			c0-6.6,4.8-11.6,11.2-11.6C416.2,221,421,226,421,232.8L421,232.8z"/>
	</g>
	<path class="st0" d="M662.8,265.4c81.6-34,136.2-40.4,223-40.4c1,0,2.2,0,3.2,0v-8.8c-90-0.2-145.8,6-229.6,41
		c-13.8,5.8-28.2,11.4-43,16.6c-17.2-6.6-32.6-13.4-47-20c-38.8-17.4-72.2-35.2-122.2-35.2v8.8c48.2,0,79.2,16.8,118.6,34.4
		c11.8,5.2,24.2,10.8,38,16.4c-62.2,21.4-126.2,37-156.6,37v8.8c19.8,0,53.2-6.2,94.2-17.4c24.8-6.8,50.4-14.8,74.8-23.6
		c18.8,7,40,14,65,20c58,14,126,20.8,207.6,20.8V315c-129,0-204.8-17-259.8-36.8C640.8,274.2,652,269.8,662.8,265.4z"/>
	<path class="st0" d="M27.2,282.6c0,0,20.2,14.2,24,19.4c4.8,6.4,5.8,16.4,5.8,23h17c0.2-26.4-11.2-35.8-31.6-53.4l-2-1.8l2-1.8
		C63,250.4,74.2,241,74,214.6H57c0,6.8-1,16.8-5.8,23c-4,5.2-24,19.4-24,19.4S8.4,243.4,3.6,238c-7.2-8.2-8.6-17.6-8.6-23.6h-18
		c0,26.6,14.2,36.2,34.4,53.4l2,1.8l-2,1.8C-8.8,288.6-23,298.2-23,324.8h18c0-6,1.4-15.2,8.6-23.6C8.4,296.2,27.2,282.6,27.2,282.6
		z"/>
</g>
</svg>
