<?xml version="1.0" encoding="utf-8"?>
<!-- Generator: Adobe Illustrator 19.1.1, SVG Export Plug-In . SVG Version: 6.00 Build 0)  -->
<svg version="1.1" id="Layer_1" xmlns="http://www.w3.org/2000/svg" xmlns:xlink="http://www.w3.org/1999/xlink" x="0px" y="0px"
	 width="224.8px" height="125px" viewBox="-328 218 224.8 125" style="enable-background:new -328 218 224.8 125;"
	 xml:space="preserve">
<style type="text/css">
	.st0{fill:#AF3838;}
</style>
<g>
	<g>
		<g>
			<path class="st0" d="M-121.6,251L-121.6,251v16.1c-2-2-3.9-6.1-6.2-9.2c-3.6-5.1-5.1-7.2-11.5-7.6c-0.2,0-0.4,0-0.6,0v0.1v22.8
				v0.1h4.8v-0.1v-17.4c2,2,3.9,6.1,6.2,9.2c3.6,5.1,5.1,8.2,11.5,8.6c0.2,0,0.4,0,0.6,0v-0.1V251V251H-121.6z"/>
			<path class="st0" d="M-155.4,249.6c-6.4,0-12.1,2.7-12.1,12c0.1,8.1,6.1,11.6,12,11.8h0.2c5.9-0.3,12.1-3,12-11.8
				C-143.4,253.2-149.1,249.6-155.4,249.6z M-155.4,269.4h-0.1c-3.5-0.2-7.2-2.5-7.2-7.8c0-6.1,3.4-8,7.3-7.9c0,0,0,0,0,0h0.1
				c0,0,0,0-0.1,0c3.8,0,7.2,2.4,7.3,7.9C-148.1,267.4-151.8,269.2-155.4,269.4z"/>
			<path class="st0" d="M-107.3,268.7v-18.4h2.7v-4h-2.7v-3.9h-4.3v3.9v0v22.5v0c0,2.4,1.9,4.3,4.3,4.3h0h3.6v-4h-3.2
				C-107.1,269.2-107.3,269-107.3,268.7z"/>
			<path class="st0" d="M-169.8,268c-1.1,0.5-3.5,1.4-6.4,1.4c-5.5,0-7-3.9-7-8c0-6.1,3-7.5,7-7.8c2.8-0.2,5.2,0.6,6.4,1v-4.5
				c-6.8-1.5-18.1-0.9-18.2,11.3c-0.2,12.3,10.2,13.1,18.2,11.2V268z"/>
			<path class="st0" d="M-223.7,251h-0.2v0.2v0.1v15.5c-1.1-1.2-2.2-3-3.3-4.9c-0.8-1.4-1.7-2.8-2.5-4l0,0c-3.6-5.1-5.5-7.2-12-7.6
				c-0.2,0-0.4,0-0.6,0l-0.2,0v0.2v0.1V273v0.1v0.2h0.2h5.2h0.2V273V273v-16.8c1.1,1.2,2.2,3,3.3,4.9c0.8,1.4,1.7,2.8,2.5,4l0,0
				c3.6,5.1,5.5,8,12,8.4c0.2,0,0.4,0,0.6,0l0.2,0v-0.2v-0.1v-22.1v-0.1V251h-0.2H-223.7z"/>
			<path class="st0" d="M-195.5,251.5c-2.8-2-6.3-2.1-8.9-2.1c-2.1,0-4.4,0.3-6.4,0.8c-3.1,0.8-4.3,1-4.3,1l-0.1,0v0.1v19.9v14.3
				v0.2h0.2h0c2.7,0,5.3-2,5.3-4.5v-8.5c2.2,0.5,4.3,0.8,6.3,0.8c4,0,7.1-0.7,9.2-2.8c2-2.1,3.4-5.4,3.3-9.3
				C-190.9,257.1-192.7,253.6-195.5,251.5z M-196.4,261.4c0,3.6-1.2,7.8-6.9,7.8c-2.9,0-5.4-1-6.4-1.4v-7.6v-5.4
				c1.1-0.4,3.1-1,5.5-1c0.3,0,0.5,0,0.8,0C-199.7,254-196.4,255.1-196.4,261.4z"/>
			<path class="st0" d="M-246.7,267.6c-0.4,0-0.9-0.4-0.9-0.9l0-11.1c0-1.6,0-3.1,0.1-4.7l0,0h-0.3h-2.6c-0.7,0-1.5-0.1-2.2-0.3
				c-2.4-0.6-4.8-0.9-6.9-0.9c-4,0-7.1,0.7-9.2,2.8c-2,2.1-3.4,5.4-3.3,9.3c0,3.4,1.1,6.4,3,8.5c3,3.3,7.2,3.3,10.5,3.3
				c1.3,0,4.9-0.8,5.9-2.3c0.1,1.4,0.2,1.9,3.4,1.9h3.7v-5.6H-246.7z M-258.2,269c-5,0.3-8.2-1.9-8.1-7.2c0-3.6,1.2-7.8,6.9-7.8
				c2.8,0,5.6,0.9,6.7,1.4l0,10.7C-253.5,267.3-254.8,268.8-258.2,269z"/>
		</g>
	</g>
	<g>
		<path class="st0" d="M-262.4,233c-3.1,0-5.5-2.6-5.5-6V227c0-3.3,2.4-5.9,5.5-5.9c1.6,0,3.1,0.6,4.6,1.9l2.2-2.5
			c-1.9-1.8-3.9-2.5-6.7-2.5c-5.2,0-9.1,3.9-9.1,9.1v0.1c0,5.1,3.9,9,9,9c2.9,0,5-0.9,7-2.9l-2.2-2.2
			C-259.1,232.2-260.4,233-262.4,233z"/>
		<path class="st0" d="M-234.4,227c0-5.1-4-9-9.3-9c-5.2,0-9.3,4-9.3,9.1v0.1c0,5.1,4,9,9.3,9C-238.5,236.1-234.4,232.1-234.4,227
			L-234.4,227z M-238,227.1c0,3.4-2.4,5.9-5.7,5.9c-3.2,0-5.7-2.6-5.7-6V227c0-3.4,2.4-5.9,5.7-5.9
			C-240.5,221.1-238,223.7-238,227.1L-238,227.1z"/>
		<polygon class="st0" points="-214.8,235.8 -214.8,218.3 -218.2,218.3 -218.2,230 -227.1,218.3 -230.3,218.3 -230.3,235.8 
			-226.9,235.8 -226.9,223.8 -217.8,235.8 		"/>
		<path class="st0" d="M-210.7,227.1c0,5.3,3.8,9,9.2,9c2.8,0,5.3-0.9,7.4-2.7V226h-7.3v2.9h4v3l-0.1,0.1c-1,0.7-2.4,1.1-3.9,1.1
			c-3.3,0-5.7-2.5-5.7-6V227c0-3.3,2.4-5.9,5.5-5.9c2.1,0,3.4,0.7,4.7,1.7l2.1-2.6c-1.6-1.3-3.5-2.2-6.7-2.2
			C-206.7,218-210.7,222-210.7,227.1L-210.7,227.1z"/>
		<path class="st0" d="M-178.9,235.8h4l-4.3-6.3l0.3-0.1c1.7-0.6,3.7-2.1,3.7-5.3V224c0-1.6-0.5-3-1.5-3.9c-1.1-1.1-2.9-1.7-5.1-1.7
			h-8v17.5h3.4V230h3.5L-178.9,235.8z M-186.3,221.3h4.2c2.2,0,3.4,1,3.4,2.9v0.1c0,1.7-1.3,2.8-3.3,2.8h-4.3V221.3z"/>
		<polygon class="st0" points="-159.2,228.5 -159.2,225.5 -167.7,225.5 -167.7,221.3 -158,221.3 -158,218.3 -171.1,218.3 
			-171.1,235.8 -157.9,235.8 -157.9,232.8 -167.7,232.8 -167.7,228.5 		"/>
		<path class="st0" d="M-141.3,230.7c0-2.7-1.5-4.1-5.5-5.1c-3-0.8-4.1-1.2-4.1-2.6v-0.1c0-0.9,0.7-1.9,2.6-1.9
			c1.4,0,2.9,0.5,4.6,1.7l1.8-2.5c-1.8-1.4-3.9-2.1-6.3-2.1c-3.6,0-6,2.1-6,5.2v0.1c0,3.2,1.9,4.2,5.8,5.2c3,0.8,3.8,1.3,3.8,2.6
			v0.1c0,1.2-1.1,2-2.9,2c-1.9,0-3.6-0.7-5.4-2.1l-2,2.4c2,1.7,4.6,2.6,7.3,2.6C-143.7,236.1-141.3,234-141.3,230.7L-141.3,230.7z"
			/>
		<path class="st0" d="M-125.1,230.7c0-2.7-1.5-4.1-5.5-5.1c-3-0.8-4.1-1.2-4.1-2.6v-0.1c0-0.9,0.7-1.9,2.6-1.9
			c1.4,0,2.9,0.5,4.6,1.7l1.8-2.5c-1.8-1.4-3.9-2.1-6.3-2.1c-3.6,0-6,2.1-6,5.2v0.1c0,3.2,1.9,4.2,5.8,5.2c3,0.8,3.8,1.3,3.8,2.6
			v0.1c0,1.2-1.1,2-2.9,2c-1.9,0-3.6-0.7-5.4-2.1l-2,2.4c2,1.7,4.6,2.6,7.3,2.6C-127.5,236.1-125.1,234-125.1,230.7L-125.1,230.7z"
			/>
		<path class="st0" d="M-103.2,227c0-5.1-4-9-9.3-9c-5.2,0-9.3,4-9.3,9.1v0.1c0,5.1,4,9,9.3,9C-107.3,236.1-103.2,232.1-103.2,227
			L-103.2,227z M-106.8,227.1c0,3.4-2.4,5.9-5.7,5.9c-3.2,0-5.7-2.6-5.7-6V227c0-3.4,2.4-5.9,5.7-5.9
			C-109.3,221.1-106.8,223.7-106.8,227.1L-106.8,227.1z"/>
	</g>
	<path class="st0" d="M-218.3,313.1c41.5-17.3,69.3-20.5,113.4-20.5c0.6,0,1.1,0,1.7,0l0-4.5c-45.8-0.1-74.2,3-116.8,20.9
		c-7,2.9-14.4,5.8-21.9,8.5c-8.8-3.4-16.6-6.9-23.9-10.2c-19.7-8.8-36.7-17.9-62.2-17.9v4.5c24.5,0,40.3,8.6,60.3,17.5
		c6,2.7,12.3,5.5,19.3,8.3c-31.6,10.9-64.2,18.8-79.6,18.8v4.5c10.1,0,27.1-3.1,48-8.8c12.6-3.4,25.6-7.5,38.1-12
		c9.5,3.6,20.3,7.1,33.1,10.2c29.5,7.1,64.1,10.6,105.7,10.6v-4.5c-65.6,0-104.2-8.7-132.2-18.7
		C-229.5,317.6-223.8,315.4-218.3,313.1z"/>
	<path class="st0" d="M-302.9,252c0,0,10.1,7.2,12.1,9.8c2.4,3.2,2.9,8.2,2.9,11.6h8.6c0.1-13.2-5.6-18-15.9-26.8l-1-0.9l1-0.9
		c10.3-8.8,16-13.6,15.9-26.8h-8.6c0,3.4-0.5,8.4-2.9,11.6c-2,2.6-12.1,9.8-12.1,9.8s-9.4-6.8-11.8-9.5c-3.7-4.2-4.4-8.8-4.4-11.8
		h-9c0,13.3,7.2,18.2,17.3,26.8l1.1,0.9l-1.1,0.9c-10.2,8.6-17.3,13.5-17.3,26.8h9c0-3,0.7-7.7,4.4-11.8
		C-312.3,258.8-302.9,252-302.9,252z"/>
</g>
</svg>
